#N canvas 879 315 487 389 10;
#X obj 80 31 inlet;
#X obj 166 125 arraysize;
#X obj 195 326 arraycopy \$1;
#X msg 188 280 copy \$1;
#X obj 253 143 symbol \$1;
#X obj 184 175 pack f s;
#X obj 174 68 t b s b;
#X msg 183 217 \; \$2 resize \$1 \;;
#X obj 70 74 t s s;
#X connect 0 0 8 0;
#X connect 1 0 5 0;
#X connect 3 0 2 0;
#X connect 4 0 5 1;
#X connect 5 0 7 0;
#X connect 6 0 1 0;
#X connect 6 1 1 1;
#X connect 6 2 4 0;
#X connect 8 0 3 0;
#X connect 8 1 6 0;
