#N canvas 78 278 630 410 10;
#X obj 37 175 list split 1;
#X obj 37 92 until;
#X obj 37 130 list append;
#X obj 63 59 t b l;
#X obj 64 202 sel s;
#X obj 172 54 list;
#X msg 310 112 list \$1;
#X obj 266 154 symbol;
#X obj 52 266 symbol;
#X msg 294 7 symbol a;
#X msg 359 4 symbol b;
#X obj 105 343 outlet achou;
#X obj 294 347 outlet nao_achou;
#X obj 82 16 inlet symbol;
#X obj 185 254 counter;
#X obj 217 17 t b s b;
#X obj 122 306 pack s f;
#X obj 307 286 pack s f;
#X obj 183 164 t b b;
#X obj 59 237 t b b;
#X obj 152 216 b;
#X obj 287 190 t s s;
#X obj 403 212 drip;
#X obj 403 240 print debug;
#X obj 399 184 list;
#X obj 402 143 bng 15 250 50 0 empty empty empty 17 7 0 10 -262144
-1 -1;
#X obj 320 62 list prepend;
#X connect 0 0 4 0;
#X connect 0 1 2 1;
#X connect 0 2 18 0;
#X connect 1 0 2 0;
#X connect 2 0 0 0;
#X connect 3 0 1 0;
#X connect 3 1 2 1;
#X connect 3 1 26 1;
#X connect 4 0 19 0;
#X connect 4 1 20 0;
#X connect 5 0 3 0;
#X connect 6 0 26 0;
#X connect 7 0 21 0;
#X connect 8 0 16 0;
#X connect 9 0 15 0;
#X connect 10 0 15 0;
#X connect 13 0 15 0;
#X connect 14 0 16 1;
#X connect 14 0 17 1;
#X connect 15 0 5 0;
#X connect 15 1 4 1;
#X connect 15 1 7 1;
#X connect 15 1 8 1;
#X connect 15 2 14 2;
#X connect 16 0 11 0;
#X connect 17 0 12 0;
#X connect 18 0 1 1;
#X connect 18 0 7 0;
#X connect 18 1 14 0;
#X connect 19 0 8 0;
#X connect 19 1 14 0;
#X connect 19 1 1 1;
#X connect 20 0 14 0;
#X connect 21 0 17 0;
#X connect 21 1 6 0;
#X connect 22 0 23 0;
#X connect 24 0 22 0;
#X connect 25 0 24 0;
#X connect 26 0 5 1;
#X connect 26 0 24 1;
