#N canvas 125 201 169 155 10;
#N canvas 0 22 907 531 samplemap 0;
#X obj 122 228 unpack s f;
#X obj 274 204 unpack s f;
#X obj 364 104 t f f;
#X obj 415 133 * 20;
#X obj 147 138 samplemap/lista;
#X obj 252 451 soundfiler;
#X obj 68 -8 t s s;
#X obj 65 104 symbol;
#X msg 256 403 read -resize /Users/paulo/pd-library/goldbaby/808k7/Cassette808_conga03.wav
20.samplemap.mem.0;
#X obj 63 -50 r samplemap.load;
#X obj 425 -31 r samplemap.loaded;
#X obj 422 22 s samplemap.loaded.resp;
#N canvas 0 22 450 300 \$0.data 0;
#X restore 257 -35 pd \$0.data;
#X obj 562 174 makefilename pd-%s;
#X obj 568 146 symbol \$0.data;
#X obj 580 114 b;
#X obj 65 44 soundfile_info;
#X msg 60 12 read \$1;
#X obj 462 64 unpack f s f f f f s;
#X obj 65 74 t b l;
#N canvas 0 22 542 398 mem 0;
#X obj 321 85 table \$0.mem.channels;
#X obj 224 40 inlet channels;
#X obj 88 200 f;
#X obj 111 32 inlet index;
#X msg 169 190 \; \$2.mem.channels resize \$1;
#X obj 143 153 pack f \$0;
#X obj 142 112 + 1;
#X obj 110 78 t f f;
#X obj 93 259 tabwrite \$0.mem.channels;
#X obj 88 127 t b f;
#X obj 27 33 inlet read;
#X obj 17 278 tabread \$0.mem.channels;
#X obj 15 316 outlet;
#X connect 1 0 2 1;
#X connect 2 0 8 0;
#X connect 3 0 7 0;
#X connect 5 0 4 0;
#X connect 6 0 5 0;
#X connect 7 0 9 0;
#X connect 7 1 6 0;
#X connect 9 0 2 0;
#X connect 9 1 8 1;
#X connect 10 0 11 0;
#X connect 11 0 12 0;
#X restore 322 260 pd mem channels;
#X obj 727 189 f;
#X obj 709 213 until;
#X msg 703 364 set \$1;
#X msg 703 394 20.samplemap.mem.0;
#X obj 642 305 sprintf %d.samplemap.mem.%d;
#X obj 641 337 symbol;
#X obj 600 403 pack s f s;
#X obj 642 275 f;
#X obj 709 245 t b b;
#X obj 725 269 counter;
#X obj 587 269 t b b;
#X obj 200 261 t f f;
#X obj 164 300 pack f f f;
#X msg 579 434 \; \$3 obj 10 \$2 table \$1 \;;
#X obj 204 174 t l l l l;
#X msg 364 369 add2 \$1;
#X obj 273 376 b;
#X msg 272 328 set read -resize \$1;
#X msg 141 342 \; \$2.array \$1 \$3 \;;
#X obj 201 91 splitfilename;
#X obj 61 314 symbol;
#X msg 29 391 loading file \$1 with \$2 channels;
#X obj 36 359 pack s f;
#X obj 29 422 print Samplemap;
#N canvas 60 480 450 300 warn 0;
#X msg 85 47 13;
#X obj 84 110 pack f f \$0;
#X msg 79 212 \; \$3.warn color \$1 \$2 \;;
#X msg 115 80 0;
#X msg 149 78 2;
#X msg 69 72 0;
#X obj 210 80 counter;
#X obj 214 117 % 2;
#X obj 208 144 sel 0 1;
#X obj 199 171 t b b;
#X obj 240 173 t b b;
#X obj 222 26 t b b;
#X msg 297 29 0;
#X obj 207 51 metro 222;
#X obj 260 107 sel 8;
#X obj 241 5 loadbang;
#X connect 0 0 1 0;
#X connect 1 0 2 0;
#X connect 3 0 1 1;
#X connect 4 0 1 1;
#X connect 5 0 1 0;
#X connect 6 0 14 0;
#X connect 7 0 8 0;
#X connect 8 0 9 0;
#X connect 8 1 10 0;
#X connect 9 0 0 0;
#X connect 9 1 3 0;
#X connect 10 0 5 0;
#X connect 10 1 4 0;
#X connect 11 0 13 0;
#X connect 11 1 6 2;
#X connect 12 0 13 0;
#X connect 13 0 6 0;
#X connect 14 0 12 0;
#X connect 14 0 10 0;
#X connect 14 1 7 0;
#X connect 15 0 11 0;
#X restore 591 -31 pd warn;
#X obj 87 -24 unpack s f f;
#X msg 413 324 set read -maxsize \$2 -resize \$1;
#X obj 421 298 pack s f;
#X obj 275 239 unpack s;
#X obj 288 291 demux 1 2;
#X connect 0 1 32 0;
#X connect 1 1 2 0;
#X connect 2 0 31 0;
#X connect 2 1 3 0;
#X connect 2 1 20 1;
#X connect 2 1 28 1;
#X connect 3 0 27 1;
#X connect 4 0 0 0;
#X connect 4 1 35 0;
#X connect 6 0 17 0;
#X connect 6 1 7 1;
#X connect 6 1 40 0;
#X connect 7 0 4 0;
#X connect 8 0 5 0;
#X connect 9 0 46 0;
#X connect 10 0 11 0;
#X connect 13 0 27 2;
#X connect 14 0 13 0;
#X connect 15 0 14 0;
#X connect 16 0 19 0;
#X connect 17 0 16 0;
#X connect 18 2 48 1;
#X connect 18 4 20 2;
#X connect 18 4 21 1;
#X connect 18 4 43 1;
#X connect 19 0 7 0;
#X connect 19 1 18 0;
#X connect 20 0 33 2;
#X connect 21 0 22 0;
#X connect 22 0 29 0;
#X connect 23 0 24 0;
#X connect 25 0 26 0;
#X connect 26 0 23 0;
#X connect 26 0 27 0;
#X connect 26 0 36 0;
#X connect 27 0 34 0;
#X connect 28 0 25 0;
#X connect 29 0 28 0;
#X connect 29 1 30 0;
#X connect 30 0 25 1;
#X connect 31 0 21 0;
#X connect 31 1 30 2;
#X connect 32 0 33 0;
#X connect 32 1 20 0;
#X connect 33 0 39 0;
#X connect 35 0 0 0;
#X connect 35 1 37 0;
#X connect 35 2 1 0;
#X connect 35 3 49 0;
#X connect 36 0 8 0;
#X connect 37 0 8 0;
#X connect 37 0 41 0;
#X connect 38 0 8 0;
#X connect 40 1 41 1;
#X connect 41 0 43 0;
#X connect 42 0 44 0;
#X connect 43 0 42 0;
#X connect 46 0 6 0;
#X connect 46 1 15 0;
#X connect 46 1 33 1;
#X connect 46 2 50 1;
#X connect 47 0 8 0;
#X connect 48 0 47 0;
#X connect 49 0 50 0;
#X connect 50 0 38 0;
#X connect 50 1 48 0;
#X restore 20 -34 pd samplemap code;
#X obj 20 3 cnv 15 100 60 empty \$0.warn DO_NOT_CLOSE 2 27 0 14 -262144
-66577 0;
