#N canvas 822 315 474 356 10;
#X obj 103 127 spigot 1;
#X msg 183 97 0;
#X obj 79 65 s samplemap.loaded;
#X obj 190 41 r samplemap.loaded.resp;
#X obj 57 18 loadbang;
#X text 251 92 Singleton;
#X obj 115 175 getdir;
#X msg 124 209 \; pd open samplemap-int.pd \$1;
#X obj 17 301 outlet loaded;
#X obj 8 84 t b b b;
#X connect 0 0 6 0;
#X connect 1 0 0 1;
#X connect 3 0 1 0;
#X connect 4 0 9 0;
#X connect 6 0 7 0;
#X connect 9 0 8 0;
#X connect 9 1 0 0;
#X connect 9 2 2 0;
