#N struct 1021.g2 float x float y array 1021.tab 1021.g2b;
#N struct 1021.g2b float y;
#N canvas 82 -13 807 451 10;
#N canvas 0 22 450 300 plot 0;
#X obj 23 -50 struct \$0.g2 float x float y array \$0.tab \$0.g2b;
#X obj 23 -26 plot \$0.tab 27 2 2 40 3;
#X restore 51 -29 pd plot;
#N canvas 165 44 567 383 draw 0;
#X floatatom 265 240 5 0 0 0 - - -;
#X floatatom 223 277 5 0 0 0 - - -;
#X floatatom 180 296 5 0 0 0 - - -;
#X obj 180 109 until;
#X obj 180 133 counter;
#X obj 188 61 t b b;
#X floatatom 134 277 5 0 0 0 - - -;
#X floatatom 216 160 5 0 0 0 - - -;
#X floatatom 222 203 5 0 0 0 - - -;
#X obj 173 179 *;
#X obj 173 203 + 0.5;
#X obj 173 227 int;
#X obj 173 155 t f f;
#X floatatom 134 254 5 0 0 0 - - -;
#X msg 180 85 250;
#X msg 265 216 250;
#X obj 216 183 / 250;
#X obj 173 251 tabread \$0.mem;
#X obj 173 275 * -100;
#X obj 207 38 t b b b b f;
#X msg 464 137 \; \$1 clear;
#X obj 365 79 f \$0;
#X obj 365 103 makefilename pd-%d.graphic;
#X obj 379 133 t s s;
#X msg 372 183 traverse \$1 \, bang;
#X obj 287 65 t b b;
#X obj 235 3 inlet;
#X obj 416 59 bng 15 250 50 0 empty empty empty 17 7 0 10 -262144 -1
-1;
#X obj 372 207 pointer;
#X obj 304 232 append \$0.g2 x y;
#X obj 265 263 setsize \$0.g2 \$0.tab;
#X obj 223 297 element \$0.g2 \$0.tab;
#X obj 180 319 set \$0.g2b y;
#X obj 49 61 arraysize;
#X obj 52 29 t b s;
#X msg 65 100 set \$1;
#X msg 304 208 0 40;
#X connect 0 0 30 0;
#X connect 1 0 31 0;
#X connect 2 0 32 0;
#X connect 3 0 4 0;
#X connect 4 0 12 0;
#X connect 5 0 14 0;
#X connect 5 1 4 2;
#X connect 7 0 16 0;
#X connect 9 0 10 0;
#X connect 10 0 11 0;
#X connect 11 0 13 0;
#X connect 11 0 17 0;
#X connect 12 0 9 0;
#X connect 12 1 1 0;
#X connect 14 0 3 0;
#X connect 15 0 0 0;
#X connect 16 0 8 0;
#X connect 16 0 9 1;
#X connect 17 0 6 0;
#X connect 17 0 18 0;
#X connect 18 0 2 0;
#X connect 19 0 5 0;
#X connect 19 2 15 0;
#X connect 19 3 25 0;
#X connect 19 4 7 0;
#X connect 21 0 22 0;
#X connect 22 0 23 0;
#X connect 23 0 24 0;
#X connect 23 1 20 0;
#X connect 24 0 28 0;
#X connect 25 0 36 0;
#X connect 25 1 21 0;
#X connect 26 0 34 0;
#X connect 27 0 21 0;
#X connect 28 0 29 2;
#X connect 29 0 30 1;
#X connect 29 0 31 1;
#X connect 31 0 32 1;
#X connect 33 0 19 0;
#X connect 34 0 33 0;
#X connect 34 1 33 1;
#X connect 34 1 35 0;
#X connect 35 0 17 0;
#X connect 36 0 29 0;
#X restore 185 22 pd draw plot;
#N canvas 0 22 450 300 \$0.graphic 0;
#X scalar 1021.g2 0 40 \; -0.102139 \; 0.0828624 \; -21.1654 \; -15.9614
\; 5.68976 \; -19.0921 \; -10.0526 \; -13.1721 \; -1.88341 \; 8.20973
\; -0.773454 \; 1.22815 \; 19.9514 \; 8.81282 \; 4.32339 \; 28.2155
\; 11.6621 \; 7.08779 \; 0.847328 \; 2.41579 \; -10.408 \; -15.4661
\; -8.2297 \; 9.84094 \; -9.73141 \; -11.1098 \; -6.3632 \; -14.9157
\; -3.8422 \; 10.2523 \; -23.0129 \; -13.4148 \; -11.1735 \; 0.154293
\; 0.89345 \; -1.6434 \; -19.7016 \; -19.0757 \; -11.983 \; -10.751
\; 19.4368 \; 10.9024 \; -8.72266 \; -2.97159 \; 7.42868 \; -11.3847
\; 2.04546 \; -5.80016 \; -11.0051 \; -16.9499 \; 10.0316 \; 6.08809
\; -10.0979 \; -10.6714 \; -9.34468 \; -26.1477 \; -4.48855 \; -4.42888
\; 21.6404 \; -8.93465 \; -2.7756 \; -8.28975 \; 17.5408 \; 4.07763
\; -11.6825 \; 1.35002 \; 6.78067 \; -10.3242 \; 10.8336 \; -4.53926
\; -6.60033 \; 3.0237 \; 9.43294 \; -7.12868 \; 18.4431 \; 6.27192
\; -10.0328 \; -5.51413 \; 8.667 \; 15.0099 \; -5.51175 \; 7.05831
\; -10.5056 \; 0 \; 0 \; 6.9818 \; 6.51381 \; 7.43908 \; -3.70588 \;
-13.3047 \; 20.82 \; -6.84582 \; -1.01026 \; -0.955188 \; -13.7626
\; 8.85287 \; -20.906 \; 5.36754 \; -2.53689 \; 0.402153 \; 0 \; 0
\; 0 \; -4.88094 \; 0 \; 0 \; 0 \; 0 \; 0 \; 0 \; 0 \; 0 \; 0 \; 0
\; -5.71222 \; -2.65161 \; 0.591111 \; -8.64434 \; -26.969 \; 32.0488
\; -9.56987 \; -5.06371 \; 0 \; 0 \; -2.49395 \; -3.11499 \; 3.49993
\; 0.231445 \; 1.36645 \; -8.67727 \; 22.4241 \; 3.04807 \; 1.40131
\; 0 \; 0 \; 0 \; 2.42785 \; 0.640595 \; -2.98924 \; -0.699627 \; 3.32029
\; -0.88501 \; -3.01862 \; 25.5576 \; -15.3907 \; -5.1671 \; -11.2543
\; -4.19872 \; -2.39609 \; 3.31088 \; -0.38743 \; 0.0904679 \; 12.0937
\; 5.38181 \; 3.79769 \; 3.49426 \; -2.52603 \; 10.6055 \; -12.3364
\; 3.36908 \; -0.587296 \; 0.18487 \; 1.45766 \; -0.437474 \; 1.50979
\; -10.3685 \; 6.38604 \; 6.36139 \; -21.178 \; -4.83294 \; 6.34222
\; -8.5012 \; 3.08716 \; 1.69542 \; 3.87744 \; 0 \; 0 \; 0 \; 0 \;
0 \; 0 \; 0 \; 0 \; 0 \; 0 \; 0 \; 0.4017 \; 0.78423 \; 2.95204 \;
0 \; -1.06882 \; 0 \; 0 \; 2.3647 \; -0.736272 \; 13.1505 \; -4.40117
\; -6.06966 \; 7.13248 \; -3.35286 \; -2.24835 \; 5.17148 \; -0.975311
\; -2.95769 \; 2.00567 \; 1.65268 \; -4.19458 \; 0 \; 0 \; 0 \; 0 \;
0 \; 0 \; 0 \; 0 \; 0 \; 0 \; 0 \; 0 \; 0 \; 0 \; -0.0285149 \; 0 \;
0.0307322 \; 0 \; -0.0724077 \; 0 \; 0 \; 0.000596046 \; 0.000667572
\; 0 \; 0 \; 0 \; 0 \; 0 \; 0 \; 0 \; 0 \; 0 \; 0 \; 0 \; 0 \; 0 \;
0 \; 0 \; 0 \; 0 \; 0 \; 0 \; 0 \; \;;
#X coords 0 0 750 150 250 150 1;
#X restore 100 100 pd \$0.graphic;
#X obj 186 -9 inlet;
#N canvas 0 22 450 300 \$0.g2b 0;
#X obj 20 1 struct \$0.g2b float y;
#X restore 157 -33 pd \$0.g2b;
#X obj 433 155 f \$0;
#X obj 439 179 makefilename pd-%d;
#X msg 426 216 \; \$1.graphic coords 0 0 750 150 250 150 2 \;;
#X obj 395 83 loadbang;
#X obj 422 109 del 1;
#X connect 3 0 1 0;
#X connect 5 0 6 0;
#X connect 6 0 7 0;
#X connect 8 0 9 0;
#X connect 9 0 5 0;
#X coords 0 -1 1 1 250 150 2 100 100;
