#N canvas 283 47 892 664 10;
#X obj 134 35 inlet;
#X obj 134 160 expr~ $v1+$v2+$v3+$v4;
#X obj 195 208 expr~ $v1+$v2+$v3+$v4;
#X obj 134 139 as_synth_tone 1;
#X text 175 35 <-- MIDI Events;
#X obj 233 139 as_synth_tone 2;
#X obj 332 139 as_synth_tone 3;
#X obj 431 139 as_synth_tone 4;
#X obj 195 187 as_synth_tone 5;
#X obj 294 187 as_synth_tone 6;
#X obj 393 187 as_synth_tone 7;
#X obj 492 187 as_synth_tone 8;
#X obj 134 92 route 1 2 3 4 5 6 7 8;
#X obj 257 358 outlet;
#X text 308 358 <-- Resto de subcanales;
#X obj 134 358 outlet~;
#X obj 134 320 +~;
#X obj 257 260 unpack 0 0 0;
#X obj 257 320 pack 0 0 0;
#X obj 257 290 - 8;
#X connect 0 0 12 0;
#X connect 1 0 16 0;
#X connect 2 0 16 1;
#X connect 3 0 1 0;
#X connect 5 0 1 1;
#X connect 6 0 1 2;
#X connect 7 0 1 3;
#X connect 8 0 2 0;
#X connect 9 0 2 1;
#X connect 10 0 2 2;
#X connect 11 0 2 3;
#X connect 12 0 3 0;
#X connect 12 1 5 0;
#X connect 12 2 6 0;
#X connect 12 3 7 0;
#X connect 12 4 8 0;
#X connect 12 5 9 0;
#X connect 12 6 10 0;
#X connect 12 7 11 0;
#X connect 12 8 17 0;
#X connect 16 0 15 0;
#X connect 17 0 19 0;
#X connect 17 1 18 1;
#X connect 17 2 18 2;
#X connect 18 0 13 0;
#X connect 19 0 18 0;
