#N canvas 413 143 416 515 10;
#X obj 67 70 pack;
#X msg 67 97 \$2 \$1;
#X obj 67 123 route 0;
#X obj 226 192 list-extend;
#X obj 207 119 bng 15 250 50 0 empty empty empty 17 7 0 10 -262144
-1 -1;
#X obj 207 50 sel 0;
#X obj 157 220 list prepend;
#X obj 207 138 t b b b;
#X msg 157 300 \$1 0;
#X obj 157 246 list-drip;
#X obj 30 431 outlet;
#X obj 165 434 outlet;
#X obj 29 19 inlet;
#X obj 117 18 inlet;
#X obj 207 20 inlet;
#X obj 93 386 unpack;
#X msg 128 94 1;
#X msg 158 94 0;
#X obj 67 165 demux;
#X obj 143 123 tgl 15 0 empty empty empty 17 7 0 10 -262144 -1 -1 0
1;
#X obj 106 200 unpack;
#X obj 83 343 pack;
#X obj 249 310 list-find;
#X obj 321 278 t l l;
#X obj 249 364 l;
#X obj 249 336 t b f;
#X obj 249 390 list-delete;
#X obj 250 415 t b l;
#X obj 83 318 f;
#X obj 106 287 t b f;
#X obj 54 247 t f f f;
#X text 16 0 midi number;
#X text 111 -1 velocity;
#X text 189 0 pedal (0-127);
#X text 22 451 midi number;
#X text 159 452 velocity;
#X connect 0 0 1 0;
#X connect 1 0 2 0;
#X connect 2 0 18 0;
#X connect 2 1 20 0;
#X connect 3 0 6 1;
#X connect 3 0 23 0;
#X connect 4 0 7 0;
#X connect 5 0 4 0;
#X connect 5 0 17 0;
#X connect 5 1 16 0;
#X connect 6 0 9 0;
#X connect 7 0 3 1;
#X connect 7 1 6 1;
#X connect 7 2 6 0;
#X connect 8 0 15 0;
#X connect 9 0 8 0;
#X connect 12 0 0 0;
#X connect 13 0 0 1;
#X connect 14 0 5 0;
#X connect 15 0 10 0;
#X connect 15 1 11 0;
#X connect 16 0 19 0;
#X connect 17 0 19 0;
#X connect 18 0 8 0;
#X connect 18 1 3 0;
#X connect 19 0 18 1;
#X connect 20 0 29 0;
#X connect 20 1 30 0;
#X connect 21 0 15 0;
#X connect 22 0 25 0;
#X connect 23 0 24 1;
#X connect 23 1 22 1;
#X connect 24 0 26 0;
#X connect 25 0 24 0;
#X connect 25 1 26 1;
#X connect 26 0 27 0;
#X connect 27 0 3 0;
#X connect 27 1 3 1;
#X connect 28 0 21 0;
#X connect 29 0 28 0;
#X connect 29 1 21 1;
#X connect 30 0 28 1;
#X connect 30 1 22 0;
#X connect 30 2 8 0;
