#N canvas 629 45 472 559 10;
#X msg 14 108 open 32;
#X obj 14 155 send \$0-ardsynth;
#X obj 14 200 receive \$0-ardsynth;
#X obj 14 300 receive \$0-ardsynth-out;
#X obj 14 254 send \$0-ardsynth-out;
#X obj 14 228 ardsynth 1;
#X msg 14 87 open 2;
#X msg 79 128 close;
#X obj 14 347 list-moses 248 0;
#N canvas 143 185 585 418 active 0;
#X obj 99 78 select 254;
#X floatatom 202 235 5 0 0 0 - - -;
#X obj 321 231 bng 15 250 50 0 empty empty empty 17 7 0 10 -262144
-1 -1;
#X obj 202 214 moses 300;
#X obj 229 145 metro 300;
#X floatatom 202 187 5 0 0 0 - - -;
#X obj 202 166 timer;
#X obj 99 39 inlet;
#X obj 321 267 outlet;
#X msg 229 114 stop;
#X text 366 267 Emergency OFF;
#X text 18 165 El timer no se resetea ----->;
#X text 18 176 y provoca un Emergency;
#X text 18 187 OFF nada más conectar un;
#X text 18 198 dispositivo MIDI;
#X obj 142 258 - 300;
#X obj 142 279 min 0;
#X floatatom 157 322 5 0 0 0 - - -;
#X obj 157 345 outlet;
#X connect 0 0 4 0;
#X connect 0 0 6 0;
#X connect 2 0 8 0;
#X connect 2 0 9 0;
#X connect 3 0 1 0;
#X connect 3 1 2 0;
#X connect 4 0 6 1;
#X connect 5 0 3 0;
#X connect 5 0 15 0;
#X connect 6 0 5 0;
#X connect 7 0 0 0;
#X connect 9 0 4 0;
#X connect 15 0 16 0;
#X connect 16 0 17 0;
#X connect 17 0 18 0;
#X restore 60 390 pd active sensing;
#X text 122 347 Eventos < 248 -->;
#X text 69 373 Eventos = 254;
#X obj 91 5 cnv 15 350 50 empty empty As_arduinoReciever 20 30 1 16
-133940 -16662 0;
#X obj 91 50 cnv 1 350 1 empty empty empty 20 12 0 14 -228856 -66577
0;
#X msg 284 106 \; pd dsp \$1;
#X obj 284 87 tgl 15 0 empty empty empty 17 7 0 10 -262144 -1 -1 1
1;
#X text 304 85 <-- Toggle audio computing;
#X text 318 239 ENTRADAS DISPONIBLES:;
#X text 318 299 SALIDAS DISPONIBLES:;
#X text 328 309 midiStream;
#X text 328 319 activeSensing;
#X obj 302 450 send activeSensing;
#X text 12 183 --------------;
#X text 12 271 --------------;
#X obj 6 6 cnv 15 78 28 empty empty ArduinoBoard 2 20 1 10 -195832
-16662 0;
#X obj 284 66 r toggleAudioComputing;
#X text 328 249 openComPort;
#X text 328 259 toggleAudioComputing;
#X obj 159 433 spigot;
#X obj 192 414 tgl 15 1 empty empty empty 17 7 0 10 -262144 -1 -1 1
1;
#X text 328 269 toggleActiveSensing;
#X obj 192 393 r toggleActiveSensing;
#X obj 210 414 loadbang;
#X text 118 128 <-- Close COM port;
#X obj 14 503 spigot;
#X obj 47 484 tgl 15 1 empty empty empty 17 7 0 10 -262144 -1 -1 1
1;
#X obj 65 484 loadbang;
#X obj 47 463 r toggleMIDILog;
#X obj 79 108 r closeComPort;
#X obj 14 66 r openComPort;
#X text 328 279 toggleMIDILog;
#X obj 14 531 send printMidi;
#X obj 209 277 r ledOut;
#X text 60 87 <-- Open COM port;
#X floatatom 209 297 5 0 0 0 - - -;
#X obj 176 258 spigot;
#X obj 209 240 tgl 15 0 empty empty empty 17 7 0 10 -262144 -1 -1 1
1;
#X msg 194 212 0;
#X msg 239 200 1;
#X obj 239 223 pipe 3000;
#X obj 232 255 s waitPort;
#X obj 311 364 send ardMidiStream;
#X msg 119 155 devices;
#X text 275 209 Wait for Arduino setup;
#X obj 171 518 print;
#X obj 171 496 spigot;
#X obj 204 477 tgl 15 1 empty empty empty 17 7 0 10 -262144 -1 -1 0
1;
#X text 212 496 DEBUG;
#X obj 239 180 r \$0-openStream;
#X obj 107 66 s \$0-openStream;
#X obj 177 108 s \$0-closeStream;
#X obj 194 160 r \$0-closeStream;
#X text 328 329 waitPort;
#X connect 0 0 1 0;
#X connect 0 0 59 0;
#X connect 2 0 5 0;
#X connect 3 0 8 0;
#X connect 5 0 4 0;
#X connect 6 0 1 0;
#X connect 6 0 59 0;
#X connect 7 0 1 0;
#X connect 7 0 60 0;
#X connect 8 0 34 0;
#X connect 8 0 51 0;
#X connect 8 0 55 0;
#X connect 8 1 9 0;
#X connect 9 1 28 0;
#X connect 15 0 14 0;
#X connect 25 0 15 0;
#X connect 28 0 21 0;
#X connect 29 0 28 1;
#X connect 31 0 29 0;
#X connect 32 0 29 0;
#X connect 34 0 41 0;
#X connect 35 0 34 1;
#X connect 36 0 35 0;
#X connect 37 0 35 0;
#X connect 38 0 1 0;
#X connect 38 0 60 0;
#X connect 39 0 1 0;
#X connect 39 0 59 0;
#X connect 42 0 44 0;
#X connect 42 0 45 0;
#X connect 45 0 5 0;
#X connect 46 0 45 1;
#X connect 46 0 50 0;
#X connect 47 0 46 0;
#X connect 48 0 49 0;
#X connect 49 0 46 0;
#X connect 52 0 1 0;
#X connect 55 0 54 0;
#X connect 56 0 55 1;
#X connect 58 0 48 0;
#X connect 58 0 47 0;
#X connect 61 0 47 0;
#X coords 0 -1 1 1 80 30 2 5 5;
