#N canvas 366 236 914 368 10;
#X obj 1 161 cnv 15 893 154 empty empty empty 20 12 0 14 -158382 -66577
0;
#N canvas 23 225 1257 449 equalizer 0;
#N canvas 55 22 1101 521 equalizer 0;
#X obj 32 312 - 100;
#X obj 152 312 - 100;
#X obj 272 312 - 100;
#X obj 392 312 - 100;
#X obj 512 312 - 100;
#X obj 632 312 - 100;
#X obj 752 312 - 100;
#X obj 882 312 - 100;
#X obj 1024 199 inlet~;
#X obj 882 216 biquad~;
#X obj 752 216 biquad~;
#X obj 632 216 biquad~;
#X obj 512 216 biquad~;
#X obj 392 216 biquad~;
#X obj 272 216 biquad~;
#X obj 152 216 biquad~;
#X obj 32 216 biquad~;
#X obj 464 23 loadbang;
#X obj 574 80 t b f;
#X msg 574 40 20;
#X obj 282 240 *~ 0.1;
#X obj 402 240 *~ 0.1;
#X obj 522 240 *~ 0.1;
#X obj 642 240 *~ 0.1;
#X obj 762 240 *~ 0.1;
#X obj 892 240 *~ 0.1;
#X obj 44 374 outlet;
#X obj 162 240 *~ 0.1;
#X obj 42 240 *~ 0.1;
#X obj 164 374 outlet;
#X obj 284 374 outlet;
#X obj 404 374 outlet;
#X obj 404 354 expr ($f1+$f2)/2;
#X obj 284 354 expr ($f1+$f2)/2;
#X obj 164 354 expr ($f1+$f2)/2;
#X obj 44 354 expr ($f1+$f2)/2;
#X text 602 40 Bandwidth;
#X obj 32 264 env~ 512;
#X obj 152 264 env~ 512;
#X obj 272 264 env~ 512;
#X obj 392 264 env~ 512;
#X obj 512 264 env~ 512;
#X obj 632 264 env~ 512;
#X obj 752 264 env~ 512;
#X obj 882 264 env~ 512;
#X obj 464 80 t b f;
#X text 492 50 Gain;
#X obj 32 185 equalizer 25 70 8;
#X obj 152 185 equalizer 40 70 8;
#X obj 272 185 equalizer 63 70 8;
#X obj 392 185 equalizer 100 70 8;
#X obj 512 185 equalizer 160 70 8;
#X obj 632 185 equalizer 250 70 8;
#X obj 752 185 equalizer 380 70 8;
#X obj 882 185 equalizer 550 70 8;
#X msg 464 50 42;
#X obj 402 405 vu 15 80 empty empty -1 -8 0 8 -66577 -1 1 0;
#X obj 457 405 vu 15 80 empty empty -1 -8 0 8 -66577 -1 1 0;
#X obj 512 405 vu 15 80 empty empty -1 -8 0 8 -66577 -1 1 0;
#X obj 567 405 vu 15 80 empty empty -1 -8 0 8 -66577 -1 1 0;
#X obj 622 405 vu 15 80 empty empty -1 -8 0 8 -66577 -1 1 0;
#X obj 677 405 vu 15 80 empty empty -1 -8 0 8 -66577 -1 1 0;
#X obj 732 405 vu 15 80 empty empty -1 -8 0 8 -66577 -1 1 0;
#X obj 787 405 vu 15 80 empty empty -1 -8 0 8 -66577 -1 1 0;
#X connect 0 0 56 0;
#X connect 1 0 57 0;
#X connect 2 0 58 0;
#X connect 3 0 59 0;
#X connect 4 0 60 0;
#X connect 5 0 61 0;
#X connect 6 0 62 0;
#X connect 7 0 63 0;
#X connect 8 0 9 0;
#X connect 8 0 10 0;
#X connect 8 0 11 0;
#X connect 8 0 12 0;
#X connect 8 0 13 0;
#X connect 8 0 14 0;
#X connect 8 0 15 0;
#X connect 8 0 16 0;
#X connect 9 0 25 0;
#X connect 10 0 24 0;
#X connect 11 0 23 0;
#X connect 12 0 22 0;
#X connect 13 0 21 0;
#X connect 14 0 20 0;
#X connect 15 0 27 0;
#X connect 16 0 28 0;
#X connect 17 0 19 0;
#X connect 17 0 55 0;
#X connect 18 0 47 0;
#X connect 18 0 48 0;
#X connect 18 0 49 0;
#X connect 18 0 50 0;
#X connect 18 0 51 0;
#X connect 18 0 52 0;
#X connect 18 0 53 0;
#X connect 18 0 54 0;
#X connect 18 1 47 2;
#X connect 18 1 48 2;
#X connect 18 1 49 2;
#X connect 18 1 50 2;
#X connect 18 1 51 2;
#X connect 18 1 52 2;
#X connect 18 1 53 2;
#X connect 18 1 54 2;
#X connect 19 0 18 0;
#X connect 20 0 39 0;
#X connect 21 0 40 0;
#X connect 22 0 41 0;
#X connect 23 0 42 0;
#X connect 24 0 43 0;
#X connect 25 0 44 0;
#X connect 27 0 38 0;
#X connect 28 0 37 0;
#X connect 32 0 31 0;
#X connect 33 0 30 0;
#X connect 34 0 29 0;
#X connect 35 0 26 0;
#X connect 37 0 0 0;
#X connect 37 0 35 0;
#X connect 38 0 1 0;
#X connect 38 0 35 1;
#X connect 39 0 2 0;
#X connect 39 0 34 0;
#X connect 40 0 3 0;
#X connect 40 0 34 1;
#X connect 41 0 4 0;
#X connect 41 0 33 0;
#X connect 42 0 5 0;
#X connect 42 0 33 1;
#X connect 43 0 6 0;
#X connect 43 0 32 0;
#X connect 44 0 7 0;
#X connect 44 0 32 1;
#X connect 45 0 47 0;
#X connect 45 0 48 0;
#X connect 45 0 49 0;
#X connect 45 0 50 0;
#X connect 45 0 51 0;
#X connect 45 0 52 0;
#X connect 45 0 53 0;
#X connect 45 0 54 0;
#X connect 45 1 47 1;
#X connect 45 1 48 1;
#X connect 45 1 49 1;
#X connect 45 1 50 1;
#X connect 45 1 51 1;
#X connect 45 1 52 1;
#X connect 45 1 53 1;
#X connect 45 1 54 1;
#X connect 47 0 16 0;
#X connect 48 0 15 0;
#X connect 49 0 14 0;
#X connect 50 0 13 0;
#X connect 51 0 12 0;
#X connect 52 0 11 0;
#X connect 53 0 10 0;
#X connect 54 0 9 0;
#X connect 55 0 45 0;
#X coords 0 -1 1 1 440 90 2 400 400;
#X restore 0 0 pd equalizer;
#X obj 157 124 min 127;
#X obj 312 124 min 127;
#X obj 469 124 min 127;
#X obj 625 124 min 127;
#X obj 781 124 min 127;
#X obj 937 124 min 127;
#X obj 1093 124 min 127;
#X obj 656 308 tgl 15 0 empty empty empty 17 7 0 10 -262144 -1 -1 0
1;
#X obj 519 327 list;
#X obj 250 326 inlet~;
#X obj 300 326 inlet~;
#X obj 1 124 min 127;
#X obj 791 144 max 60;
#X obj 637 144 max 60;
#X obj 947 144 max 60;
#X obj 1103 144 max 60;
#X obj 479 144 max 60;
#X obj 322 144 max 60;
#X obj 167 144 max 60;
#X obj 10 144 max 60;
#X obj 637 205 loadbang;
#X obj 481 205 loadbang;
#N canvas 30 22 1148 521 equalizer 0;
#X obj 32 312 - 100;
#X obj 152 312 - 100;
#X obj 272 312 - 100;
#X obj 392 312 - 100;
#X obj 512 312 - 100;
#X obj 632 312 - 100;
#X obj 752 312 - 100;
#X obj 882 312 - 100;
#X obj 1024 199 inlet~;
#X obj 882 216 biquad~;
#X obj 752 216 biquad~;
#X obj 632 216 biquad~;
#X obj 512 216 biquad~;
#X obj 392 216 biquad~;
#X obj 272 216 biquad~;
#X obj 152 216 biquad~;
#X obj 32 216 biquad~;
#X obj 464 23 loadbang;
#X obj 574 80 t b f;
#X msg 574 40 20;
#X obj 282 240 *~ 0.1;
#X obj 402 240 *~ 0.1;
#X obj 522 240 *~ 0.1;
#X obj 642 240 *~ 0.1;
#X obj 762 240 *~ 0.1;
#X obj 892 240 *~ 0.1;
#X obj 44 374 outlet;
#X obj 162 240 *~ 0.1;
#X obj 42 240 *~ 0.1;
#X obj 164 374 outlet;
#X obj 284 374 outlet;
#X obj 404 374 outlet;
#X obj 404 354 expr ($f1+$f2)/2;
#X obj 284 354 expr ($f1+$f2)/2;
#X obj 164 354 expr ($f1+$f2)/2;
#X obj 44 354 expr ($f1+$f2)/2;
#X text 602 40 Bandwidth;
#X obj 402 405 vu 15 80 empty empty -1 -8 0 8 -66577 -1 1 0;
#X obj 457 405 vu 15 80 empty empty -1 -8 0 8 -66577 -1 1 0;
#X obj 512 405 vu 15 80 empty empty -1 -8 0 8 -66577 -1 1 0;
#X obj 567 405 vu 15 80 empty empty -1 -8 0 8 -66577 -1 1 0;
#X obj 622 405 vu 15 80 empty empty -1 -8 0 8 -66577 -1 1 0;
#X obj 677 405 vu 15 80 empty empty -1 -8 0 8 -66577 -1 1 0;
#X obj 732 405 vu 15 80 empty empty -1 -8 0 8 -66577 -1 1 0;
#X obj 787 405 vu 15 80 empty empty -1 -8 0 8 -66577 -1 1 0;
#X obj 32 185 equalizer 790 70 8;
#X obj 152 185 equalizer 1000 70 8;
#X obj 272 185 equalizer 1600 70 8;
#X obj 392 185 equalizer 2500 70 8;
#X obj 512 185 equalizer 4000 70 8;
#X obj 632 185 equalizer 6300 70 8;
#X obj 752 185 equalizer 10000 70 8;
#X obj 882 185 equalizer 16000 70 8;
#X obj 32 264 env~ 512;
#X obj 152 264 env~ 512;
#X obj 272 264 env~ 512;
#X obj 392 264 env~ 512;
#X obj 512 264 env~ 512;
#X obj 632 264 env~ 512;
#X obj 752 264 env~ 512;
#X obj 882 264 env~ 512;
#X obj 464 80 t b f;
#X text 492 50 Gain;
#X msg 464 50 42;
#X connect 0 0 37 0;
#X connect 1 0 38 0;
#X connect 2 0 39 0;
#X connect 3 0 40 0;
#X connect 4 0 41 0;
#X connect 5 0 42 0;
#X connect 6 0 43 0;
#X connect 7 0 44 0;
#X connect 8 0 9 0;
#X connect 8 0 10 0;
#X connect 8 0 11 0;
#X connect 8 0 12 0;
#X connect 8 0 13 0;
#X connect 8 0 14 0;
#X connect 8 0 15 0;
#X connect 8 0 16 0;
#X connect 9 0 25 0;
#X connect 10 0 24 0;
#X connect 11 0 23 0;
#X connect 12 0 22 0;
#X connect 13 0 21 0;
#X connect 14 0 20 0;
#X connect 15 0 27 0;
#X connect 16 0 28 0;
#X connect 17 0 19 0;
#X connect 17 0 63 0;
#X connect 18 0 45 0;
#X connect 18 0 46 0;
#X connect 18 0 47 0;
#X connect 18 0 48 0;
#X connect 18 0 49 0;
#X connect 18 0 50 0;
#X connect 18 0 51 0;
#X connect 18 0 52 0;
#X connect 18 1 45 2;
#X connect 18 1 46 2;
#X connect 18 1 47 2;
#X connect 18 1 48 2;
#X connect 18 1 49 2;
#X connect 18 1 50 2;
#X connect 18 1 51 2;
#X connect 18 1 52 2;
#X connect 19 0 18 0;
#X connect 20 0 55 0;
#X connect 21 0 56 0;
#X connect 22 0 57 0;
#X connect 23 0 58 0;
#X connect 24 0 59 0;
#X connect 25 0 60 0;
#X connect 27 0 54 0;
#X connect 28 0 53 0;
#X connect 32 0 31 0;
#X connect 33 0 30 0;
#X connect 34 0 29 0;
#X connect 35 0 26 0;
#X connect 45 0 16 0;
#X connect 46 0 15 0;
#X connect 47 0 14 0;
#X connect 48 0 13 0;
#X connect 49 0 12 0;
#X connect 50 0 11 0;
#X connect 51 0 10 0;
#X connect 52 0 9 0;
#X connect 53 0 0 0;
#X connect 53 0 35 0;
#X connect 54 0 1 0;
#X connect 54 0 35 1;
#X connect 55 0 2 0;
#X connect 55 0 34 0;
#X connect 56 0 3 0;
#X connect 56 0 34 1;
#X connect 57 0 4 0;
#X connect 57 0 33 0;
#X connect 58 0 5 0;
#X connect 58 0 33 1;
#X connect 59 0 6 0;
#X connect 59 0 32 0;
#X connect 60 0 7 0;
#X connect 60 0 32 1;
#X connect 61 0 45 0;
#X connect 61 0 46 0;
#X connect 61 0 47 0;
#X connect 61 0 48 0;
#X connect 61 0 49 0;
#X connect 61 0 50 0;
#X connect 61 0 51 0;
#X connect 61 0 52 0;
#X connect 61 1 45 1;
#X connect 61 1 46 1;
#X connect 61 1 47 1;
#X connect 61 1 48 1;
#X connect 61 1 49 1;
#X connect 61 1 50 1;
#X connect 61 1 51 1;
#X connect 61 1 52 1;
#X connect 63 0 61 0;
#X coords 0 -1 1 1 440 90 2 400 400;
#X restore 440 0 pd equalizer;
#X obj 726 291 r waitPort;
#X obj 711 342 &;
#X obj 745 355 r toggleAudioComputing;
#X obj 726 317 tgl 15 0 empty empty empty 17 7 0 10 -262144 -1 -1 0
1;
#X obj 520 306 pack 0 0 0 0 0 0 0 0;
#X obj 156 236 i 5;
#X obj 312 236 i 5;
#X obj 469 236 i 5;
#X obj 625 236 i 5;
#X obj 781 236 i 5;
#X obj 937 236 i 5;
#X obj 1093 236 i 5;
#X obj 519 383 outlet;
#X text 596 351 Envío cada 50 ms;
#X obj 592 336 metro 50;
#X obj 1 236 i 5;
#X obj 1 165 expr (($f1-60)*10+8)/5.5;
#X obj 157 165 expr (($f1-60)*10+8)/5.5;
#X obj 469 165 expr (($f1-60)*10+8)/5.5;
#X obj 315 165 expr (($f1-60)*10+8)/5.5;
#X obj 625 165 expr (($f1-60)*10+8)/5.5;
#X obj 781 165 expr (($f1-60)*10+8)/5.5;
#X obj 937 165 expr (($f1-60)*10+8)/5.5;
#X obj 1093 165 expr (($f1-60)*10+8)/5.5;
#X obj 1 185 clip 1 199;
#X obj 157 185 clip 1 199;
#X obj 312 185 clip 1 199;
#X obj 469 185 clip 1 199;
#X obj 625 185 clip 1 199;
#X obj 781 185 clip 1 199;
#X obj 937 185 clip 1 199;
#X obj 1093 185 clip 1 199;
#X connect 0 0 12 0;
#X connect 0 1 1 0;
#X connect 0 2 2 0;
#X connect 0 3 3 0;
#X connect 1 0 19 0;
#X connect 2 0 18 0;
#X connect 3 0 17 0;
#X connect 4 0 14 0;
#X connect 5 0 13 0;
#X connect 6 0 15 0;
#X connect 7 0 16 0;
#X connect 8 0 38 0;
#X connect 9 0 36 0;
#X connect 10 0 0 0;
#X connect 11 0 23 0;
#X connect 12 0 20 0;
#X connect 13 0 45 0;
#X connect 14 0 44 0;
#X connect 15 0 46 0;
#X connect 16 0 47 0;
#X connect 17 0 42 0;
#X connect 18 0 43 0;
#X connect 19 0 41 0;
#X connect 20 0 40 0;
#X connect 21 0 32 0;
#X connect 21 0 33 0;
#X connect 21 0 34 0;
#X connect 21 0 35 0;
#X connect 22 0 29 0;
#X connect 22 0 30 0;
#X connect 22 0 31 0;
#X connect 22 0 39 0;
#X connect 23 0 4 0;
#X connect 23 1 5 0;
#X connect 23 2 6 0;
#X connect 23 3 7 0;
#X connect 24 0 8 0;
#X connect 24 0 27 0;
#X connect 25 0 8 0;
#X connect 26 0 25 0;
#X connect 27 0 25 1;
#X connect 28 0 9 1;
#X connect 29 0 28 1;
#X connect 30 0 28 2;
#X connect 31 0 28 3;
#X connect 32 0 28 4;
#X connect 33 0 28 5;
#X connect 34 0 28 6;
#X connect 35 0 28 7;
#X connect 38 0 9 0;
#X connect 39 0 28 0;
#X connect 40 0 48 0;
#X connect 41 0 49 0;
#X connect 42 0 51 0;
#X connect 43 0 50 0;
#X connect 44 0 52 0;
#X connect 45 0 53 0;
#X connect 46 0 54 0;
#X connect 47 0 55 0;
#X connect 48 0 39 0;
#X connect 49 0 29 0;
#X connect 50 0 30 0;
#X connect 51 0 31 0;
#X connect 52 0 32 0;
#X connect 53 0 33 0;
#X connect 54 0 34 0;
#X connect 55 0 35 0;
#X coords 0 -1 1 1 880 90 2 0 0;
#X restore 8 163 pd equalizer;
#X obj 3 2 catch~ audiosignalL;
#X obj 133 2 catch~ audiosignalR;
#X obj 3 97 +~;
#X obj 102 76 dac~;
#X obj 3 334 s vumeterToMatrix;
#N canvas 0 22 450 300 (subpatch) 0;
#X array Audio 1024 float 0;
#X coords 0 1 1023 -1 880 43 1;
#X restore 8 270 graph;
#X obj 239 76 tgl 15 0 empty empty empty 17 7 0 10 -262144 -1 -1 1
1;
#X obj 100 131 tabwrite~ Audio;
#X obj 3 42 /~ 2;
#X obj 133 42 /~ 2;
#X obj 133 22 hip~ 1;
#X obj 3 22 hip~ 1;
#X obj 239 94 metro 150;
#X obj 240 56 r toggleAudioComputing;
#X connect 1 0 6 0;
#X connect 2 0 13 0;
#X connect 3 0 12 0;
#X connect 4 0 1 1;
#X connect 4 0 9 0;
#X connect 4 0 1 0;
#X connect 8 0 14 0;
#X connect 10 0 5 0;
#X connect 10 0 4 0;
#X connect 11 0 5 1;
#X connect 11 0 4 1;
#X connect 12 0 11 0;
#X connect 13 0 10 0;
#X connect 14 0 9 0;
#X connect 15 0 8 0;
#X coords 0 -1 1 1 895 156 2 0 160;
