#N canvas 161 36 1064 659 10;
#X obj 186 16 bng 15 250 50 0 empty \$0-bangOpenFile empty 17 7 0 10
-262144 -1 -1;
#X obj 186 41 openpanel;
#X obj 186 92 soundfiler;
#X floatatom 202 115 12 0 0 0 - - -;
#X obj 186 311 phasor~;
#X floatatom 208 197 12 0 0 0 - - -;
#X obj 186 406 *~;
#X obj 186 517 *~;
#X obj 226 517 *~;
#X obj 186 564 freeverb~;
#X msg 889 11 roomsize \$1;
#X msg 889 32 damping \$1;
#X msg 889 53 width \$1;
#X msg 889 74 wet \$1;
#X msg 889 95 dry \$1;
#X obj 186 175 expr 44100 / $f1;
#X obj 196 258 hsl 128 15 -0.01 0.02 0 0 empty empty empty -2 -8 0
10 -262144 -1 -1 0 1;
#X text 241 273 Playback Speed;
#X obj 470 152 snapshot~;
#X obj 470 105 tgl 15 0 empty empty empty 17 7 0 10 -262144 -1 -1 1
1;
#X floatatom 470 177 5 0 0 0 - - -;
#X obj 41 201 bng 15 250 50 0 empty \$0-bangResetSpeedFile empty 17
7 0 10 -262144 -1 -1;
#X text 58 200 Reset normal speed;
#X obj 193 216 f;
#X msg 101 336 0;
#X msg 41 326 0;
#X text 58 309 Pause;
#X msg 306 547 bypass \$1;
#X text 369 547 Bypass Reverb;
#X obj 306 528 tgl 15 0 empty \$0-bypassReverb empty 17 7 0 10 -262144
-1 -1 1 1;
#X obj 551 1 cnv 15 298 318 empty empty AudioPlayer 2 10 1 10 -195832
-16662 0;
#X obj 556 223 hsl 140 10 0 1 0 0 empty empty empty -2 -8 0 10 -261682
-1 -1 0 0;
#N canvas 0 22 450 300 (subpatch) 0;
#X array LeftChannel 10 float 0;
#X coords 0 1 9 -1 145 65 1;
#X restore 553 67 graph;
#N canvas 0 22 450 300 (subpatch) 0;
#X array RightChannel 10 float 0;
#X coords 0 1 9 -1 145 65 1;
#X restore 553 154 graph;
#X msg 186 67 read -resize \$1 LeftChannel RightChannel;
#X obj 553 27 bng 12 250 50 0 \$0-bangOpenFile empty OpenAudioFile(.wav)
17 7 0 9 -261234 -1 -1;
#X obj 835 233 bng 12 250 50 0 \$0-bangResetSpeedFile empty Reset_Normal_Speed
-93 8 0 8 -261234 -1 -1;
#X obj 186 434 tabread4~ LeftChannel;
#X obj 226 454 tabread4~ RightChannel;
#X obj 41 308 bng 15 250 50 0 empty \$0-bangPauseFile empty 17 7 0
10 -262144 -1 -1;
#X obj 681 274 bng 20 250 50 0 \$0-bangPauseFile empty Pause 24 11
0 8 -261234 -1 -1;
#X obj 91 275 bng 15 250 50 0 empty \$0-bangStopFile empty 17 7 0 10
-262144 -1 -1;
#X obj 101 298 t b b;
#X obj 741 274 bng 20 250 50 0 \$0-bangStopFile empty Stop 24 11 0
8 -261234 -1 -1;
#X text 108 275 Stop;
#X obj 140 243 bng 15 250 50 0 empty \$0-bangPlayFile empty 17 7 0
10 -262144 -1 -1;
#X text 111 242 Play;
#X obj 621 274 bng 20 250 50 0 \$0-bangPlayFile empty Play 24 11 0
8 -261234 -1 -1;
#X obj 705 223 hsl 140 10 -0.01 0.02 0 0 empty empty Playback_Speed
-2 -8 0 9 -261682 -1 -1 0 0;
#X obj 470 82 loadbang;
#X obj 759 88 hsl 86 12 0.11 1.1 0 1 empty empty Roomsize 2 6 0 9 -261689
-1 -1 5800 0;
#X obj 723 88 nbx 3 12 -1e+37 1e+37 0 0 empty empty empty 0 -7 0 9
-262144 -1 -1 0.785529 256;
#X obj 759 108 hsl 86 12 0 2 0 1 empty empty Damping 2 6 0 9 -261689
-1 -1 4600 0;
#X obj 723 108 nbx 3 12 -1e+37 1e+37 0 0 empty empty empty 0 -7 0 9
-262144 -1 -1 1.08235 256;
#X obj 759 128 hsl 86 12 0 1 0 1 empty empty Width 2 6 0 9 -262130
-1 -1 4400 0;
#X obj 723 128 nbx 3 12 -1e+37 1e+37 0 0 empty empty empty 0 -7 0 9
-262144 -1 -1 0.517647 256;
#X obj 759 148 hsl 86 12 0 1 0 1 empty empty Wet 2 6 0 9 -204786 -1
-1 2900 0;
#X obj 723 148 nbx 3 12 -1e+37 1e+37 0 0 empty empty empty 0 -7 0 9
-262144 -1 -1 0.341176 256;
#X obj 759 168 hsl 86 12 0 1 0 1 empty empty Dry 2 6 0 9 -204786 -1
-1 4200 0;
#X obj 723 168 nbx 3 12 -1e+37 1e+37 0 0 empty empty empty 0 -7 0 9
-262144 -1 -1 0.494118 256;
#X obj 703 69 vsl 15 126 0 1 0 0 \$0-volume empty Volume -9 -9 0 9
-262144 -1 -1 6250 1;
#X obj 723 186 tgl 12 0 \$0-bypassReverb empty Bypass_Reverb 17 7 0
9 -203904 -1 -1 1 1;
#X obj 556 233 hsl 140 10 0 1 0 0 \$0-cursor empty empty 104 17 0 9
-261682 -1 -1 0 0;
#X obj 225 290 r \$0-cursor;
#X msg 872 194 0.5;
#X obj 872 170 loadbang;
#X text 720 71 Reverb;
#X obj 186 607 throw~ audiosignalL;
#X obj 307 607 throw~ audiosignalR;
#X obj 872 233 s \$0-playbackSpeed;
#X obj 214 241 r \$0-playbackSpeed;
#X obj 913 147 s \$0-reverbParams;
#X obj 306 567 r \$0-reverbParams;
#X obj 201 380 r \$0-sampleNumber;
#X obj 202 135 s \$0-sampleNumber;
#X obj 371 129 r~ \$0-cursorPos;
#X obj 201 360 s~ \$0-cursorPos;
#X obj 550 325 loadbang;
#X obj 241 494 r \$0-volume;
#X msg 550 345 \; LeftChannel resize 10;
#X msg 550 377 \; RightChannel resize 10;
#X obj 470 129 metro 200;
#X connect 0 0 1 0;
#X connect 1 0 34 0;
#X connect 1 0 42 0;
#X connect 2 0 3 0;
#X connect 2 0 15 0;
#X connect 3 0 74 0;
#X connect 4 0 6 0;
#X connect 4 0 76 0;
#X connect 5 0 23 1;
#X connect 5 0 16 0;
#X connect 6 0 37 0;
#X connect 6 0 38 0;
#X connect 7 0 9 0;
#X connect 8 0 9 1;
#X connect 9 0 67 0;
#X connect 9 1 68 0;
#X connect 10 0 71 0;
#X connect 11 0 71 0;
#X connect 12 0 71 0;
#X connect 13 0 71 0;
#X connect 14 0 71 0;
#X connect 15 0 5 0;
#X connect 15 0 4 0;
#X connect 15 0 48 0;
#X connect 16 0 4 0;
#X connect 18 0 20 0;
#X connect 18 0 31 0;
#X connect 19 0 81 0;
#X connect 21 0 23 0;
#X connect 21 0 39 0;
#X connect 23 0 16 0;
#X connect 23 0 48 0;
#X connect 24 0 4 1;
#X connect 25 0 4 0;
#X connect 27 0 9 0;
#X connect 29 0 27 0;
#X connect 34 0 2 0;
#X connect 37 0 7 0;
#X connect 38 0 8 0;
#X connect 39 0 25 0;
#X connect 41 0 42 0;
#X connect 42 0 24 0;
#X connect 42 1 25 0;
#X connect 45 0 16 0;
#X connect 48 0 69 0;
#X connect 49 0 19 0;
#X connect 50 0 51 0;
#X connect 51 0 10 0;
#X connect 52 0 53 0;
#X connect 53 0 11 0;
#X connect 54 0 55 0;
#X connect 55 0 12 0;
#X connect 56 0 57 0;
#X connect 57 0 13 0;
#X connect 58 0 59 0;
#X connect 59 0 14 0;
#X connect 63 0 4 1;
#X connect 64 0 60 0;
#X connect 65 0 64 0;
#X connect 65 0 61 0;
#X connect 70 0 16 0;
#X connect 72 0 9 0;
#X connect 73 0 6 1;
#X connect 75 0 18 0;
#X connect 77 0 79 0;
#X connect 77 0 80 0;
#X connect 78 0 7 1;
#X connect 78 0 8 1;
#X connect 81 0 18 0;
#X coords 0 -1 1 1 300 320 2 550 0;
