#N canvas 304 22 873 591 10;
#X obj 436 100 cnv 15 350 50 empty empty As_ledMatrix 20 30 1 16 -133940
-16662 0;
#X obj 436 145 cnv 1 350 1 empty empty empty 20 12 0 14 -228856 -66577
0;
#X obj 351 101 cnv 15 78 28 empty empty LEDMatrix 2 20 1 10 -195832
-16662 0;
#X obj 11 372 r vumeterToMatrix;
#N canvas 597 187 554 318 equVumetro 0;
#X obj 71 -137 inlet;
#X obj 71 115 outlet;
#X obj 183 29 loadbang;
#X obj 183 70 i 200;
#X obj 92 29 clip 0 199;
#X obj 71 95 list prepend;
#X obj 71 56 list;
#X obj 71 -95 t l l;
#X obj 92 9 expr (($i1+$i2+$i3+$i4+$i5+$i6+$i7+$i8)-30)/4;
#X obj 92 -58 unpack 0 0 0 0 0 0 0 0;
#X connect 0 0 7 0;
#X connect 2 0 3 0;
#X connect 3 0 5 1;
#X connect 4 0 6 1;
#X connect 5 0 1 0;
#X connect 6 0 5 0;
#X connect 7 0 6 0;
#X connect 7 1 9 0;
#X connect 8 0 4 0;
#X connect 9 0 8 0;
#X connect 9 1 8 1;
#X connect 9 2 8 2;
#X connect 9 3 8 3;
#X connect 9 4 8 4;
#X connect 9 5 8 5;
#X connect 9 6 8 6;
#X connect 9 7 8 7;
#X restore 11 396 pd equVumetro;
#X obj 121 558 s ledOut;
#X text 186 495 <-- Vumeter ON/OFF;
#X obj 392 169 r midiStream;
#X floatatom 430 213 5 0 0 0 - - -;
#X obj 429 192 r \$0-drumsChan;
#X obj 467 212 r \$0-drumsSpigot;
#X obj 582 169 r midiStream;
#X floatatom 620 213 5 0 0 0 - - -;
#X obj 502 257 r midiStream;
#X floatatom 540 301 5 0 0 0 - - -;
#X obj 682 257 r midiStream;
#X floatatom 720 301 5 0 0 0 - - -;
#X obj 619 192 r \$0-bassChan;
#X obj 657 212 r \$0-bassSpigot;
#X obj 121 495 spigot 0;
#X obj 392 358 s \$0-audioRythm;
#X obj 136 396 r \$0-audioRythm;
#X obj 265 376 random 16;
#X obj 265 396 + 1;
#N canvas 0 104 450 300 noteStream 0;
#X obj 149 73 inlet;
#X obj 161 229 outlet;
#X obj 149 108 unpack 0 0 0;
#X obj 167 146 stripnote;
#X obj 55 130 list-moses 144 0;
#X obj 55 152 list-moses 160 0;
#X obj 161 197 pack 0 0 0;
#X obj 59 174 list split 1;
#X connect 0 0 2 0;
#X connect 2 0 4 0;
#X connect 2 1 3 0;
#X connect 2 2 3 1;
#X connect 3 0 6 1;
#X connect 3 1 6 2;
#X connect 4 1 5 0;
#X connect 5 0 7 0;
#X connect 6 0 1 0;
#X connect 7 0 6 0;
#X restore 265 333 pd noteStream;
#X obj 265 308 r midiStream;
#X obj 265 356 bang;
#X msg 366 495 205;
#X msg 356 475 206;
#X msg 393 475 207;
#X obj 356 531 s \$0-matrixControl;
#X obj 139 531 r \$0-matrixControl;
#X obj 121 450 mux 0 1 2 3;
#X obj 356 450 sel 0 1 2 3;
#X msg 403 495 208;
#X text 275 531 <--------;
#X obj 356 414 r \$0-muxValue;
#X obj 539 280 r \$0-lead1Chan;
#X obj 719 280 r \$0-lead2Chan;
#X obj 757 300 r \$0-lead2Spigot;
#X obj 577 300 r \$0-lead1Spigot;
#X obj 319 450 sel 1;
#X obj 392 233 as_vuUnit 201;
#X obj 502 321 as_vuUnit 203;
#X obj 582 233 as_vuUnit 202;
#X obj 682 321 as_vuUnit 203;
#X obj 1 101 cnv 15 334 73 empty empty empty 20 12 0 14 -158382 -66577
0;
#X obj 118 108 tgl 11 0 empty empty ON/OFF 15 7 0 9 -204786 -1 -1 1
1;
#X obj 61 105 nbx 5 14 1 16 0 0 empty empty empty 0 -8 0 10 -262144
-1 -1 1 256;
#X obj 118 125 tgl 11 0 empty empty ON/OFF 15 7 0 9 -204786 -1 -1 1
1;
#X obj 61 122 nbx 5 14 1 16 0 0 empty empty empty 0 -8 0 10 -262144
-1 -1 2 256;
#X obj 118 159 tgl 11 0 empty empty ON/OFF 15 7 0 9 -204786 -1 -1 1
1;
#X obj 61 156 nbx 5 14 1 16 0 0 empty empty empty 0 -8 0 10 -262144
-1 -1 10 256;
#X obj 118 142 tgl 11 0 empty empty ON/OFF 15 7 0 9 -204786 -1 -1 1
1;
#X obj 61 139 nbx 5 14 1 16 0 0 empty empty empty 0 -8 0 10 -262144
-1 -1 7 256;
#X text 13 155 Drums;
#X obj 16 12 loadbang;
#X obj 298 145 tgl 25 0 empty empty VUmeterON/OFF -97 14 0 11 -204786
-1 -1 0 1;
#X obj 91 281 s \$0-drumsChan;
#X obj 240 241 s \$0-drumsSpigot;
#X text 181 282 Drums 201;
#X text 146 262 Bass 202;
#X text 122 231 Lead 203;
#X obj 249 108 vradio 13 1 0 2 empty empty empty 0 -8 0 10 -262144
-1 -1 0;
#X text 230 106 EQ;
#X obj 270 17 r waitPort;
#X obj 270 39 sel 1;
#X obj 216 39 pipe 500;
#X msg 61 60 1;
#X msg 151 60 10;
#X obj 1 201 - 1;
#X obj 31 201 - 1;
#X obj 61 201 - 1;
#X obj 91 201 - 1;
#X obj 310 108 vradio 13 1 0 2 empty empty empty 0 -8 0 10 -262144
-1 -1 0;
#X text 267 106 Random;
#X text 279 119 Demo;
#X obj 376 39 + 2;
#X obj 376 67 s \$0-muxValue;
#X text 13 104 Lead1;
#X text 13 121 Lead2;
#X text 13 138 Bass;
#X msg 121 60 7;
#X msg 91 60 2;
#X obj 31 241 s \$0-lead2Chan;
#X obj 1 221 s \$0-lead1Chan;
#X obj 220 201 s \$0-lead2Spigot;
#X obj 210 181 s \$0-lead1Spigot;
#X obj 230 221 s \$0-bassSpigot;
#X obj 61 261 s \$0-bassChan;
#X text 176 119 AudioRhythm;
#X msg 216 60 1;
#X connect 3 0 4 0;
#X connect 4 0 32 0;
#X connect 7 0 42 0;
#X connect 8 0 42 1;
#X connect 9 0 8 0;
#X connect 10 0 42 2;
#X connect 11 0 44 0;
#X connect 12 0 44 1;
#X connect 13 0 43 0;
#X connect 14 0 43 1;
#X connect 15 0 45 0;
#X connect 16 0 45 1;
#X connect 17 0 12 0;
#X connect 18 0 44 2;
#X connect 19 0 5 0;
#X connect 21 0 32 1;
#X connect 22 0 23 0;
#X connect 23 0 32 2;
#X connect 24 0 26 0;
#X connect 25 0 24 0;
#X connect 26 0 22 0;
#X connect 27 0 30 0;
#X connect 28 0 30 0;
#X connect 29 0 30 0;
#X connect 31 0 19 0;
#X connect 32 0 19 0;
#X connect 33 0 28 0;
#X connect 33 1 27 0;
#X connect 33 2 29 0;
#X connect 33 3 34 0;
#X connect 34 0 30 0;
#X connect 36 0 33 0;
#X connect 36 0 32 4;
#X connect 37 0 14 0;
#X connect 38 0 16 0;
#X connect 39 0 45 2;
#X connect 40 0 43 2;
#X connect 41 0 27 0;
#X connect 42 0 20 0;
#X connect 43 0 20 0;
#X connect 44 0 20 0;
#X connect 45 0 20 0;
#X connect 47 0 87 0;
#X connect 48 0 70 0;
#X connect 49 0 86 0;
#X connect 50 0 71 0;
#X connect 51 0 59 0;
#X connect 52 0 73 0;
#X connect 53 0 88 0;
#X connect 54 0 72 0;
#X connect 56 0 68 0;
#X connect 56 0 83 0;
#X connect 56 0 82 0;
#X connect 56 0 69 0;
#X connect 57 0 19 1;
#X connect 57 0 41 0;
#X connect 63 0 78 0;
#X connect 65 0 66 0;
#X connect 66 0 67 0;
#X connect 67 0 91 0;
#X connect 68 0 48 0;
#X connect 68 0 47 0;
#X connect 68 0 49 0;
#X connect 68 0 53 0;
#X connect 68 0 51 0;
#X connect 69 0 52 0;
#X connect 70 0 85 0;
#X connect 71 0 84 0;
#X connect 72 0 89 0;
#X connect 73 0 58 0;
#X connect 74 0 77 0;
#X connect 77 0 78 0;
#X connect 82 0 54 0;
#X connect 83 0 50 0;
#X connect 91 0 63 0;
#X coords 0 -1 1 1 336 75 2 0 100;
