#N canvas 690 74 590 577 10;
#X obj 91 5 cnv 15 350 50 empty empty As_midiDisplay 20 30 1 16 -133940
-16662 0;
#X obj 91 50 cnv 1 350 1 empty empty empty 20 12 0 14 -228856 -66577
0;
#X obj 6 6 cnv 15 78 28 empty empty MIDIDisplay 2 20 1 10 -195832 -16662
0;
#X obj 15 73 r printMidi;
#X obj 136 163 r [MIDI Event];
#X obj 136 206 unpack s s s s s s s f s;
#X obj 136 227 pack s s s s s s s f s;
#X msg 296 244 \; midiDisplay0 label \$1\$2\$3\$4\$5\$6\$7\$8;
#X msg 296 302 \; midiDisplay1 label \$1\$2\$3\$4\$5\$6\$7\$8;
#X msg 296 362 \; midiDisplay2 label \$1\$2\$3\$4\$5\$6\$7\$8;
#X msg 296 422 \; midiDisplay3 label \$1\$2\$3\$4\$5\$6\$7\$8;
#X text 94 163 ----->;
#X obj 136 285 list;
#X obj 166 285 list;
#X obj 136 260 t b l;
#X obj 136 345 list;
#X obj 166 345 list;
#X obj 136 320 t b l;
#X obj 136 405 list;
#X obj 166 405 list;
#X obj 136 380 t b l;
#X obj 356 76 loadbang;
#X msg 356 108 list _ _ _ _ _ _ _ _ _;
#X obj 15 163 as_printMidi;
#X connect 3 0 23 0;
#X connect 4 0 5 0;
#X connect 5 0 6 0;
#X connect 5 1 6 1;
#X connect 5 2 6 2;
#X connect 5 3 6 3;
#X connect 5 4 6 4;
#X connect 5 5 6 5;
#X connect 5 6 6 6;
#X connect 5 7 6 7;
#X connect 5 8 6 8;
#X connect 6 0 7 0;
#X connect 6 0 14 0;
#X connect 12 0 13 1;
#X connect 13 0 8 0;
#X connect 13 0 17 0;
#X connect 14 0 13 0;
#X connect 14 0 12 0;
#X connect 14 1 12 1;
#X connect 15 0 16 1;
#X connect 16 0 9 0;
#X connect 16 0 20 0;
#X connect 17 0 16 0;
#X connect 17 0 15 0;
#X connect 17 1 15 1;
#X connect 18 0 19 1;
#X connect 19 0 10 0;
#X connect 20 0 19 0;
#X connect 20 0 18 0;
#X connect 20 1 18 1;
#X connect 21 0 22 0;
#X connect 22 0 7 0;
#X connect 22 0 13 1;
#X connect 22 0 16 1;
#X connect 22 0 19 1;
#X connect 22 0 8 0;
#X connect 22 0 9 0;
#X connect 22 0 10 0;
#X coords 0 -1 1 1 80 30 2 5 5;
