#N canvas 0 22 954 707 10;
#X obj 56 32 inlet;
#X obj 56 199 & 240;
#X text 92 199 strip channel info;
#X text 76 317 0x80 0x90 0xA0 0xB0 0xC0 0xD0 0xE0;
#X text 73 232 'CHANNEL VOICE MESSAGES';
#X text 83 242 0x80 NoteOFF;
#X text 93 252 0x90 NoteON;
#X text 103 262 0xA0 Polyphonic Aftertouch;
#X text 113 272 0xB0 Control Change;
#X text 123 282 0xC0 Program Change;
#X text 133 292 0xD0 Channel Pressure;
#X text 143 302 0xE0 Pitch Wheel Change;
#X text 459 221 'SYSTEM COMMON MESSAGES';
#X text 469 231 0xF0 System Exclusive;
#X text 479 241 0xF1 MIDI Time Code Quarter Frame;
#X text 489 251 0xF2 Song Position Pointer;
#X text 499 261 0xF3 Song Select;
#X text 509 271 0xF4 Undefined (Reserved);
#X text 519 281 0xF5 Undefined (Reserved);
#X text 529 291 0xF6 Tune Request;
#X text 539 301 0xF7 End of Exclusive;
#X text 272 199 strip command info;
#X msg 72 333 128 144 160 176 192 208 224;
#X obj 56 442 list-idx;
#X obj 56 364 list-find;
#X obj 56 400 t b f;
#X msg 56 421 NoteOFF NoteON PolyAfter CtrlChg PrgChg ChanPress PitchWheel
;
#X msg 56 464 \$1;
#X obj 56 165 moses 240;
#X obj 446 442 list-idx;
#X obj 446 364 list-find;
#X obj 462 301 loadbang;
#X obj 446 400 t b f;
#X msg 446 464 \$1;
#X msg 462 333 240 241 242 243 244 245 246;
#X text 466 317 0xF0 0xF1 0xF2 0xF3 0xF4 0xF5 0xF6;
#X msg 446 421 SysEx QuarterFr SongPos SongSel Undef Undef TuneReq
EndEx;
#X msg 291 245 [Channel \$1];
#X obj 237 200 & 15;
#X obj 72 301 loadbang;
#X obj 56 764 list-idx;
#X obj 56 722 t b f;
#X text 116 402 0 1 2 3 4 5 6;
#X text 518 402 0 1 2 3 4 5 6 7 + (7);
#X obj 56 698 mod 12;
#X msg 56 743 C C# D D# E F F# G G# A A# B;
#X obj 173 698 div 12;
#X text 99 698 <-- Note;
#X text 215 698 <-- Octave;
#X msg 56 785 \$1;
#X obj 56 817 pp;
#X obj 173 677 - 60;
#X obj 516 723 list append;
#X obj 516 749 list append;
#X obj 516 792 list append;
#X obj 579 690 list;
#X text 368 749 MIDI print;
#X obj 607 732 list;
#X obj 607 775 list;
#X obj 717 622 loadbang;
#X obj 516 659 list;
#X msg 717 642 |||;
#X text 514 616 Send2print -->;
#X obj 56 622 demultiplex 0 1 2 3 4 5 6 7 8 9 10 11 12 13 14;
#X obj 233 563 t b f;
#X obj 56 595 float;
#X obj 198 794 pitch;
#X obj 553 816 list trim;
#X msg 299 733 Sustain;
#X obj 299 712 select 64;
#X obj 56 103 send \$0-statusByte;
#X obj 173 103 send \$0-dataByte1;
#X obj 284 103 send \$0-dataByte2;
#X obj 56 141 r \$0-statusByte;
#X obj 291 266 send \$0-channelInfo;
#X obj 56 498 send \$0-commandInfo;
#X obj 446 498 send \$0-commandInfo;
#X obj 56 541 r \$0-dataByte1;
#X obj 233 541 r \$0-commandType;
#X obj 516 541 r \$0-dataByte2;
#X obj 115 442 send \$0-commandType;
#X obj 505 442 send \$0-commandType;
#X obj 516 571 send \$0-dataByte2Info;
#X obj 264 676 send \$0-dataByte1Info;
#X obj 299 763 send \$0-dataByte1Info;
#X obj 204 816 send \$0-dataByte1Info;
#X obj 516 638 r \$0-channelInfo;
#X obj 579 669 r \$0-commandInfo;
#X obj 607 711 r \$0-dataByte1Info;
#X obj 607 755 r \$0-dataByte2Info;
#X obj 495 846 print [MIDI Event];
#X obj 659 818 send [MIDI Event];
#X obj 56 64 unpack 0 0 0;
#X obj 291 224 + 1;
#X connect 0 0 92 0;
#X connect 1 0 24 0;
#X connect 22 0 24 1;
#X connect 23 0 27 0;
#X connect 24 0 25 0;
#X connect 25 0 26 0;
#X connect 25 1 23 1;
#X connect 25 1 80 0;
#X connect 26 0 23 0;
#X connect 27 0 75 0;
#X connect 28 0 1 0;
#X connect 28 0 38 0;
#X connect 28 1 30 0;
#X connect 29 0 33 0;
#X connect 30 0 32 0;
#X connect 31 0 34 0;
#X connect 32 0 36 0;
#X connect 32 1 29 1;
#X connect 32 1 81 0;
#X connect 33 0 76 0;
#X connect 34 0 30 1;
#X connect 36 0 29 0;
#X connect 37 0 74 0;
#X connect 38 0 93 0;
#X connect 39 0 22 0;
#X connect 40 0 49 0;
#X connect 41 0 45 0;
#X connect 41 1 40 1;
#X connect 44 0 41 0;
#X connect 45 0 40 0;
#X connect 46 0 50 0;
#X connect 49 0 50 1;
#X connect 51 0 46 0;
#X connect 52 0 53 0;
#X connect 53 0 54 0;
#X connect 54 0 67 0;
#X connect 55 0 52 1;
#X connect 57 0 53 1;
#X connect 58 0 54 1;
#X connect 59 0 61 0;
#X connect 60 0 52 0;
#X connect 61 0 60 1;
#X connect 61 0 55 1;
#X connect 61 0 57 1;
#X connect 61 0 58 1;
#X connect 63 0 44 0;
#X connect 63 0 51 0;
#X connect 63 0 66 0;
#X connect 63 1 44 0;
#X connect 63 1 51 0;
#X connect 63 1 66 0;
#X connect 63 2 83 0;
#X connect 63 3 69 0;
#X connect 63 4 83 0;
#X connect 63 5 83 0;
#X connect 63 6 83 0;
#X connect 63 7 83 0;
#X connect 63 8 83 0;
#X connect 63 9 83 0;
#X connect 63 10 83 0;
#X connect 63 11 83 0;
#X connect 63 12 83 0;
#X connect 63 13 83 0;
#X connect 63 14 83 0;
#X connect 64 0 65 0;
#X connect 64 1 63 1;
#X connect 65 0 63 0;
#X connect 66 1 85 0;
#X connect 67 0 91 0;
#X connect 68 0 84 0;
#X connect 69 0 68 0;
#X connect 69 1 84 0;
#X connect 73 0 28 0;
#X connect 77 0 65 1;
#X connect 78 0 64 0;
#X connect 79 0 82 0;
#X connect 86 0 60 0;
#X connect 87 0 55 0;
#X connect 88 0 57 0;
#X connect 89 0 58 0;
#X connect 92 0 70 0;
#X connect 92 1 71 0;
#X connect 92 2 72 0;
#X connect 93 0 37 0;
