#N canvas 363 127 716 606 10;
#N canvas 410 187 734 495 channelToMatrix 0;
#N canvas 0 22 450 300 channelSplitter 0;
#X obj 182 95 & 15;
#X obj 182 57 unpack 0 0 0;
#X obj 222 95 pack 0 0 0;
#X obj 222 165 spigot;
#X obj 182 133 ==;
#X obj 138 96 inlet;
#X obj 222 193 outlet;
#X text 278 193 <-- MIDI Channel Stream;
#X text 28 96 MIDI Channel -->;
#X obj 182 35 inlet;
#X text 78 35 MIDI Stream -->;
#X connect 0 0 4 0;
#X connect 1 0 0 0;
#X connect 1 0 2 0;
#X connect 1 1 2 1;
#X connect 1 2 2 2;
#X connect 2 0 3 0;
#X connect 3 0 6 0;
#X connect 4 0 3 1;
#X connect 5 0 4 1;
#X connect 9 0 1 0;
#X restore 256 196 pd channelSplitter;
#N canvas 0 22 450 300 noteOnSplitter 0;
#X obj 45 123 list-moses 144 0;
#X obj 45 155 list-moses 145 0;
#X obj 263 106 + 144;
#X msg 263 85 \$1;
#X msg 303 85 \$1;
#X obj 303 106 + 145;
#X text 305 64 <-- MIDI Channel used;
#X obj 45 79 inlet;
#X obj 263 57 inlet;
#X obj 150 208 outlet;
#X connect 0 1 1 0;
#X connect 1 0 9 0;
#X connect 2 0 0 1;
#X connect 3 0 2 0;
#X connect 4 0 5 0;
#X connect 5 0 1 1;
#X connect 7 0 0 0;
#X connect 8 0 3 0;
#X connect 8 0 4 0;
#X restore 256 262 pd noteOnSplitter;
#X obj 256 283 unpack 0 0 0;
#X text 262 219 <-- MIDI Channel Splitted Stream;
#X obj 389 113 stripnote;
#X obj 333 90 unpack 0 0 0;
#X obj 361 171 pack 0 0 0;
#X obj 333 51 inlet;
#X obj 481 119 inlet;
#X text 518 119 MIDIChannel;
#X text 375 55 MIDIStream;
#X obj 290 312 outlet;
#X obj 340 312 outlet;
#X obj 333 133 spigot;
#X connect 0 0 1 0;
#X connect 1 0 2 0;
#X connect 2 1 11 0;
#X connect 2 2 12 0;
#X connect 4 0 6 1;
#X connect 4 1 6 2;
#X connect 5 0 13 0;
#X connect 5 1 4 0;
#X connect 5 2 4 1;
#X connect 5 2 13 1;
#X connect 6 0 0 1;
#X connect 7 0 5 0;
#X connect 8 0 0 0;
#X connect 8 0 1 1;
#X connect 13 0 6 0;
#X restore 101 121 pd channelToMatrix;
#X obj 284 281 loadbang;
#X obj 101 319 list prepend;
#X obj 101 298 list;
#X obj 101 203 i;
#X obj 101 358 spigot 0;
#X obj 101 151 stripnote;
#X obj 101 59 inlet;
#X text 69 42 MIDI Stream;
#X obj 206 98 inlet;
#X text 204 81 MIDI Channel;
#X obj 284 302 f \$1;
#X text 315 302 Argument: 201 \, 202 \, 203 \, 204;
#X obj 320 124 inlet;
#X obj 95 383 outlet;
#X text 319 107 ON/OFF;
#N canvas 599 203 450 300 chooseExprColor 0;
#X obj 52 19 inlet;
#X obj 52 273 outlet;
#X obj 201 18 inlet;
#X obj 222 104 s \$0-demux;
#X obj 117 74 r \$0-demux;
#X msg 201 74 0;
#X msg 231 74 1;
#X msg 262 74 2;
#X obj 52 95 demux 0 1 2 3;
#X obj 201 52 route 201 202 203;
#X text 299 103 Drums 201;
#X text 299 89 Bass 202;
#X text 299 76 Lead 203;
#X text 216 156 Drums;
#X text 270 196 Bass;
#X text 334 236 Lead;
#X obj 172 236 expr ((($f1-48)/36)*15)+1;
#X obj 52 156 expr ((($f1-25)/25)*15)+1;
#X obj 52 176 clip 1 17;
#X obj 112 216 clip 1 17;
#X obj 172 256 clip 1 17;
#X obj 112 196 expr ((($f1-20)/20)*15)+1;
#X connect 0 0 8 0;
#X connect 2 0 9 0;
#X connect 4 0 8 1;
#X connect 5 0 3 0;
#X connect 6 0 3 0;
#X connect 7 0 3 0;
#X connect 8 0 17 0;
#X connect 8 1 21 0;
#X connect 8 2 16 0;
#X connect 9 0 5 0;
#X connect 9 1 6 0;
#X connect 9 2 7 0;
#X connect 16 0 20 0;
#X connect 17 0 18 0;
#X connect 18 0 1 0;
#X connect 19 0 1 0;
#X connect 20 0 1 0;
#X connect 21 0 19 0;
#X restore 101 183 pd chooseExprColor;
#N canvas 599 203 450 300 chooseExprVel 0;
#X obj 52 19 inlet;
#X obj 52 273 outlet;
#X obj 201 18 inlet;
#X obj 222 104 s \$0-demux;
#X obj 117 74 r \$0-demux;
#X msg 201 74 0;
#X msg 231 74 1;
#X msg 262 74 2;
#X obj 52 95 demux 0 1 2 3;
#X obj 201 52 route 201 202 203;
#X text 299 103 Drums 201;
#X text 299 89 Bass 202;
#X text 299 76 Lead 203;
#X text 216 156 Drums;
#X text 289 196 Bass;
#X text 354 236 Lead;
#X obj 112 216 clip 1 16;
#X obj 52 176 clip 1 16;
#X obj 172 256 clip 1 16;
#X obj 172 236 expr (($f1-40)/87)*15+1;
#X obj 112 196 expr (($f1-57)/70)*15+1;
#X obj 52 156 expr (($f1-20)/107)*15+1;
#X connect 0 0 8 0;
#X connect 2 0 9 0;
#X connect 4 0 8 1;
#X connect 5 0 3 0;
#X connect 6 0 3 0;
#X connect 7 0 3 0;
#X connect 8 0 21 0;
#X connect 8 1 20 0;
#X connect 8 2 19 0;
#X connect 9 0 5 0;
#X connect 9 1 6 0;
#X connect 9 2 7 0;
#X connect 16 0 1 0;
#X connect 17 0 1 0;
#X connect 18 0 1 0;
#X connect 19 0 18 0;
#X connect 20 0 16 0;
#X connect 21 0 17 0;
#X restore 122 246 pd chooseExprVel;
#X obj 122 266 i;
#X connect 0 0 6 0;
#X connect 0 1 6 1;
#X connect 1 0 11 0;
#X connect 2 0 5 0;
#X connect 3 0 2 0;
#X connect 4 0 3 0;
#X connect 5 0 14 0;
#X connect 6 0 16 0;
#X connect 6 1 17 0;
#X connect 7 0 0 0;
#X connect 9 0 0 1;
#X connect 11 0 2 1;
#X connect 11 0 16 1;
#X connect 11 0 17 1;
#X connect 13 0 5 1;
#X connect 16 0 4 0;
#X connect 17 0 18 0;
#X connect 18 0 3 1;
