#N canvas 0 22 1280 707 10;
#X obj 519 46 tgl 15 0 empty empty empty 17 7 0 10 -262144 -1 -1 0
1;
#X obj 519 65 metro 1000;
#X floatatom 587 65 5 0 0 0 - - -;
#X obj 693 19 r \$0-rate;
#X obj 576 19 r \$0-BPM;
#X obj 480 19 r \$0-playButton;
#X obj 170 417 s \$0-packedMIDI;
#X obj 606 582 r \$0-arpOut;
#X obj 693 582 r \$0-noteLength;
#X obj 606 602 makenote 60 100;
#X obj 801 670 s midiStream;
#X obj 801 643 list prepend;
#X obj 366 301 cnv 15 893 173 empty empty empty 20 12 0 14 -195832
-66577 0;
#X obj 455 336 hradio 18 1 0 32 empty empty empty 0 -8 0 10 -262144
-1 -1 0;
#X obj 455 310 nbx 5 14 -1e+37 1e+37 0 0 empty empty empty 0 -8 0 10
-262144 -1 -1 0 256;
#X obj 421 310 tgl 31 0 \$0-playButton empty Play 4 40 0 9 -203904
-13330 -13330 0 1;
#X obj 458 328 hsl 571 8 0 31 0 0 \$0-cycleEnd empty empty -2 -8 0
10 -228856 -1 -1 57000 1;
#X obj 511 310 nbx 5 14 -1e+37 1e+37 0 0 empty empty empty 0 -8 0 10
-262144 -1 -1 31 256;
#X obj 1176 368 knob 28 28 5 200 0 0 empty empty NoteLength 0 -8 0
9 -262144 -1 -1 1315 1;
#X obj 1176 400 nbx 5 14 -1e+37 1e+37 0 0 empty empty empty 0 -8 0
10 -262144 -1 -1 100 256;
#X obj 1135 276 i;
#X msg 1161 276 100;
#X obj 27 573 sel 0 1 2 3 4 5 6 7 8 9 10 11 12 13 14 15;
#X text 104 542 If NoteOFF --> Close gate;
#X obj 27 542 spigot 0;
#X obj 405 486 r \$0-packedMIDI;
#X obj 27 597 sel 16 17 18 19 20 21 22 23 24 25 26 27 28 29 30 31;
#X obj 429 506 s \$0-arpOut;
#X obj 1176 496 s \$0-noteLength;
#X obj 81 544 bng 15 50 10 0 empty empty empty 17 7 0 10 -262144 -1
-1;
#X obj 1067 324 vradio 15 1 0 6 empty empty BPM -2 -8 0 9 -262144 -1
-1 0;
#X obj 1090 324 vradio 15 1 0 6 empty empty Rate 0 -8 0 9 -262144 -1
-1 2;
#X obj 1099 516 s \$0-rate;
#X text 1040 324 100;
#X text 1040 339 120;
#X text 1040 354 150;
#X text 1040 369 180;
#X text 1040 384 220;
#N canvas 0 22 450 300 setRate 0;
#X obj 98 61 inlet;
#X obj 98 200 outlet;
#X text 115 174 Quarter;
#X msg 118 160 1;
#X msg 150 126 0.5;
#X msg 160 143 0.25;
#X msg 170 160 0.125;
#X msg 200 126 0.0625;
#X msg 210 143 0.01;
#X obj 98 86 sel 0 1 2 3 4 5;
#X connect 0 0 9 0;
#X connect 3 0 1 0;
#X connect 4 0 1 0;
#X connect 5 0 1 0;
#X connect 6 0 1 0;
#X connect 7 0 1 0;
#X connect 8 0 1 0;
#X connect 9 0 3 0;
#X connect 9 1 4 0;
#X connect 9 2 5 0;
#X connect 9 3 6 0;
#X connect 9 4 7 0;
#X connect 9 5 8 0;
#X restore 1099 496 pd setRate;
#N canvas 0 22 450 300 setBPM 0;
#X obj 98 61 inlet;
#X obj 98 200 outlet;
#X msg 118 152 100;
#X msg 128 169 120;
#X msg 162 118 150;
#X msg 172 135 180;
#X msg 182 152 220;
#X msg 192 169 250;
#X obj 98 88 sel 0 1 2 3 4 5;
#X connect 0 0 8 0;
#X connect 2 0 1 0;
#X connect 3 0 1 0;
#X connect 4 0 1 0;
#X connect 5 0 1 0;
#X connect 6 0 1 0;
#X connect 7 0 1 0;
#X connect 8 0 2 0;
#X connect 8 1 3 0;
#X connect 8 2 4 0;
#X connect 8 3 5 0;
#X connect 8 4 6 0;
#X connect 8 5 7 0;
#X restore 1031 496 pd setBPM;
#X obj 1037 516 s \$0-BPM;
#X text 1110 323 Quarter;
#X text 1110 338 8th;
#X text 1110 354 16th;
#X text 1110 369 32th;
#X obj 1029 236 loadbang;
#X msg 1029 276 0;
#X msg 1099 276 2;
#X obj 519 141 s \$0-cup;
#X obj 425 281 r \$0-cup;
#N canvas 0 22 450 300 BPMAndRateToMilis 0;
#X obj 64 81 nbx 5 14 -1e+37 1e+37 0 0 empty empty empty 0 -8 0 10
-262144 -1 -1 100 256;
#X obj 64 102 expr (60000/$f1)*$f2;
#X obj 154 78 t b f;
#X obj 154 60 nbx 5 14 -1e+37 1e+37 0 0 empty empty empty 0 -8 0 10
-262144 -1 -1 0.25 256;
#X text 198 102 BPM & Rate;
#X obj 64 34 inlet;
#X obj 154 34 inlet;
#X obj 64 134 outlet;
#X connect 0 0 1 0;
#X connect 1 0 7 0;
#X connect 2 0 1 0;
#X connect 2 1 1 1;
#X connect 3 0 2 0;
#X connect 5 0 0 0;
#X connect 6 0 3 0;
#X restore 576 39 pd BPMAndRateToMilis;
#N canvas 0 22 711 393 cyclicCounter 0;
#X obj 116 129 cup;
#X msg 147 129 0;
#X obj 116 200 delay 0;
#X obj 116 150 select 31;
#X obj 250 128 i;
#X floatatom 275 145 5 0 0 0 - - -;
#X obj 260 164 >;
#X obj 260 183 sel 1;
#X obj 191 62 loadbang;
#X msg 191 82 15;
#X obj 116 94 inlet;
#X text 114 78 CLK;
#X obj 250 94 inlet;
#X text 247 78 CycleEnd;
#X obj 56 156 outlet;
#X msg 160 106 setbang 0;
#X obj 362 89 inlet;
#X text 359 73 KeySync;
#X connect 0 0 3 0;
#X connect 0 0 6 0;
#X connect 0 0 14 0;
#X connect 1 0 0 0;
#X connect 2 0 1 0;
#X connect 3 0 2 0;
#X connect 4 0 5 0;
#X connect 4 0 3 1;
#X connect 5 0 6 1;
#X connect 6 0 7 0;
#X connect 7 0 2 0;
#X connect 8 0 9 0;
#X connect 8 0 15 0;
#X connect 9 0 4 0;
#X connect 10 0 0 0;
#X connect 12 0 4 0;
#X connect 15 0 0 0;
#X connect 16 0 15 0;
#X restore 519 121 pd cyclicCounter;
#X obj 565 91 r \$0-cycleEnd;
#X obj 481 261 r \$0-cycleEnd;
#X obj 481 281 i;
#X text 627 121 <--------------- TIK TOK \, I'M DA CLOCK;
#X obj 385 310 tgl 31 0 empty empty ON/OFF -1 40 0 9 -203904 -13330
-13330 0 1;
#X obj 50 19 r ardMidiStream;
#X obj 50 50 demux;
#X obj 50 119 s midiStream;
#X text 2 102 If Arp is OFF \, bypass;
#X obj 807 310 hradio 14 1 0 16 empty empty MIDIChannel -70 7 0 9 -203904
-1 -1 0;
#X obj 913 266 s \$0-midiChArp;
#N canvas 576 123 450 300 channelSplitter 0;
#X obj 182 95 & 15;
#X obj 182 57 unpack 0 0 0;
#X obj 222 95 pack 0 0 0;
#X obj 182 133 ==;
#X obj 138 96 inlet;
#X obj 249 193 outlet;
#X text 305 193 <-- MIDI Channel Stream;
#X text 28 96 MIDI Channel -->;
#X obj 182 35 inlet;
#X text 78 35 MIDI Stream -->;
#X obj 222 165 demux;
#X obj 222 223 outlet;
#X text 285 223 <-- Rest of MIDI;
#X connect 0 0 3 0;
#X connect 1 0 0 0;
#X connect 1 0 2 0;
#X connect 1 1 2 1;
#X connect 1 2 2 2;
#X connect 2 0 10 0;
#X connect 3 0 10 1;
#X connect 4 0 3 1;
#X connect 8 0 1 0;
#X connect 10 0 11 0;
#X connect 10 1 5 0;
#X restore 142 102 pd channelSplitter;
#X obj 142 50 r \$0-midiChArp;
#X text 210 79 If Arp is ON \, take one chan;
#X obj 565 261 loadbang;
#X msg 565 281 31;
#X text 102 138 Channel Arp is using -->;
#X obj 265 192 stripnote;
#X obj 606 626 pack 0 0;
#X obj 807 256 loadbang;
#X msg 807 276 0;
#X obj 364 281 sel 1;
#X text 152 20 <----- THIS PART TAKES ONE CHANNEL FROM HERE;
#X text 384 426 Transpose;
#X text 384 446 Note Order;
#X text 384 363 On;
#X text 384 385 Accent;
#X text 384 406 Octave;
#X obj 801 601 r \$0-midiChArp;
#X obj 801 621 + 144;
#X text 172 224 Only NoteONs -->;
#X obj 13 175 cnv 15 140 80 empty empty empty 20 12 0 14 -233017 -66577
0;
#X msg 19 178 144 60 88;
#X msg 28 197 144 60 0;
#X text 48 216 DEBUG;
#X obj 19 235 s ardMidiStream;
#X obj 1214 388 bng 12 250 50 0 empty empty empty 17 7 0 10 -262144
-1 -1;
#X msg 89 178 144 63 88;
#N canvas 0 22 450 300 noteOnSplitter 0;
#X obj 45 123 list-moses 144 0;
#X obj 45 155 list-moses 145 0;
#X obj 263 106 + 144;
#X msg 263 85 \$1;
#X msg 303 85 \$1;
#X obj 303 106 + 145;
#X text 305 64 <-- MIDI Channel used;
#X obj 45 79 inlet;
#X obj 263 57 inlet;
#X obj 150 208 outlet;
#X connect 0 1 1 0;
#X connect 1 0 9 0;
#X connect 2 0 0 1;
#X connect 3 0 2 0;
#X connect 4 0 5 0;
#X connect 5 0 1 1;
#X connect 7 0 0 0;
#X connect 8 0 3 0;
#X connect 8 0 4 0;
#X restore 247 151 pd noteOnSplitter;
#X msg 72 510 1;
#X msg 107 510 0;
#X msg 279 259 clear;
#X obj 107 489 r \$0-lastNoteOFF;
#X obj 342 188 sel 0;
#X obj 30 489 r \$0-noteON;
#X obj 369 208 s \$0-noteON;
#N canvas 449 153 711 393 cyclicCounter2 0;
#X obj 116 132 cup;
#X obj 250 132 i;
#X obj 173 93 loadbang;
#X obj 116 94 inlet;
#X obj 250 99 inlet;
#X text 114 78 NoteOFFs;
#X text 247 83 NoteONs;
#X obj 116 333 outlet;
#X obj 122 193 delay 0;
#X msg 173 115 0;
#X obj 116 173 select;
#X obj 116 153 + 1;
#X obj 264 323 outlet;
#X floatatom 258 157 5 0 0 0 - - -;
#X obj 327 169 inlet;
#X text 327 153 HoldKey;
#X obj 116 229 demux;
#X obj 327 193 sel 0;
#X obj 151 288 f;
#X obj 151 307 bang;
#X msg 150 260 0;
#X connect 0 0 11 0;
#X connect 1 0 10 1;
#X connect 1 0 13 0;
#X connect 2 0 9 0;
#X connect 3 0 0 0;
#X connect 4 0 1 0;
#X connect 8 0 9 0;
#X connect 9 0 1 0;
#X connect 9 0 0 0;
#X connect 10 0 8 0;
#X connect 10 0 16 0;
#X connect 11 0 10 0;
#X connect 11 0 12 0;
#X connect 14 0 16 1;
#X connect 14 0 17 0;
#X connect 16 0 7 0;
#X connect 16 1 20 0;
#X connect 17 0 18 0;
#X connect 18 0 19 0;
#X connect 19 0 7 0;
#X connect 19 0 8 0;
#X connect 20 0 18 1;
#X restore 342 228 pd cyclicCounter2;
#X obj 342 248 s \$0-lastNoteOFF;
#X text 381 190 Counts NoteOFFs and resets buffers when all of them
arrive;
#X obj 146 301 r \$0-lastNoteOFF;
#X msg 146 321 resetBuffers;
#X text 28 458 Abre y cierra la puerta del Arp (deprecated);
#X obj 886 670 print ArpDebug;
#X floatatom 313 301 5 0 0 0 - - -;
#X floatatom 281 301 5 0 0 0 - - -;
#X floatatom 249 301 5 0 0 0 - - -;
#X obj 247 171 unpack 0 0 0;
#X obj 271 213 pack 0 0;
#X obj 256 321 pack 0 0 0;
#X floatatom 451 224 5 0 0 0 - - -;
#X text 28 471 NoteON incoming:1/Last NoteOFF in:0;
#X text 484 209 NOTA: Lo ideal es crear un array de NotesON para;
#X text 484 219 compararlos con los NoteOFFs que vienen después;
#X text 484 229 y hacer una comparación exacta entre notas;
#X obj 271 281 poly 128 0;
#X text 788 209 --> Lo arreglamos creando un [poly] más grande (128
teclas);
#X obj 455 362 as_timeModule;
#X obj 477 526 r \$0-packedMIDI;
#X obj 501 546 s \$0-arpOut;
#X obj 549 486 r \$0-packedMIDI;
#X obj 573 506 s \$0-arpOut;
#X obj 621 526 r \$0-packedMIDI;
#X obj 645 546 s \$0-arpOut;
#X obj 693 486 r \$0-packedMIDI;
#X obj 717 506 s \$0-arpOut;
#X obj 765 526 r \$0-packedMIDI;
#X obj 789 546 s \$0-arpOut;
#X obj 837 486 r \$0-packedMIDI;
#X obj 861 506 s \$0-arpOut;
#X obj 909 526 r \$0-packedMIDI;
#X obj 933 546 s \$0-arpOut;
#X obj 1043 448 tgl 15 0 empty empty KeySyncON/OFF 19 8 0 9 -262144
-1 -1 1 1;
#X obj 30 298 == 1;
#X obj 30 318 sel 1;
#X obj 1067 566 s \$0-keySyncSpigot;
#X obj 30 346 s \$0-keySync;
#X obj 655 68 r \$0-keySync;
#X obj 655 91 spigot;
#X obj 734 74 r \$0-keySyncSpigot;
#X obj 697 93 bng 15 250 50 0 empty empty empty 17 7 0 10 -262144 -1
-1;
#X text 715 93 Key Syncronization;
#X text 1040 399 250;
#X text 1110 384 64th;
#X text 1110 399 FUA;
#X obj 509 362 as_timeModule;
#X obj 473 362 as_timeModule;
#X obj 491 362 as_timeModule;
#X obj 581 362 as_timeModule;
#X obj 527 362 as_timeModule;
#X obj 545 362 as_timeModule;
#X obj 563 362 as_timeModule;
#X obj 653 362 as_timeModule;
#X obj 599 362 as_timeModule;
#X obj 617 362 as_timeModule;
#X obj 635 362 as_timeModule;
#X obj 725 362 as_timeModule;
#X obj 671 362 as_timeModule;
#X obj 689 362 as_timeModule;
#X obj 707 362 as_timeModule;
#X obj 797 362 as_timeModule;
#X obj 743 362 as_timeModule;
#X obj 761 362 as_timeModule;
#X obj 779 362 as_timeModule;
#X obj 869 362 as_timeModule;
#X obj 815 362 as_timeModule;
#X obj 833 362 as_timeModule;
#X obj 851 362 as_timeModule;
#X obj 941 362 as_timeModule;
#X obj 887 362 as_timeModule;
#X obj 905 362 as_timeModule;
#X obj 923 362 as_timeModule;
#X obj 1013 362 as_timeModule;
#X obj 959 362 as_timeModule;
#X obj 977 362 as_timeModule;
#X obj 995 362 as_timeModule;
#X obj 1043 428 tgl 15 0 empty empty HoldKeyON/OFF 19 8 0 9 -262144
-1 -1 0 1;
#X obj 1047 546 s \$0-holdKeySpigot;
#X obj 441 173 r \$0-holdKeySpigot;
#N canvas 353 97 450 300 holdDemux 0;
#X obj 132 45 inlet;
#X obj 172 151 unpack 0 0 0;
#X obj 184 202 pack 1 0 0;
#X obj 229 50 inlet;
#X text 227 32 Hold Key;
#X obj 132 239 outlet;
#X obj 132 127 demux;
#X obj 184 181 t b f;
#X obj 289 50 inlet;
#X text 287 32 NoteOrder Key;
#X obj 229 80 |;
#X obj 289 71 - 1;
#X obj 289 92 t b f;
#X obj 218 100 sel 0;
#X msg 203 122 0;
#X msg 240 122 1;
#X obj 289 133 loadbang;
#X connect 0 0 6 0;
#X connect 1 1 7 0;
#X connect 1 2 2 2;
#X connect 2 0 5 0;
#X connect 3 0 10 0;
#X connect 6 0 5 0;
#X connect 6 1 1 0;
#X connect 7 0 2 0;
#X connect 7 1 2 1;
#X connect 8 0 11 0;
#X connect 10 0 13 0;
#X connect 11 0 12 0;
#X connect 12 0 10 0;
#X connect 12 1 10 1;
#X connect 13 0 14 0;
#X connect 13 1 15 0;
#X connect 14 0 6 1;
#X connect 15 0 6 1;
#X connect 16 0 15 0;
#X restore 170 397 pd holdDemux;
#X obj 239 350 r \$0-holdKeySpigot;
#X obj 1145 448 tgl 15 0 empty empty NoteOrderON/OFF 19 8 0 9 -262144
-1 -1 0 1;
#X obj 1145 596 s \$0-noteOrderSpigot;
#X msg 1059 276 1;
#X obj 239 370 r \$0-noteOrderSpigot;
#X text 809 308 1;
#X text 865 308 5;
#X text 921 308 9;
#X text 974 308 13;
#X text 837 308 3;
#X text 893 308 7;
#X text 946 308 11;
#X text 1002 308 15;
#X text 823 308 2;
#X text 851 308 4;
#X text 879 308 6;
#X text 907 308 8;
#X text 932 308 10;
#X text 960 308 12;
#X text 988 308 14;
#X text 1016 308 16;
#X connect 0 0 1 0;
#X connect 1 0 51 0;
#X connect 3 0 50 1;
#X connect 4 0 50 0;
#X connect 5 0 0 0;
#X connect 7 0 9 0;
#X connect 8 0 9 2;
#X connect 9 0 70 0;
#X connect 9 1 70 1;
#X connect 11 0 10 0;
#X connect 13 0 24 0;
#X connect 14 0 13 0;
#X connect 18 0 20 0;
#X connect 19 0 28 0;
#X connect 20 0 19 0;
#X connect 21 0 18 0;
#X connect 21 0 20 0;
#X connect 22 0 118 0;
#X connect 22 1 147 0;
#X connect 22 2 148 0;
#X connect 22 3 146 0;
#X connect 22 4 150 0;
#X connect 22 5 151 0;
#X connect 22 6 152 0;
#X connect 22 7 149 0;
#X connect 22 8 154 0;
#X connect 22 9 155 0;
#X connect 22 10 156 0;
#X connect 22 11 153 0;
#X connect 22 12 158 0;
#X connect 22 13 159 0;
#X connect 22 14 160 0;
#X connect 22 15 157 0;
#X connect 22 16 26 0;
#X connect 24 0 22 0;
#X connect 24 0 29 0;
#X connect 25 0 118 1;
#X connect 25 0 146 1;
#X connect 25 0 147 1;
#X connect 25 0 148 1;
#X connect 26 0 162 0;
#X connect 26 1 163 0;
#X connect 26 2 164 0;
#X connect 26 3 161 0;
#X connect 26 4 166 0;
#X connect 26 5 167 0;
#X connect 26 6 168 0;
#X connect 26 7 165 0;
#X connect 26 8 170 0;
#X connect 26 9 171 0;
#X connect 26 10 172 0;
#X connect 26 11 169 0;
#X connect 26 12 174 0;
#X connect 26 13 175 0;
#X connect 26 14 176 0;
#X connect 26 15 173 0;
#X connect 30 0 39 0;
#X connect 31 0 38 0;
#X connect 38 0 32 0;
#X connect 39 0 40 0;
#X connect 45 0 46 0;
#X connect 45 0 47 0;
#X connect 45 0 21 0;
#X connect 45 0 184 0;
#X connect 46 0 30 0;
#X connect 47 0 31 0;
#X connect 49 0 14 0;
#X connect 50 0 1 1;
#X connect 50 0 2 0;
#X connect 51 0 48 0;
#X connect 52 0 51 1;
#X connect 53 0 54 0;
#X connect 54 0 17 0;
#X connect 56 0 58 1;
#X connect 56 0 73 0;
#X connect 57 0 58 0;
#X connect 58 0 59 0;
#X connect 58 1 63 1;
#X connect 61 0 62 0;
#X connect 63 0 59 0;
#X connect 63 1 90 0;
#X connect 64 0 63 0;
#X connect 64 0 90 1;
#X connect 66 0 67 0;
#X connect 67 0 16 0;
#X connect 69 0 109 0;
#X connect 69 1 109 1;
#X connect 70 0 11 0;
#X connect 71 0 72 0;
#X connect 72 0 61 0;
#X connect 73 1 15 0;
#X connect 80 0 81 0;
#X connect 81 0 11 1;
#X connect 84 0 87 0;
#X connect 85 0 87 0;
#X connect 88 0 21 0;
#X connect 89 0 87 0;
#X connect 90 0 108 0;
#X connect 91 0 24 1;
#X connect 92 0 24 1;
#X connect 93 0 116 0;
#X connect 94 0 92 0;
#X connect 95 0 98 0;
#X connect 95 1 97 0;
#X connect 96 0 91 0;
#X connect 98 0 99 0;
#X connect 98 0 93 0;
#X connect 98 1 111 0;
#X connect 101 0 102 0;
#X connect 102 0 6 0;
#X connect 105 0 110 2;
#X connect 106 0 110 1;
#X connect 107 0 110 0;
#X connect 108 1 69 0;
#X connect 108 2 69 1;
#X connect 108 2 95 0;
#X connect 109 0 116 0;
#X connect 110 0 180 0;
#X connect 116 0 98 1;
#X connect 116 0 107 0;
#X connect 116 0 134 0;
#X connect 116 1 106 0;
#X connect 116 2 105 0;
#X connect 118 0 27 0;
#X connect 119 0 149 1;
#X connect 119 0 150 1;
#X connect 119 0 151 1;
#X connect 119 0 152 1;
#X connect 121 0 153 1;
#X connect 121 0 154 1;
#X connect 121 0 155 1;
#X connect 121 0 156 1;
#X connect 123 0 157 1;
#X connect 123 0 158 1;
#X connect 123 0 159 1;
#X connect 123 0 160 1;
#X connect 125 0 161 1;
#X connect 125 0 162 1;
#X connect 125 0 163 1;
#X connect 125 0 164 1;
#X connect 127 0 165 1;
#X connect 127 0 166 1;
#X connect 127 0 167 1;
#X connect 127 0 168 1;
#X connect 129 0 169 1;
#X connect 129 0 170 1;
#X connect 129 0 171 1;
#X connect 129 0 172 1;
#X connect 131 0 173 1;
#X connect 131 0 174 1;
#X connect 131 0 175 1;
#X connect 131 0 176 1;
#X connect 133 0 136 0;
#X connect 134 0 135 0;
#X connect 135 0 137 0;
#X connect 138 0 139 0;
#X connect 139 0 51 2;
#X connect 139 0 141 0;
#X connect 140 0 139 1;
#X connect 146 0 27 0;
#X connect 147 0 27 0;
#X connect 148 0 27 0;
#X connect 149 0 120 0;
#X connect 150 0 120 0;
#X connect 151 0 120 0;
#X connect 152 0 120 0;
#X connect 153 0 122 0;
#X connect 154 0 122 0;
#X connect 155 0 122 0;
#X connect 156 0 122 0;
#X connect 157 0 124 0;
#X connect 158 0 124 0;
#X connect 159 0 124 0;
#X connect 160 0 124 0;
#X connect 161 0 126 0;
#X connect 162 0 126 0;
#X connect 163 0 126 0;
#X connect 164 0 126 0;
#X connect 165 0 128 0;
#X connect 166 0 128 0;
#X connect 167 0 128 0;
#X connect 168 0 128 0;
#X connect 169 0 130 0;
#X connect 170 0 130 0;
#X connect 171 0 130 0;
#X connect 172 0 130 0;
#X connect 173 0 132 0;
#X connect 174 0 132 0;
#X connect 175 0 132 0;
#X connect 176 0 132 0;
#X connect 177 0 178 0;
#X connect 179 0 98 2;
#X connect 180 0 6 0;
#X connect 181 0 180 1;
#X connect 182 0 183 0;
#X connect 184 0 133 0;
#X connect 185 0 180 2;
#X coords 0 -1 1 1 895 175 2 365 300;
