#N canvas 197 101 474 491 10;
#X obj 1 31 cnv 15 204 318 empty empty ExternalSynth 2 10 1 10 -195832
-16662 0;
#X obj 1 439 throw~ audiosignalL;
#X obj 138 439 throw~ audiosignalR;
#X obj 1 357 adc~;
#X obj 253 1 loadbang;
#X obj 221 168 r midiStream;
#X text 33 358 <-- Get signal back from external source;
#X text 7 79 To set up your external:;
#X obj 180 67 vsl 20 262 0 50 0 0 empty empty Volume -39 4 0 9 -113262
-1 -1 7830 1;
#X text 9 95 - Make sure that your MIDI;
#X text 21 108 bus (IAC) is connected;
#X text 9 176 - Go to Preferences/MIDI;
#X text 21 189 settings.. and choose it;
#X text 21 202 as your output device;
#X text 9 122 - Open your external and;
#X text 20 135 choose your MIDI bus as;
#X text 7 223 To get audio back to PD:;
#X text 9 239 - Set up an audio bus in;
#X text 21 252 your system;
#X text 21 148 the MIDI input (before;
#X text 21 161 opening PD);
#X text 9 267 - Choose it as your output;
#X text 21 280 device in your external;
#X text 21 293 (before opening PD) \, and;
#X text 21 306 as your output device;
#X text 21 319 in PureData;
#X obj 181 35 tgl 18 0 empty empty ON/OFF -39 10 0 9 -175988 -1 -1
0 1;
#X obj 138 397 *~ 0;
#X obj 1 397 *~ 0;
#X obj 221 204 spigot 0;
#X obj 138 419 *~ 1;
#X obj 1 419 *~ 1;
#X obj 219 57 s \$0-onOffTgl;
#X obj 317 187 r \$0-onOffTgl;
#X msg 317 241 allNotesOff;
#N canvas 497 159 781 537 sendToExt 0;
#X text 229 52 <-- Incoming MIDI data from Arduino;
#X text 486 107 <----- Send to external synthesizer;
#X obj 195 11 inlet;
#X obj 123 37 route allNotesOff;
#N canvas 620 270 450 300 allNotesOff 0;
#X obj 61 81 until;
#X obj 61 103 f;
#X obj 90 103 + 1;
#X obj 136 105 sel 0;
#X obj 61 184 outlet;
#X obj 106 184 outlet;
#X msg 106 163 0;
#X obj 61 14 inlet;
#X obj 61 56 bang;
#X obj 90 125 mod 128;
#X connect 0 0 1 0;
#X connect 1 0 2 0;
#X connect 1 0 4 0;
#X connect 1 0 6 0;
#X connect 2 0 9 0;
#X connect 3 0 0 1;
#X connect 6 0 5 0;
#X connect 7 0 8 0;
#X connect 8 0 0 0;
#X connect 9 0 1 1;
#X connect 9 0 3 0;
#X restore 73 238 pd allNotesOff;
#N canvas 232 31 850 345 ------------Channel 0;
#X obj -8 223 outlet;
#X obj 182 35 inlet;
#X text 78 35 MIDI Stream -->;
#X obj 42 223 outlet;
#X obj 92 223 outlet;
#X obj 142 223 outlet;
#X obj 192 223 outlet;
#X obj 242 223 outlet;
#X obj 292 223 outlet;
#X obj 342 223 outlet;
#X obj 391 223 outlet;
#X obj 441 223 outlet;
#X obj 491 223 outlet;
#X obj 541 223 outlet;
#X obj 591 223 outlet;
#X obj 641 223 outlet;
#X obj 691 223 outlet;
#X obj 741 223 outlet;
#X obj 209 86 unpack 0 0 0;
#X obj 252 115 pack 0 0 0;
#X obj 209 115 & 15;
#X obj 209 136 list;
#X obj 222 177 route 0 1 2 3 4 5 6 7 8 9 10 11 12 13 14 15;
#X connect 1 0 18 0;
#X connect 18 0 19 0;
#X connect 18 0 20 0;
#X connect 18 1 19 1;
#X connect 18 2 19 2;
#X connect 19 0 21 1;
#X connect 20 0 21 0;
#X connect 21 0 22 0;
#X connect 22 0 0 0;
#X connect 22 1 3 0;
#X connect 22 2 4 0;
#X connect 22 3 5 0;
#X connect 22 4 6 0;
#X connect 22 5 7 0;
#X connect 22 6 8 0;
#X connect 22 7 9 0;
#X connect 22 8 10 0;
#X connect 22 9 11 0;
#X connect 22 10 12 0;
#X connect 22 11 13 0;
#X connect 22 12 14 0;
#X connect 22 13 15 0;
#X connect 22 14 16 0;
#X connect 22 15 17 0;
#X restore 222 107 pd ------------Channel Splitter------------;
#X obj 73 260 sel 128;
#X obj 109 282 pack 0 0;
#X obj 109 310 s \$0-notesOFF;
#N canvas 0 22 450 300 notesAndSustains 0;
#N canvas 317 308 450 300 noteOnSplitter 0;
#X obj 45 123 list-moses 144 0;
#X obj 45 79 inlet;
#X obj 150 208 outlet;
#X obj 45 154 list-moses 160 0;
#X connect 0 1 3 0;
#X connect 1 0 0 0;
#X connect 3 0 2 0;
#X restore 96 111 pd noteOnSplitter;
#X obj 96 132 unpack 0 0 0;
#X obj 130 167 ../sustainpedal/sustainpedal;
#X obj 216 132 unpack 0 0 0;
#N canvas 266 232 450 300 sustainSplitter 0;
#X obj 45 59 inlet;
#X obj 140 238 outlet;
#X obj 45 103 list-moses 176 0;
#X obj 45 127 list-moses 192 0;
#X obj 55 163 list-moses 64 1;
#X obj 55 187 list-moses 65 1;
#X connect 0 0 2 0;
#X connect 2 1 3 0;
#X connect 3 0 4 0;
#X connect 4 1 5 0;
#X connect 5 0 1 0;
#X restore 216 111 pd sustainSplitter;
#X obj 96 65 inlet;
#X obj 130 238 outlet;
#X obj 130 193 pack 0 0;
#X connect 0 0 1 0;
#X connect 1 1 2 0;
#X connect 1 2 2 1;
#X connect 2 0 7 0;
#X connect 2 1 7 1;
#X connect 3 2 2 2;
#X connect 4 0 3 0;
#X connect 5 0 0 0;
#X connect 5 0 4 0;
#X connect 7 0 6 0;
#X restore 222 168 pd notesAndSustains;
#X obj 234 190 r \$0-notesOFF;
#N canvas 0 22 450 300 notesAndSustains 0;
#N canvas 317 308 450 300 noteOnSplitter 0;
#X obj 45 123 list-moses 144 0;
#X obj 45 79 inlet;
#X obj 150 208 outlet;
#X obj 45 154 list-moses 160 0;
#X connect 0 1 3 0;
#X connect 1 0 0 0;
#X connect 3 0 2 0;
#X restore 96 111 pd noteOnSplitter;
#X obj 96 132 unpack 0 0 0;
#X obj 130 167 ../sustainpedal/sustainpedal;
#X obj 216 132 unpack 0 0 0;
#N canvas 266 232 450 300 sustainSplitter 0;
#X obj 45 59 inlet;
#X obj 140 238 outlet;
#X obj 45 103 list-moses 176 0;
#X obj 45 127 list-moses 192 0;
#X obj 55 163 list-moses 64 1;
#X obj 55 187 list-moses 65 1;
#X connect 0 0 2 0;
#X connect 2 1 3 0;
#X connect 3 0 4 0;
#X connect 4 1 5 0;
#X connect 5 0 1 0;
#X restore 216 111 pd sustainSplitter;
#X obj 96 65 inlet;
#X obj 130 238 outlet;
#X obj 130 193 pack 0 0;
#X connect 0 0 1 0;
#X connect 1 1 2 0;
#X connect 1 2 2 1;
#X connect 2 0 7 0;
#X connect 2 1 7 1;
#X connect 3 2 2 2;
#X connect 4 0 3 0;
#X connect 5 0 0 0;
#X connect 5 0 4 0;
#X connect 7 0 6 0;
#X restore 342 168 pd notesAndSustains;
#N canvas 0 22 450 300 notesAndSustains 0;
#N canvas 317 308 450 300 noteOnSplitter 0;
#X obj 45 123 list-moses 144 0;
#X obj 45 79 inlet;
#X obj 150 208 outlet;
#X obj 45 154 list-moses 160 0;
#X connect 0 1 3 0;
#X connect 1 0 0 0;
#X connect 3 0 2 0;
#X restore 96 111 pd noteOnSplitter;
#X obj 96 132 unpack 0 0 0;
#X obj 130 167 ../sustainpedal/sustainpedal;
#X obj 216 132 unpack 0 0 0;
#N canvas 266 232 450 300 sustainSplitter 0;
#X obj 45 59 inlet;
#X obj 140 238 outlet;
#X obj 45 103 list-moses 176 0;
#X obj 45 127 list-moses 192 0;
#X obj 55 163 list-moses 64 1;
#X obj 55 187 list-moses 65 1;
#X connect 0 0 2 0;
#X connect 2 1 3 0;
#X connect 3 0 4 0;
#X connect 4 1 5 0;
#X connect 5 0 1 0;
#X restore 216 111 pd sustainSplitter;
#X obj 96 65 inlet;
#X obj 130 238 outlet;
#X obj 130 193 pack 0 0;
#X connect 0 0 1 0;
#X connect 1 1 2 0;
#X connect 1 2 2 1;
#X connect 2 0 7 0;
#X connect 2 1 7 1;
#X connect 3 2 2 2;
#X connect 4 0 3 0;
#X connect 5 0 0 0;
#X connect 5 0 4 0;
#X connect 7 0 6 0;
#X restore 462 168 pd notesAndSustains;
#N canvas 0 22 450 300 notesAndSustains 0;
#N canvas 317 308 450 300 noteOnSplitter 0;
#X obj 45 123 list-moses 144 0;
#X obj 45 79 inlet;
#X obj 150 208 outlet;
#X obj 45 154 list-moses 160 0;
#X connect 0 1 3 0;
#X connect 1 0 0 0;
#X connect 3 0 2 0;
#X restore 96 111 pd noteOnSplitter;
#X obj 96 132 unpack 0 0 0;
#X obj 130 167 ../sustainpedal/sustainpedal;
#X obj 216 132 unpack 0 0 0;
#N canvas 266 232 450 300 sustainSplitter 0;
#X obj 45 59 inlet;
#X obj 140 238 outlet;
#X obj 45 103 list-moses 176 0;
#X obj 45 127 list-moses 192 0;
#X obj 55 163 list-moses 64 1;
#X obj 55 187 list-moses 65 1;
#X connect 0 0 2 0;
#X connect 2 1 3 0;
#X connect 3 0 4 0;
#X connect 4 1 5 0;
#X connect 5 0 1 0;
#X restore 216 111 pd sustainSplitter;
#X obj 96 65 inlet;
#X obj 130 238 outlet;
#X obj 130 193 pack 0 0;
#X connect 0 0 1 0;
#X connect 1 1 2 0;
#X connect 1 2 2 1;
#X connect 2 0 7 0;
#X connect 2 1 7 1;
#X connect 3 2 2 2;
#X connect 4 0 3 0;
#X connect 5 0 0 0;
#X connect 5 0 4 0;
#X connect 7 0 6 0;
#X restore 582 168 pd notesAndSustains;
#X obj 354 190 r \$0-notesOFF;
#X obj 474 190 r \$0-notesOFF;
#X obj 594 190 r \$0-notesOFF;
#N canvas 0 22 450 300 notesAndSustains 0;
#N canvas 317 308 450 300 noteOnSplitter 0;
#X obj 45 123 list-moses 144 0;
#X obj 45 79 inlet;
#X obj 150 208 outlet;
#X obj 45 154 list-moses 160 0;
#X connect 0 1 3 0;
#X connect 1 0 0 0;
#X connect 3 0 2 0;
#X restore 96 111 pd noteOnSplitter;
#X obj 96 132 unpack 0 0 0;
#X obj 130 167 ../sustainpedal/sustainpedal;
#X obj 216 132 unpack 0 0 0;
#N canvas 266 232 450 300 sustainSplitter 0;
#X obj 45 59 inlet;
#X obj 140 238 outlet;
#X obj 45 103 list-moses 176 0;
#X obj 45 127 list-moses 192 0;
#X obj 55 163 list-moses 64 1;
#X obj 55 187 list-moses 65 1;
#X connect 0 0 2 0;
#X connect 2 1 3 0;
#X connect 3 0 4 0;
#X connect 4 1 5 0;
#X connect 5 0 1 0;
#X restore 216 111 pd sustainSplitter;
#X obj 96 65 inlet;
#X obj 130 238 outlet;
#X obj 130 193 pack 0 0;
#X connect 0 0 1 0;
#X connect 1 1 2 0;
#X connect 1 2 2 1;
#X connect 2 0 7 0;
#X connect 2 1 7 1;
#X connect 3 2 2 2;
#X connect 4 0 3 0;
#X connect 5 0 0 0;
#X connect 5 0 4 0;
#X connect 7 0 6 0;
#X restore 222 248 pd notesAndSustains;
#X obj 234 270 r \$0-notesOFF;
#N canvas 0 22 450 300 notesAndSustains 0;
#N canvas 317 308 450 300 noteOnSplitter 0;
#X obj 45 123 list-moses 144 0;
#X obj 45 79 inlet;
#X obj 150 208 outlet;
#X obj 45 154 list-moses 160 0;
#X connect 0 1 3 0;
#X connect 1 0 0 0;
#X connect 3 0 2 0;
#X restore 96 111 pd noteOnSplitter;
#X obj 96 132 unpack 0 0 0;
#X obj 130 167 ../sustainpedal/sustainpedal;
#X obj 216 132 unpack 0 0 0;
#N canvas 266 232 450 300 sustainSplitter 0;
#X obj 45 59 inlet;
#X obj 140 238 outlet;
#X obj 45 103 list-moses 176 0;
#X obj 45 127 list-moses 192 0;
#X obj 55 163 list-moses 64 1;
#X obj 55 187 list-moses 65 1;
#X connect 0 0 2 0;
#X connect 2 1 3 0;
#X connect 3 0 4 0;
#X connect 4 1 5 0;
#X connect 5 0 1 0;
#X restore 216 111 pd sustainSplitter;
#X obj 96 65 inlet;
#X obj 130 238 outlet;
#X obj 130 193 pack 0 0;
#X connect 0 0 1 0;
#X connect 1 1 2 0;
#X connect 1 2 2 1;
#X connect 2 0 7 0;
#X connect 2 1 7 1;
#X connect 3 2 2 2;
#X connect 4 0 3 0;
#X connect 5 0 0 0;
#X connect 5 0 4 0;
#X connect 7 0 6 0;
#X restore 342 248 pd notesAndSustains;
#N canvas 0 22 450 300 notesAndSustains 0;
#N canvas 317 308 450 300 noteOnSplitter 0;
#X obj 45 123 list-moses 144 0;
#X obj 45 79 inlet;
#X obj 150 208 outlet;
#X obj 45 154 list-moses 160 0;
#X connect 0 1 3 0;
#X connect 1 0 0 0;
#X connect 3 0 2 0;
#X restore 96 111 pd noteOnSplitter;
#X obj 96 132 unpack 0 0 0;
#X obj 130 167 ../sustainpedal/sustainpedal;
#X obj 216 132 unpack 0 0 0;
#N canvas 266 232 450 300 sustainSplitter 0;
#X obj 45 59 inlet;
#X obj 140 238 outlet;
#X obj 45 103 list-moses 176 0;
#X obj 45 127 list-moses 192 0;
#X obj 55 163 list-moses 64 1;
#X obj 55 187 list-moses 65 1;
#X connect 0 0 2 0;
#X connect 2 1 3 0;
#X connect 3 0 4 0;
#X connect 4 1 5 0;
#X connect 5 0 1 0;
#X restore 216 111 pd sustainSplitter;
#X obj 96 65 inlet;
#X obj 130 238 outlet;
#X obj 130 193 pack 0 0;
#X connect 0 0 1 0;
#X connect 1 1 2 0;
#X connect 1 2 2 1;
#X connect 2 0 7 0;
#X connect 2 1 7 1;
#X connect 3 2 2 2;
#X connect 4 0 3 0;
#X connect 5 0 0 0;
#X connect 5 0 4 0;
#X connect 7 0 6 0;
#X restore 462 248 pd notesAndSustains;
#N canvas 0 22 450 300 notesAndSustains 0;
#N canvas 317 308 450 300 noteOnSplitter 0;
#X obj 45 123 list-moses 144 0;
#X obj 45 79 inlet;
#X obj 150 208 outlet;
#X obj 45 154 list-moses 160 0;
#X connect 0 1 3 0;
#X connect 1 0 0 0;
#X connect 3 0 2 0;
#X restore 96 111 pd noteOnSplitter;
#X obj 96 132 unpack 0 0 0;
#X obj 130 167 ../sustainpedal/sustainpedal;
#X obj 216 132 unpack 0 0 0;
#N canvas 266 232 450 300 sustainSplitter 0;
#X obj 45 59 inlet;
#X obj 140 238 outlet;
#X obj 45 103 list-moses 176 0;
#X obj 45 127 list-moses 192 0;
#X obj 55 163 list-moses 64 1;
#X obj 55 187 list-moses 65 1;
#X connect 0 0 2 0;
#X connect 2 1 3 0;
#X connect 3 0 4 0;
#X connect 4 1 5 0;
#X connect 5 0 1 0;
#X restore 216 111 pd sustainSplitter;
#X obj 96 65 inlet;
#X obj 130 238 outlet;
#X obj 130 193 pack 0 0;
#X connect 0 0 1 0;
#X connect 1 1 2 0;
#X connect 1 2 2 1;
#X connect 2 0 7 0;
#X connect 2 1 7 1;
#X connect 3 2 2 2;
#X connect 4 0 3 0;
#X connect 5 0 0 0;
#X connect 5 0 4 0;
#X connect 7 0 6 0;
#X restore 582 248 pd notesAndSustains;
#X obj 354 270 r \$0-notesOFF;
#X obj 474 270 r \$0-notesOFF;
#X obj 594 270 r \$0-notesOFF;
#N canvas 0 22 450 300 notesAndSustains 0;
#N canvas 317 308 450 300 noteOnSplitter 0;
#X obj 45 123 list-moses 144 0;
#X obj 45 79 inlet;
#X obj 150 208 outlet;
#X obj 45 154 list-moses 160 0;
#X connect 0 1 3 0;
#X connect 1 0 0 0;
#X connect 3 0 2 0;
#X restore 96 111 pd noteOnSplitter;
#X obj 96 132 unpack 0 0 0;
#X obj 130 167 ../sustainpedal/sustainpedal;
#X obj 216 132 unpack 0 0 0;
#N canvas 266 232 450 300 sustainSplitter 0;
#X obj 45 59 inlet;
#X obj 140 238 outlet;
#X obj 45 103 list-moses 176 0;
#X obj 45 127 list-moses 192 0;
#X obj 55 163 list-moses 64 1;
#X obj 55 187 list-moses 65 1;
#X connect 0 0 2 0;
#X connect 2 1 3 0;
#X connect 3 0 4 0;
#X connect 4 1 5 0;
#X connect 5 0 1 0;
#X restore 216 111 pd sustainSplitter;
#X obj 96 65 inlet;
#X obj 130 238 outlet;
#X obj 130 193 pack 0 0;
#X connect 0 0 1 0;
#X connect 1 1 2 0;
#X connect 1 2 2 1;
#X connect 2 0 7 0;
#X connect 2 1 7 1;
#X connect 3 2 2 2;
#X connect 4 0 3 0;
#X connect 5 0 0 0;
#X connect 5 0 4 0;
#X connect 7 0 6 0;
#X restore 222 328 pd notesAndSustains;
#X obj 234 350 r \$0-notesOFF;
#N canvas 0 22 450 300 notesAndSustains 0;
#N canvas 317 308 450 300 noteOnSplitter 0;
#X obj 45 123 list-moses 144 0;
#X obj 45 79 inlet;
#X obj 150 208 outlet;
#X obj 45 154 list-moses 160 0;
#X connect 0 1 3 0;
#X connect 1 0 0 0;
#X connect 3 0 2 0;
#X restore 96 111 pd noteOnSplitter;
#X obj 96 132 unpack 0 0 0;
#X obj 130 167 ../sustainpedal/sustainpedal;
#X obj 216 132 unpack 0 0 0;
#N canvas 266 232 450 300 sustainSplitter 0;
#X obj 45 59 inlet;
#X obj 140 238 outlet;
#X obj 45 103 list-moses 176 0;
#X obj 45 127 list-moses 192 0;
#X obj 55 163 list-moses 64 1;
#X obj 55 187 list-moses 65 1;
#X connect 0 0 2 0;
#X connect 2 1 3 0;
#X connect 3 0 4 0;
#X connect 4 1 5 0;
#X connect 5 0 1 0;
#X restore 216 111 pd sustainSplitter;
#X obj 96 65 inlet;
#X obj 130 238 outlet;
#X obj 130 193 pack 0 0;
#X connect 0 0 1 0;
#X connect 1 1 2 0;
#X connect 1 2 2 1;
#X connect 2 0 7 0;
#X connect 2 1 7 1;
#X connect 3 2 2 2;
#X connect 4 0 3 0;
#X connect 5 0 0 0;
#X connect 5 0 4 0;
#X connect 7 0 6 0;
#X restore 342 328 pd notesAndSustains;
#N canvas 0 22 450 300 notesAndSustains 0;
#N canvas 317 308 450 300 noteOnSplitter 0;
#X obj 45 123 list-moses 144 0;
#X obj 45 79 inlet;
#X obj 150 208 outlet;
#X obj 45 154 list-moses 160 0;
#X connect 0 1 3 0;
#X connect 1 0 0 0;
#X connect 3 0 2 0;
#X restore 96 111 pd noteOnSplitter;
#X obj 96 132 unpack 0 0 0;
#X obj 130 167 ../sustainpedal/sustainpedal;
#X obj 216 132 unpack 0 0 0;
#N canvas 266 232 450 300 sustainSplitter 0;
#X obj 45 59 inlet;
#X obj 140 238 outlet;
#X obj 45 103 list-moses 176 0;
#X obj 45 127 list-moses 192 0;
#X obj 55 163 list-moses 64 1;
#X obj 55 187 list-moses 65 1;
#X connect 0 0 2 0;
#X connect 2 1 3 0;
#X connect 3 0 4 0;
#X connect 4 1 5 0;
#X connect 5 0 1 0;
#X restore 216 111 pd sustainSplitter;
#X obj 96 65 inlet;
#X obj 130 238 outlet;
#X obj 130 193 pack 0 0;
#X connect 0 0 1 0;
#X connect 1 1 2 0;
#X connect 1 2 2 1;
#X connect 2 0 7 0;
#X connect 2 1 7 1;
#X connect 3 2 2 2;
#X connect 4 0 3 0;
#X connect 5 0 0 0;
#X connect 5 0 4 0;
#X connect 7 0 6 0;
#X restore 462 328 pd notesAndSustains;
#N canvas 0 22 450 300 notesAndSustains 0;
#N canvas 317 308 450 300 noteOnSplitter 0;
#X obj 45 123 list-moses 144 0;
#X obj 45 79 inlet;
#X obj 150 208 outlet;
#X obj 45 154 list-moses 160 0;
#X connect 0 1 3 0;
#X connect 1 0 0 0;
#X connect 3 0 2 0;
#X restore 96 111 pd noteOnSplitter;
#X obj 96 132 unpack 0 0 0;
#X obj 130 167 ../sustainpedal/sustainpedal;
#X obj 216 132 unpack 0 0 0;
#N canvas 266 232 450 300 sustainSplitter 0;
#X obj 45 59 inlet;
#X obj 140 238 outlet;
#X obj 45 103 list-moses 176 0;
#X obj 45 127 list-moses 192 0;
#X obj 55 163 list-moses 64 1;
#X obj 55 187 list-moses 65 1;
#X connect 0 0 2 0;
#X connect 2 1 3 0;
#X connect 3 0 4 0;
#X connect 4 1 5 0;
#X connect 5 0 1 0;
#X restore 216 111 pd sustainSplitter;
#X obj 96 65 inlet;
#X obj 130 238 outlet;
#X obj 130 193 pack 0 0;
#X connect 0 0 1 0;
#X connect 1 1 2 0;
#X connect 1 2 2 1;
#X connect 2 0 7 0;
#X connect 2 1 7 1;
#X connect 3 2 2 2;
#X connect 4 0 3 0;
#X connect 5 0 0 0;
#X connect 5 0 4 0;
#X connect 7 0 6 0;
#X restore 582 328 pd notesAndSustains;
#X obj 354 350 r \$0-notesOFF;
#X obj 474 350 r \$0-notesOFF;
#X obj 594 350 r \$0-notesOFF;
#N canvas 0 22 450 300 notesAndSustains 0;
#N canvas 317 308 450 300 noteOnSplitter 0;
#X obj 45 123 list-moses 144 0;
#X obj 45 79 inlet;
#X obj 150 208 outlet;
#X obj 45 154 list-moses 160 0;
#X connect 0 1 3 0;
#X connect 1 0 0 0;
#X connect 3 0 2 0;
#X restore 96 111 pd noteOnSplitter;
#X obj 96 132 unpack 0 0 0;
#X obj 130 167 ../sustainpedal/sustainpedal;
#X obj 216 132 unpack 0 0 0;
#N canvas 266 232 450 300 sustainSplitter 0;
#X obj 45 59 inlet;
#X obj 140 238 outlet;
#X obj 45 103 list-moses 176 0;
#X obj 45 127 list-moses 192 0;
#X obj 55 163 list-moses 64 1;
#X obj 55 187 list-moses 65 1;
#X connect 0 0 2 0;
#X connect 2 1 3 0;
#X connect 3 0 4 0;
#X connect 4 1 5 0;
#X connect 5 0 1 0;
#X restore 216 111 pd sustainSplitter;
#X obj 96 65 inlet;
#X obj 130 238 outlet;
#X obj 130 193 pack 0 0;
#X connect 0 0 1 0;
#X connect 1 1 2 0;
#X connect 1 2 2 1;
#X connect 2 0 7 0;
#X connect 2 1 7 1;
#X connect 3 2 2 2;
#X connect 4 0 3 0;
#X connect 5 0 0 0;
#X connect 5 0 4 0;
#X connect 7 0 6 0;
#X restore 222 408 pd notesAndSustains;
#X obj 234 430 r \$0-notesOFF;
#N canvas 0 22 450 300 notesAndSustains 0;
#N canvas 317 308 450 300 noteOnSplitter 0;
#X obj 45 123 list-moses 144 0;
#X obj 45 79 inlet;
#X obj 150 208 outlet;
#X obj 45 154 list-moses 160 0;
#X connect 0 1 3 0;
#X connect 1 0 0 0;
#X connect 3 0 2 0;
#X restore 96 111 pd noteOnSplitter;
#X obj 96 132 unpack 0 0 0;
#X obj 130 167 ../sustainpedal/sustainpedal;
#X obj 216 132 unpack 0 0 0;
#N canvas 266 232 450 300 sustainSplitter 0;
#X obj 45 59 inlet;
#X obj 140 238 outlet;
#X obj 45 103 list-moses 176 0;
#X obj 45 127 list-moses 192 0;
#X obj 55 163 list-moses 64 1;
#X obj 55 187 list-moses 65 1;
#X connect 0 0 2 0;
#X connect 2 1 3 0;
#X connect 3 0 4 0;
#X connect 4 1 5 0;
#X connect 5 0 1 0;
#X restore 216 111 pd sustainSplitter;
#X obj 96 65 inlet;
#X obj 130 238 outlet;
#X obj 130 193 pack 0 0;
#X connect 0 0 1 0;
#X connect 1 1 2 0;
#X connect 1 2 2 1;
#X connect 2 0 7 0;
#X connect 2 1 7 1;
#X connect 3 2 2 2;
#X connect 4 0 3 0;
#X connect 5 0 0 0;
#X connect 5 0 4 0;
#X connect 7 0 6 0;
#X restore 342 408 pd notesAndSustains;
#N canvas 0 22 450 300 notesAndSustains 0;
#N canvas 317 308 450 300 noteOnSplitter 0;
#X obj 45 123 list-moses 144 0;
#X obj 45 79 inlet;
#X obj 150 208 outlet;
#X obj 45 154 list-moses 160 0;
#X connect 0 1 3 0;
#X connect 1 0 0 0;
#X connect 3 0 2 0;
#X restore 96 111 pd noteOnSplitter;
#X obj 96 132 unpack 0 0 0;
#X obj 130 167 ../sustainpedal/sustainpedal;
#X obj 216 132 unpack 0 0 0;
#N canvas 266 232 450 300 sustainSplitter 0;
#X obj 45 59 inlet;
#X obj 140 238 outlet;
#X obj 45 103 list-moses 176 0;
#X obj 45 127 list-moses 192 0;
#X obj 55 163 list-moses 64 1;
#X obj 55 187 list-moses 65 1;
#X connect 0 0 2 0;
#X connect 2 1 3 0;
#X connect 3 0 4 0;
#X connect 4 1 5 0;
#X connect 5 0 1 0;
#X restore 216 111 pd sustainSplitter;
#X obj 96 65 inlet;
#X obj 130 238 outlet;
#X obj 130 193 pack 0 0;
#X connect 0 0 1 0;
#X connect 1 1 2 0;
#X connect 1 2 2 1;
#X connect 2 0 7 0;
#X connect 2 1 7 1;
#X connect 3 2 2 2;
#X connect 4 0 3 0;
#X connect 5 0 0 0;
#X connect 5 0 4 0;
#X connect 7 0 6 0;
#X restore 462 408 pd notesAndSustains;
#N canvas 0 22 450 300 notesAndSustains 0;
#N canvas 317 308 450 300 noteOnSplitter 0;
#X obj 45 123 list-moses 144 0;
#X obj 45 79 inlet;
#X obj 150 208 outlet;
#X obj 45 154 list-moses 160 0;
#X connect 0 1 3 0;
#X connect 1 0 0 0;
#X connect 3 0 2 0;
#X restore 96 111 pd noteOnSplitter;
#X obj 96 132 unpack 0 0 0;
#X obj 130 167 ../sustainpedal/sustainpedal;
#X obj 216 132 unpack 0 0 0;
#N canvas 266 232 450 300 sustainSplitter 0;
#X obj 45 59 inlet;
#X obj 140 238 outlet;
#X obj 45 103 list-moses 176 0;
#X obj 45 127 list-moses 192 0;
#X obj 55 163 list-moses 64 1;
#X obj 55 187 list-moses 65 1;
#X connect 0 0 2 0;
#X connect 2 1 3 0;
#X connect 3 0 4 0;
#X connect 4 1 5 0;
#X connect 5 0 1 0;
#X restore 216 111 pd sustainSplitter;
#X obj 96 65 inlet;
#X obj 130 238 outlet;
#X obj 130 193 pack 0 0;
#X connect 0 0 1 0;
#X connect 1 1 2 0;
#X connect 1 2 2 1;
#X connect 2 0 7 0;
#X connect 2 1 7 1;
#X connect 3 2 2 2;
#X connect 4 0 3 0;
#X connect 5 0 0 0;
#X connect 5 0 4 0;
#X connect 7 0 6 0;
#X restore 582 408 pd notesAndSustains;
#X obj 354 430 r \$0-notesOFF;
#X obj 474 430 r \$0-notesOFF;
#X obj 594 430 r \$0-notesOFF;
#X obj 222 218 noteout 1;
#X obj 342 218 noteout 2;
#X obj 462 218 noteout 3;
#X obj 582 218 noteout 4;
#X obj 222 298 noteout 5;
#X obj 342 298 noteout 6;
#X obj 462 298 noteout 7;
#X obj 582 298 noteout 8;
#X obj 222 378 noteout 9;
#X obj 342 378 noteout 10;
#X obj 462 378 noteout 11;
#X obj 582 378 noteout 12;
#X obj 222 458 noteout 13;
#X obj 342 458 noteout 14;
#X obj 462 458 noteout 15;
#X obj 582 458 noteout 16;
#X connect 2 0 3 0;
#X connect 3 0 4 0;
#X connect 3 1 5 0;
#X connect 4 0 6 0;
#X connect 4 1 7 1;
#X connect 5 0 9 0;
#X connect 5 1 11 0;
#X connect 5 2 12 0;
#X connect 5 3 13 0;
#X connect 5 4 17 0;
#X connect 5 5 19 0;
#X connect 5 6 20 0;
#X connect 5 7 21 0;
#X connect 5 8 25 0;
#X connect 5 9 27 0;
#X connect 5 10 28 0;
#X connect 5 11 29 0;
#X connect 5 12 33 0;
#X connect 5 13 35 0;
#X connect 5 14 36 0;
#X connect 5 15 37 0;
#X connect 6 1 7 0;
#X connect 7 0 8 0;
#X connect 9 0 41 0;
#X connect 10 0 41 0;
#X connect 11 0 42 0;
#X connect 12 0 43 0;
#X connect 13 0 44 0;
#X connect 14 0 42 0;
#X connect 15 0 43 0;
#X connect 16 0 44 0;
#X connect 17 0 45 0;
#X connect 18 0 45 0;
#X connect 19 0 46 0;
#X connect 20 0 47 0;
#X connect 21 0 48 0;
#X connect 22 0 46 0;
#X connect 23 0 47 0;
#X connect 24 0 48 0;
#X connect 25 0 49 0;
#X connect 26 0 49 0;
#X connect 27 0 50 0;
#X connect 28 0 51 0;
#X connect 29 0 52 0;
#X connect 30 0 50 0;
#X connect 31 0 51 0;
#X connect 32 0 52 0;
#X connect 33 0 53 0;
#X connect 34 0 53 0;
#X connect 35 0 54 0;
#X connect 36 0 55 0;
#X connect 37 0 56 0;
#X connect 38 0 54 0;
#X connect 39 0 55 0;
#X connect 40 0 56 0;
#X restore 221 286 pd sendToExt;
#X obj 317 210 sel 1;
#X obj 199 396 r \$0-onOffTgl;
#X text 0 53 --> Virtual MIDI Port;
#X msg 225 88 15;
#X obj 356 210 r activeSensing;
#X msg 224 18 0;
#X connect 3 0 28 0;
#X connect 3 1 27 0;
#X connect 4 0 41 0;
#X connect 4 0 39 0;
#X connect 5 0 29 0;
#X connect 8 0 30 1;
#X connect 8 0 31 1;
#X connect 26 0 32 0;
#X connect 27 0 30 0;
#X connect 28 0 31 0;
#X connect 29 0 35 0;
#X connect 30 0 2 0;
#X connect 31 0 1 0;
#X connect 33 0 29 1;
#X connect 33 0 36 0;
#X connect 34 0 35 0;
#X connect 36 0 34 0;
#X connect 37 0 27 1;
#X connect 37 0 28 1;
#X connect 39 0 8 0;
#X connect 40 0 34 0;
#X connect 41 0 26 0;
#X coords 0 -1 1 1 206 320 2 0 30;
