#N canvas 0 0 820 636 10;
#N canvas 227 106 775 691 fft-analysis 1;
#X obj 20 126 *~;
#X obj 19 61 inlet~;
#X obj 20 150 rfft~;
#X obj 41 102 tabreceive~ \$0-hann;
#X obj 20 549 *~;
#X obj 65 530 tabreceive~ \$0-hann;
#X obj 20 476 rifft~;
#X obj 20 581 outlet~;
#X obj 19 395 *~;
#X obj 16 7 block~ 256 4;
#X obj 397 227 *~ 0.0125;
#X obj 454 181 r \$0-gain-depth;
#X obj 454 203 * 0.015;
#X obj 398 42 inlet~;
#X obj 397 105 *~;
#X obj 397 129 rfft~;
#X obj 418 81 tabreceive~ \$0-hann;
#X floatatom 86 473 5 0 0 0 - - -;
#X obj 20 505 /~ 32;
#N canvas 0 0 600 543 mag 0;
#X obj 112 147 *~;
#X obj 174 145 *~;
#X obj 111 119 inlet~;
#X obj 175 119 inlet~;
#X obj 113 198 outlet~;
#X obj 112 174 q8_sqrt~;
#X connect 0 0 5 0;
#X connect 1 0 5 0;
#X connect 2 0 0 0;
#X connect 2 0 0 1;
#X connect 3 0 1 0;
#X connect 3 0 1 1;
#X connect 5 0 4 0;
#X restore 396 153 pd mag;
#X obj 50 397 *~;
#X connect 0 0 2 0;
#X connect 1 0 0 0;
#X connect 2 0 8 0;
#X connect 2 1 20 0;
#X connect 3 0 0 1;
#X connect 4 0 7 0;
#X connect 5 0 4 1;
#X connect 6 0 18 0;
#X connect 8 0 6 0;
#X connect 10 0 8 1;
#X connect 10 0 20 1;
#X connect 11 0 12 0;
#X connect 12 0 10 1;
#X connect 13 0 14 0;
#X connect 14 0 15 0;
#X connect 15 0 19 0;
#X connect 15 1 19 1;
#X connect 16 0 14 1;
#X connect 17 0 18 1;
#X connect 18 0 4 0;
#X connect 19 0 10 0;
#X connect 20 0 6 1;
#X restore 52 492 pd fft-analysis;
#N canvas 35 66 600 441 Hann-window 0;
#N canvas 0 0 450 300 (subpatch) 0;
#X array \$0-hann 256 float 0;
#X coords 0 1 255 0 200 120 1;
#X restore 293 249 graph;
#X msg 171 263 0;
#X obj 65 312 osc~;
#X obj 65 264 samplerate~;
#X obj 65 335 *~ -0.5;
#X obj 65 358 +~ 0.5;
#X obj 57 383 tabwrite~ \$0-hann;
#X text 279 241 1;
#X text 272 359 0;
#X text 288 372 0;
#X obj 57 241 bng 15 250 50 0 empty empty empty 0 -6 0 8 -262144 -1
-1;
#X text 336 221 Hann window;
#X text 113 310 period 512;
#X text 90 215 recalculate Hann;
#X text 125 230 window table;
#X obj 57 146 loadbang;
#X msg 79 179 \; pd dsp 1;
#X text 40 27 The Hann window is now recomputed on 'loadbang' to make
the file smaller (it doesn't have to be saved with the array.);
#X text 474 375 511;
#X obj 65 288 / 256;
#X connect 1 0 2 1;
#X connect 2 0 4 0;
#X connect 3 0 19 0;
#X connect 4 0 5 0;
#X connect 5 0 6 0;
#X connect 10 0 3 0;
#X connect 10 0 1 0;
#X connect 10 0 6 0;
#X connect 15 0 10 0;
#X connect 15 0 16 0;
#X connect 19 0 2 0;
#X restore 170 493 pd Hann-window;
#N canvas 0 0 454 304 (subpatch) 0;
#X array \$0-delay 256 float 2;
#X coords 0 1024 256 0 512 60 1;
#X restore 26 158 graph;
#X text 12 150 2;
#N canvas 0 0 450 300 (subpatch) 0;
#X array \$0-feedback 256 float 2;
#X coords 0 1 256 0 512 60 1;
#X restore 26 254 graph;
#X text 12 310 0;
#X text 10 250 1;
#X text 28 78 in each individual bin.;
#X text 30 63 The two arrays below are for setting the delay and feedback
;
#X text 198 2 SPECTRAL DELAY;
#X text 28 99 See the fft-analysis subpatch for details how it is done.
;
#X text 26 23 Example patch for spectral delay \, utilizing Miller
;
#X text 27 38 Puckette's patch on Fourier Resynthesis.;
#X text 12 403 0;
#X text 12 344 1;
#X text 25 413 0;
#X text 518 411 22K;
#X obj 51 513 outlet~;
#X floatatom 501 237 5 0 0 2 fb-sin - -;
#X floatatom 501 140 5 0 0 2 del-sin - -;
#N canvas 0 0 450 300 del-sin 0;
#X obj 45 289 tabwrite \$0-delay;
#N canvas 0 0 450 300 count256 0;
#X obj 101 155 f 0;
#X obj 133 155 + 1;
#X obj 101 79 t a b;
#X obj 103 111 until;
#X obj 162 112 0;
#X obj 103 27 inlet;
#X msg 101 51 256;
#X obj 102 192 outlet;
#X connect 0 0 1 0;
#X connect 0 0 7 0;
#X connect 1 0 0 1;
#X connect 2 0 3 0;
#X connect 2 1 4 0;
#X connect 3 0 0 0;
#X connect 4 0 0 1;
#X connect 5 0 6 0;
#X connect 6 0 2 0;
#X restore 42 131 pd count256;
#X obj 44 208 sin;
#X obj 43 159 t a a;
#X obj 44 184 / 10;
#X obj 46 232 + 1;
#X obj 47 261 * 512;
#X floatatom 120 167 5 0 0 0 - - -;
#X obj 47 95 t b a;
#X obj 47 70 inlet;
#X connect 1 0 3 0;
#X connect 2 0 5 0;
#X connect 3 0 4 0;
#X connect 3 1 0 1;
#X connect 4 0 2 0;
#X connect 5 0 6 0;
#X connect 6 0 0 0;
#X connect 7 0 4 1;
#X connect 8 0 1 0;
#X connect 8 1 4 1;
#X connect 9 0 8 0;
#X restore 628 154 pd del-sin;
#N canvas 492 383 519 433 fb-sin 0;
#N canvas 0 0 450 300 count256 0;
#X obj 101 155 f 0;
#X obj 133 155 + 1;
#X obj 101 79 t a b;
#X obj 103 111 until;
#X obj 162 112 0;
#X obj 103 27 inlet;
#X msg 101 51 256;
#X obj 102 192 outlet;
#X connect 0 0 1 0;
#X connect 0 0 7 0;
#X connect 1 0 0 1;
#X connect 2 0 3 0;
#X connect 2 1 4 0;
#X connect 3 0 0 0;
#X connect 4 0 0 1;
#X connect 5 0 6 0;
#X connect 6 0 2 0;
#X restore 234 129 pd count256;
#X obj 235 157 t a a;
#X obj 237 287 tabwrite \$0-feedback;
#X obj 236 206 cos;
#X obj 236 182 / 20;
#X obj 236 230 + 1;
#X floatatom 296 164 5 0 0 0 - - -;
#X obj 239 93 t b a;
#X obj 239 68 inlet;
#X obj 236 261 / 2.5;
#X text 124 263 don't go to 1:;
#X connect 0 0 1 0;
#X connect 1 0 4 0;
#X connect 1 1 2 1;
#X connect 3 0 5 0;
#X connect 4 0 3 0;
#X connect 5 0 9 0;
#X connect 6 0 4 1;
#X connect 7 0 0 0;
#X connect 7 1 4 1;
#X connect 8 0 7 0;
#X connect 9 0 2 0;
#X restore 630 251 pd fb-sin;
#X obj 541 160 vsl 15 55 0 1024 0 0 empty empty empty 0 -9 0 10 -262144
-1 -1 0 1;
#X obj 719 240 s \$0-delay;
#X msg 719 218 const \$1;
#X obj 540 256 vsl 15 55 0 1 0 0 empty empty empty 0 -9 0 10 -262144
-1 -1 0 1;
#X obj 711 339 s \$0-feedback;
#X msg 711 314 const \$1;
#X obj 542 352 vsl 15 55 0 1 0 0 empty empty empty 0 -9 0 10 -262144
-1 -1 0 1;
#X msg 723 410 const \$1;
#X obj 723 435 s \$0-gain;
#X floatatom 500 333 5 0 0 2 gain-sin - -;
#N canvas 492 383 519 433 gain-sin 0;
#N canvas 0 0 450 300 count256 0;
#X obj 101 155 f 0;
#X obj 133 155 + 1;
#X obj 101 79 t a b;
#X obj 103 111 until;
#X obj 162 112 0;
#X obj 103 27 inlet;
#X msg 101 51 256;
#X obj 102 192 outlet;
#X connect 0 0 1 0;
#X connect 0 0 7 0;
#X connect 1 0 0 1;
#X connect 2 0 3 0;
#X connect 2 1 4 0;
#X connect 3 0 0 0;
#X connect 4 0 0 1;
#X connect 5 0 6 0;
#X connect 6 0 2 0;
#X restore 234 129 pd count256;
#X obj 235 157 t a a;
#X obj 236 206 cos;
#X obj 236 182 / 20;
#X obj 236 230 + 1;
#X obj 236 261 / 2;
#X floatatom 296 164 5 0 0 0 - - -;
#X obj 239 93 t b a;
#X obj 239 68 inlet;
#X obj 237 287 tabwrite \$0-gain;
#X connect 0 0 1 0;
#X connect 1 0 3 0;
#X connect 1 1 9 1;
#X connect 2 0 4 0;
#X connect 3 0 2 0;
#X connect 4 0 5 0;
#X connect 5 0 9 0;
#X connect 6 0 3 1;
#X connect 7 0 0 0;
#X connect 7 1 3 1;
#X connect 8 0 7 0;
#X restore 621 347 pd gain-sin;
#X obj 52 472 inlet~;
#X text 64 558 Based on patches by MSP \, Johannes Kreidler \, Orm
Finnendahl;
#X text 12 215 0;
#X obj 128 233 hsl 64 12 0 1 0 1 \$0-delay-depth empty delay-depth
4 6 1 8 -262144 -258699 -1 4000 1;
#X obj 130 329 hsl 64 12 0 1 0 1 \$0-gain-depth empty gain-depth 4
6 1 8 -262144 -258699 -1 5200 1;
#X obj 155 468 inlet~;
#X obj 63 397 table \$0-gain-i 256;
#X obj 63 375 table \$0-gain-r 256;
#X connect 0 0 17 0;
#X connect 18 0 21 0;
#X connect 19 0 20 0;
#X connect 22 0 24 0;
#X connect 24 0 23 0;
#X connect 25 0 27 0;
#X connect 27 0 26 0;
#X connect 28 0 29 0;
#X connect 29 0 30 0;
#X connect 31 0 32 0;
#X connect 33 0 0 0;
#X connect 38 0 0 1;
#X coords 0 -1 1 1 560 320 1 10 120;
