#N canvas 225 83 851 755 10;
#X obj 101 98 tabplay~ \$0-sample;
#X obj 117 73 spigot 1;
#X obj 184 50 tgl 15 0 empty empty loop 17 7 1 10 -262144 -1 -1 0 1
;
#X msg 101 47 bang;
#N canvas 0 0 506 290 sample 0;
#X obj 76 84 openpanel;
#X obj 76 161 soundfiler;
#X obj 75 189 table \$0-sample;
#X msg 76 135 read -resize \$1 \$2-sample;
#X obj 76 110 pack s \$0;
#X obj 76 57 inlet;
#X connect 0 0 4 0;
#X connect 3 0 1 0;
#X connect 4 0 3 0;
#X connect 5 0 0 0;
#X restore 280 89 pd sample;
#X obj 280 64 bng 20 250 50 0 empty empty open-sample 0 -6 0 8 -262144
-1 -1;
#X obj 25 92 noise~;
#X obj 101 197 specdelay-decaying~;
#X obj 100 529 hip~ 80;
#X obj 100 156 soundinput;
#X obj 101 560 rj/e_platereverb 1;
#X obj 240 532 loadbang;
#X msg 240 556 dry 0.8;
#X obj 101 590 soundoutput;
#N canvas 0 0 921 747 harmtree 0;
#X obj 188 196 + 1;
#X obj 260 196 + 1;
#X obj 215 119 t b b;
#X floatatom 254 242 5 0 0 0 - - -;
#X floatatom 203 221 5 0 0 0 - - -;
#X obj 172 98 t a b;
#X floatatom 187 275 5 0 0 0 - - -;
#X floatatom 221 42 5 0 0 0 - - -;
#X msg 170 37 bang;
#X obj 172 71 f;
#X obj 169 219 / 1;
#X obj 171 247 * 1;
#X msg 218 19 bang;
#X obj 344 108 unpack 0 0 0 0;
#N canvas 331 27 692 436 octave-transpose-into-range 0;
#X obj 272 263 outlet;
#X obj 185 74 inlet;
#X obj 185 99 max 1;
#X obj 355 183 * 0.5;
#X obj 127 183 * 2;
#X obj 185 149 f;
#X obj 185 184 moses 100;
#X obj 272 184 moses 2000;
#X floatatom 375 130 5 0 0 0 - - -;
#X msg 376 104 10000;
#X obj 268 74 inlet;
#X obj 348 70 inlet;
#X connect 1 0 2 0;
#X connect 2 0 5 0;
#X connect 3 0 5 0;
#X connect 4 0 5 0;
#X connect 5 0 6 0;
#X connect 6 0 4 0;
#X connect 6 1 7 0;
#X connect 7 0 0 0;
#X connect 7 1 3 0;
#X connect 8 0 7 1;
#X connect 9 0 8 0;
#X connect 10 0 6 1;
#X connect 11 0 7 1;
#X restore 220 58 pd octave-transpose-into-range;
#X obj 516 85 tgl 15 0 empty empty empty 17 7 0 10 -262144 -1 -1 1
1;
#X obj 518 183 b;
#X obj 163 394 int;
#X obj 163 369 * 256;
#X floatatom 172 416 5 0 0 0 - - -;
#X msg 175 470 const 0;
#X obj 202 294 tgl 15 0 empty empty empty 17 7 0 10 -262144 -1 -1 0
1;
#X floatatom 237 404 5 0 0 0 - - -;
#X obj 291 146 random 5;
#X obj 219 146 random 5;
#X msg 414 85 4 1 4 1;
#X obj 163 432 pack 0 0.87;
#X obj 446 58 loadbang;
#X msg 344 84 2 3 4 5;
#X obj 163 492 outlet;
#X obj 519 109 metro 500;
#X obj 515 43 inlet;
#X obj 163 319 spigot 1;
#X obj 163 342 / 11025;
#X connect 0 0 4 0;
#X connect 0 0 10 1;
#X connect 1 0 3 0;
#X connect 1 0 11 1;
#X connect 2 0 24 0;
#X connect 2 1 23 0;
#X connect 5 0 10 0;
#X connect 5 1 2 0;
#X connect 7 0 9 1;
#X connect 8 0 9 0;
#X connect 9 0 5 0;
#X connect 10 0 11 0;
#X connect 11 0 6 0;
#X connect 11 0 14 0;
#X connect 11 0 32 0;
#X connect 12 0 7 0;
#X connect 13 0 24 1;
#X connect 13 1 0 1;
#X connect 13 2 23 1;
#X connect 13 3 1 1;
#X connect 14 0 9 1;
#X connect 15 0 30 0;
#X connect 16 0 8 0;
#X connect 17 0 19 0;
#X connect 17 0 26 0;
#X connect 18 0 17 0;
#X connect 20 0 29 0;
#X connect 21 0 32 1;
#X connect 22 0 26 1;
#X connect 23 0 1 0;
#X connect 24 0 0 0;
#X connect 25 0 13 0;
#X connect 26 0 29 0;
#X connect 27 0 25 0;
#X connect 28 0 13 0;
#X connect 30 0 16 0;
#X connect 31 0 15 0;
#X connect 32 0 33 0;
#X connect 33 0 18 0;
#X restore 659 118 pd harmtree;
#X obj 658 89 tgl 15 0 empty empty empty 17 7 0 10 -262144 -1 -1 1
1;
#X msg 645 159 feed \$1 \$2;
#X msg 740 160 gain \$1 \$2;
#X obj 689 58 loadbang;
#X msg 689 80 1;
#X obj 28 121 *~ 0.3;
#X connect 0 1 1 0;
#X connect 1 0 0 0;
#X connect 2 0 1 1;
#X connect 3 0 0 0;
#X connect 5 0 4 0;
#X connect 6 0 20 0;
#X connect 7 0 8 0;
#X connect 8 0 10 0;
#X connect 8 0 10 1;
#X connect 9 0 7 0;
#X connect 9 1 7 0;
#X connect 10 0 13 0;
#X connect 10 1 13 1;
#X connect 11 0 12 0;
#X connect 12 0 10 2;
#X connect 14 0 16 0;
#X connect 14 0 17 0;
#X connect 15 0 14 0;
#X connect 16 0 7 1;
#X connect 17 0 7 1;
#X connect 18 0 19 0;
#X connect 19 0 15 0;
#X connect 20 0 7 0;
