#N canvas 433 383 450 300 10;
#X msg 84 30 open 32;
#X obj 94 73 send \$0-arduino;
#X obj 110 159 arduino 1;
#X obj 111 195 send \$0-arduino-out;
#X obj 114 131 receive \$0-arduino;
#X obj 303 202 print;
#X connect 0 0 1 0;
#X connect 2 0 3 0;
#X connect 2 2 5 0;
#X connect 4 0 2 0;
