#N canvas 0 22 570 606 10;
#X obj -380 -428 knob 32 32 20 20000 1 0 empty empty empty 0 -8 0 8
-262144 -1 -1 0 1;
#X obj -380 -371 osc~;
#X floatatom -371 -393 5 0 0 0 - - -;
#X obj -425 -447 line;
#X floatatom -425 -424 5 0 0 0 - - -;
#X msg -385 -464 40 2000;
#X msg -425 -485 10000 2000;
#X obj -202 -329 int;
#X obj -202 -388 r midiStream;
#N canvas 0 22 658 568 lucesVelocidad 0;
#X obj 100 142 unpack 0 0 0;
#X obj 321 225 / 5;
#X floatatom 297 274 5 0 0 0 - - -;
#X obj 297 248 int;
#X obj 294 184 sel 0;
#X floatatom 363 201 5 0 0 0 - - -;
#N canvas 0 22 450 300 noteOnSplitter 0;
#X obj 45 123 list-moses 144 0;
#X obj 45 79 inlet;
#X obj 150 208 outlet;
#X obj 45 155 list-moses 160 0;
#X connect 0 1 3 0;
#X connect 1 0 0 0;
#X connect 3 0 2 0;
#X restore 60 114 pd noteOnSplitter;
#X obj 435 166 knob 32 32 0 127 0 0 empty empty empty 0 -8 0 8 -262144
-1 -1 0 1;
#X floatatom 435 236 5 0 0 0 - - -;
#X obj 435 214 int;
#X obj 363 275 + 0;
#X floatatom 343 313 5 0 0 0 - - -;
#X text 381 313 <--- Valor enviado;
#X obj 111 235 / 5;
#X floatatom 87 284 5 0 0 0 - - -;
#X obj 87 258 int;
#X obj 84 194 sel 0;
#X floatatom 153 211 5 0 0 0 - - -;
#X obj 225 176 knob 32 32 0 127 0 0 empty empty empty 0 -8 0 8 -262144
-1 -1 0 1;
#X floatatom 225 246 5 0 0 0 - - -;
#X obj 225 224 int;
#X floatatom 133 323 5 0 0 0 - - -;
#X text 171 323 <--- Valor enviado;
#X obj 153 286 + 0;
#X obj 70 74 inlet;
#X obj 143 369 outlet;
#X connect 0 2 4 0;
#X connect 0 2 16 0;
#X connect 1 0 3 0;
#X connect 3 0 2 0;
#X connect 4 1 5 0;
#X connect 4 1 1 0;
#X connect 5 0 10 0;
#X connect 6 0 0 0;
#X connect 7 0 9 0;
#X connect 8 0 10 1;
#X connect 9 0 8 0;
#X connect 10 0 11 0;
#X connect 11 0 25 0;
#X connect 13 0 15 0;
#X connect 15 0 14 0;
#X connect 16 1 17 0;
#X connect 16 1 13 0;
#X connect 17 0 23 0;
#X connect 18 0 20 0;
#X connect 19 0 23 1;
#X connect 20 0 19 0;
#X connect 21 0 25 0;
#X connect 23 0 21 0;
#X connect 24 0 6 0;
#X restore -202 -355 pd lucesVelocidad;
#N canvas 0 22 734 528 fourier 0;
#N canvas 245 88 550 617 fft-analyse 0;
#X obj 55 164 *~;
#X obj 14 99 inlet~;
#X obj 15 218 rfft~;
#X obj 15 293 *~;
#X obj 57 293 *~;
#X obj 76 140 tabreceive~ hanning;
#X obj 15 334 sqrt~;
#X obj 38 448 tabwrite~ fftLeds;
#X obj 110 424 metro 100;
#X obj 110 405 tgl 15 0 empty empty empty 17 7 0 10 -262144 -1 -1 1
1;
#X obj 173 365 loadbang;
#X obj 15 17 block~ 2048 4;
#X obj 37 399 /~ 80;
#X connect 0 0 2 0;
#X connect 1 0 0 0;
#X connect 2 0 3 0;
#X connect 2 0 3 1;
#X connect 2 1 4 0;
#X connect 2 1 4 1;
#X connect 3 0 6 0;
#X connect 4 0 6 0;
#X connect 5 0 0 1;
#X connect 6 0 12 0;
#X connect 8 0 7 0;
#X connect 9 0 8 0;
#X connect 10 0 9 0;
#X connect 12 0 7 0;
#X restore 86 130 pd fft-analyse;
#N canvas 0 22 607 471 hanning 0;
#N canvas 0 22 450 300 (subpatch) 0;
#X array hanning 2048 float 0;
#X coords 0 1 2047 0 200 120 1;
#X restore 59 109 graph;
#X msg 484 117 0;
#X obj 378 166 osc~;
#X obj 378 118 samplerate~;
#X obj 378 189 *~ -0.5;
#X obj 378 212 +~ 0.5;
#X text 41 102 1;
#X text 42 218 0;
#X text 54 232 0;
#X obj 370 95 bng 15 250 50 0 empty empty empty 0 -6 0 8 -262144 -1
-1;
#X text 248 232 511;
#X obj 370 237 tabwrite~ hanning;
#X text 370 61 Hanning window:;
#X obj 302 95 loadbang;
#X obj 378 142 / 2048;
#X connect 1 0 2 1;
#X connect 2 0 4 0;
#X connect 3 0 14 0;
#X connect 4 0 5 0;
#X connect 5 0 11 0;
#X connect 9 0 3 0;
#X connect 9 0 1 0;
#X connect 9 0 11 0;
#X connect 13 0 9 0;
#X connect 14 0 2 0;
#X restore 178 130 pd hanning;
#N canvas 0 22 450 300 (subpatch) 0;
#X array fftLeds 255 float 1;
#A 0 0 0 0 0 0 0 0 0 0 0 0 0 0 0 0 0 0 0 0 0 0 0 0 0 0 0 0 0 0 0 0
0 0 0 0 0 0 0 0 0 0 0 0 0 0 0 0 0 0 0 0 0 0 0 0 0 0 0 0 0 0 0 0 0 0
0 0 0 0 0 0 0 0 0 0 0 0 0 0 0 0 0 0 0 0 0 0 0 0 0 0 0 0 0 0 0 0 0 0
0 0 0 0 0 0 0 0 0 0 0 0 0 0 0 0 0 0 0 0 0 0 0 0 0 0 0 0 0 0 0 0 0 0
0 0 0 0 0 0 0 0 0 0 0 0 0 0 0 0 0 0 0 0 0 0 0 0 0 0 0 0 0 0 0 0 0 0
0 0 0 0 0 0 0 0 0 0 0 0 0 0 0 0 0 0 0 0 0 0 0 0 0 0 0 0 0 0 0 0 0 0
0 0 0 0 0 0 0 0 0 0 0 0 0 0 0 0 0 0 0 0 0 0 0 0 0 0 0 0 0 0 0 0 0 0
0 0 0 0 0 0 0 0 0 0 0 0 0 0 0 0 0 0 0 0;
#X coords 0 5 254 0 400 140 1;
#X restore 52 266 graph;
#X obj 146 94 dac~;
#X obj 223 94 osc~ 20000;
#X obj 259 49 hsl 128 15 22.05 22050 0 0 empty empty empty -2 -8 0
10 -262144 -1 -1 0 1;
#X floatatom 282 69 5 0 0 0 - - -;
#X floatatom 216 27 5 0 0 0 - - -;
#N canvas 0 22 837 625 calculaenergia 0;
#X obj 62 184 tabread fftLeds;
#X floatatom 62 208 5 0 0 0 - - -;
#X obj 116 103 cup;
#X msg 142 103 0;
#X floatatom 116 146 5 0 0 0 - - -;
#X obj 153 145 delay 0;
#X obj 153 125 select 5;
#X obj 116 53 tgl 15 0 empty empty empty 17 7 0 10 -262144 -1 -1 1
1;
#X obj 62 259 f;
#X obj 62 235 t f b;
#X obj 62 309 f;
#X obj 62 285 t f b;
#X obj 62 359 f;
#X obj 62 335 t f b;
#X floatatom 109 260 5 0 0 0 - - -;
#X floatatom 109 310 5 0 0 0 - - -;
#X floatatom 109 360 5 0 0 0 - - -;
#X obj 197 308 expr $f1+$f2+$f3;
#X obj 248 363 outlet;
#X obj 116 30 loadbang;
#X obj 116 78 metro 5;
#X connect 0 0 1 0;
#X connect 1 0 9 0;
#X connect 2 0 4 0;
#X connect 2 0 6 0;
#X connect 3 0 2 0;
#X connect 4 0 0 0;
#X connect 5 0 3 0;
#X connect 6 0 5 0;
#X connect 7 0 20 0;
#X connect 8 0 11 0;
#X connect 8 0 14 0;
#X connect 9 0 8 1;
#X connect 9 1 8 0;
#X connect 10 0 13 0;
#X connect 10 0 15 0;
#X connect 11 0 10 1;
#X connect 11 1 10 0;
#X connect 12 0 16 0;
#X connect 13 0 12 1;
#X connect 13 1 12 0;
#X connect 14 0 17 0;
#X connect 15 0 17 1;
#X connect 16 0 17 2;
#X connect 17 0 18 0;
#X connect 19 0 7 0;
#X connect 20 0 2 0;
#X restore 86 167 pd calculaenergia;
#X text 73 406 440;
#X text 397 145 44100/2048 = 22 Hz/sample;
#X obj 91 207 hsl 128 15 0 10 0 0 empty empty empty -2 -8 0 10 -262144
-1 -1 0 1;
#X connect 5 0 4 0;
#X connect 5 0 6 0;
#X connect 6 0 4 0;
#X connect 7 0 4 0;
#X connect 8 0 11 0;
#X restore -145 -418 pd fourier;
#X connect 0 0 1 0;
#X connect 0 0 2 0;
#X connect 2 0 1 0;
#X connect 3 0 0 0;
#X connect 3 0 4 0;
#X connect 5 0 3 0;
#X connect 6 0 3 0;
#X connect 8 0 9 0;
#X connect 9 0 7 0;
