#N canvas 259 125 1021 568 10;
#X obj 122 115 pink~;
#X obj 122 418 dac~;
#X obj 122 143 *~;
#X obj 162 143 *~;
#X obj 122 316 freeverb~;
#X msg 242 299 bypass \$1;
#X text 306 283 Bypass Reverb;
#X obj 242 280 tgl 15 0 empty empty empty 17 7 0 10 -262144 -1 -1 0
1;
#X obj 522 155 osc~ 10;
#X floatatom 522 125 5 0 0 0 - - -;
#X obj 525 105 hsl 128 15 0 0.2 0 0 empty empty empty -2 -8 0 10 -262144
-1 -1 5589 1;
#X obj 576 155 osc~ 10;
#X msg 697 43 \; pd dsp \$1;
#X obj 697 23 tgl 15 0 empty empty empty 17 7 0 10 -262144 -1 -1 1
1;
#X obj 522 38 metro 1000;
#X obj 522 17 tgl 15 0 empty empty empty 17 7 0 10 -262144 -1 -1 1
1;
#X obj 122 280 lop~;
#X obj 162 280 lop~;
#X floatatom 522 375 5 0 0 0 - - -;
#X obj 525 355 hsl 128 15 20 2000 0 0 empty empty empty -2 -8 0 10
-262144 -1 -1 2642 1;
#X obj 522 257 tgl 15 0 empty empty empty 17 7 0 10 -262144 -1 -1 1
1;
#X msg 637 127 0;
#X obj 122 368 *~;
#X obj 162 368 *~;
#X obj 244 388 vsl 25 60 0 1 0 0 empty empty empty 0 -9 0 10 -262144
-1 -1 5900 1;
#X text 273 437 Volume;
#X obj 522 64 randomF 0.2;
#X obj 522 437 line;
#X obj 522 400 t f b;
#X obj 525 465 hsl 128 15 20 2000 0 0 empty empty empty -2 -8 0 10
-262144 -1 -1 4894 1;
#X obj 522 304 randomF 2000;
#X obj 522 277 metro 1000;
#X obj 522 327 + 100;
#X obj 162 253 +~;
#X obj 122 253 +~;
#X obj 22 183 *~ 0.5;
#X obj 72 183 *~ 0.5;
#X text 767 265 graph the output;
#N canvas 0 22 450 300 (subpatch) 0;
#X array array99 100 float 0;
#X coords 0 -1 100 1 200 100 1;
#X restore 773 309 graph;
#X obj 768 243 tabwrite~ array99;
#X obj 805 191 tgl 15 0 empty empty empty 17 7 0 10 -262144 -1 -1 1
1;
#X obj 47 348 s~ tab;
#X obj 759 189 r~ tab;
#X obj 122 183 *~ 0.4;
#X obj 177 183 *~ 0.4;
#X obj 805 215 metro 200;
#X msg 569 417 1500;
#X connect 0 0 2 0;
#X connect 0 0 3 0;
#X connect 0 0 35 0;
#X connect 0 0 36 0;
#X connect 2 0 43 0;
#X connect 3 0 44 0;
#X connect 4 0 22 0;
#X connect 4 1 23 0;
#X connect 5 0 4 0;
#X connect 7 0 5 0;
#X connect 8 0 2 1;
#X connect 9 0 8 0;
#X connect 9 0 11 0;
#X connect 10 0 9 0;
#X connect 11 0 3 1;
#X connect 13 0 12 0;
#X connect 14 0 26 0;
#X connect 15 0 14 0;
#X connect 16 0 4 0;
#X connect 17 0 4 1;
#X connect 18 0 28 0;
#X connect 19 0 18 0;
#X connect 20 0 31 0;
#X connect 21 0 8 1;
#X connect 21 0 11 1;
#X connect 22 0 1 0;
#X connect 23 0 1 1;
#X connect 24 0 23 1;
#X connect 24 0 22 1;
#X connect 26 0 10 0;
#X connect 27 0 17 1;
#X connect 27 0 16 1;
#X connect 27 0 29 0;
#X connect 28 0 27 0;
#X connect 28 1 46 0;
#X connect 30 0 32 0;
#X connect 31 0 30 0;
#X connect 32 0 19 0;
#X connect 33 0 17 0;
#X connect 34 0 16 0;
#X connect 34 0 41 0;
#X connect 35 0 34 0;
#X connect 36 0 33 0;
#X connect 40 0 45 0;
#X connect 42 0 39 0;
#X connect 43 0 34 1;
#X connect 44 0 33 1;
#X connect 45 0 39 0;
#X connect 46 0 27 1;
