#N canvas 255 50 778 612 10;
#X obj 36 16 bng 15 250 50 0 empty empty empty 17 7 0 10 -262144 -1
-1;
#X obj 36 41 openpanel;
#X obj 36 92 soundfiler;
#X msg 36 67 read -resize \$1 canal1 canal2;
#N canvas 0 22 758 466 (subpatch) 0;
#X array canal1 4e+06 float 2;
#X coords 0 1 4e+06 -1 200 140 1;
#X restore 544 28 graph;
#N canvas 0 22 450 300 (subpatch) 0;
#X array canal2 4e+06 float 2;
#X coords 0 1 4e+06 -1 200 140 1;
#X restore 544 188 graph;
#X floatatom 52 115 12 0 0 0 - - -;
#X obj 36 281 phasor~;
#X floatatom 58 200 12 0 0 0 - - -;
#X obj 36 423 tabread4~ canal1;
#X obj 76 443 tabread4~ canal2;
#X obj 52 135 s sampleNumber;
#X obj 36 385 *~;
#X obj 36 489 *~;
#X obj 76 489 *~;
#X obj 279 426 vsl 25 60 0 1 0 0 empty empty empty 0 -9 0 10 -262144
-1 -1 0 1;
#X obj 51 359 r sampleNumber;
#X msg 396 45 \; pd dsp \$1;
#X obj 396 25 tgl 15 0 empty empty empty 17 7 0 10 -262144 -1 -1 0
1;
#X obj 36 532 freeverb~;
#X msg 407 128 roomsize \$1;
#X msg 407 173 damping \$1;
#X msg 407 217 width \$1;
#X msg 407 261 wet \$1;
#X msg 407 305 dry \$1;
#X obj 419 282 hsl 60 18 0 1 0 1 empty empty dry 2 9 1 12 -225271 -1
-1 4300 0;
#X obj 419 238 hsl 60 18 0 1 0 1 empty empty wet 2 9 1 12 -225271 -1
-1 4400 0;
#X obj 419 194 hsl 60 18 0 1 0 1 empty empty width 2 9 1 12 -262131
-1 -1 4200 0;
#X obj 419 150 hsl 60 18 0 2 0 1 empty empty damping 2 9 1 12 -261689
-1 -1 5000 0;
#X obj 419 105 hsl 60 18 0.11 1.1 0 1 empty empty roomsize 2 9 1 12
-261689 -1 -1 2900 0;
#X floatatom 389 109 3 0 0 0 - - -;
#X floatatom 389 154 3 0 0 0 - - -;
#X floatatom 389 199 3 0 0 0 - - -;
#X floatatom 389 242 3 0 0 0 - - -;
#X floatatom 389 286 3 0 0 0 - - -;
#X obj 36 178 expr 44100 / $f1;
#X obj 88 223 hsl 128 15 -0.01 0.02 0 0 empty empty empty -2 -8 0 10
-262144 -1 -1 0 1;
#X text 220 226 Playback Speed;
#X text 308 475 Volume;
#X obj 547 336 hsl 195 15 0 1 0 0 empty empty empty -2 -8 0 10 -262144
-1 -1 0 0;
#X obj 519 383 snapshot~;
#X obj 51 339 s~ cursorPos;
#X obj 427 366 r~ cursorPos;
#X obj 519 360 metro 50;
#X obj 519 336 tgl 15 0 empty empty empty 17 7 0 10 -262144 -1 -1 0
1;
#X floatatom 519 408 5 0 0 0 - - -;
#X obj 203 206 bng 15 250 50 0 empty empty empty 17 7 0 10 -262144
-1 -1;
#X text 220 209 Reset normal speed;
#X obj 43 221 f;
#X msg 192 244 0;
#X text 220 269 Goto;
#X msg 193 187 0;
#X text 220 191 Pause;
#X msg 156 515 bypass \$1;
#X text 220 519 Bypass Reverb;
#X obj 156 496 tgl 15 0 empty empty empty 17 7 0 10 -262144 -1 -1 0
1;
#X obj 436 521 osc~ 10;
#X floatatom 436 491 5 0 0 0 - - -;
#X obj 439 471 hsl 128 15 3 9 0 0 empty empty empty -2 -8 0 10 -262144
-1 -1 0 1;
#X obj 490 521 osc~ 10;
#X floatatom 490 491 5 0 0 0 - - -;
#X msg 529 491 180;
#X msg 650 426 open 2;
#X obj 610 492 + 48;
#X obj 572 537 i;
#X obj 575 564 change;
#X obj 650 526 ../ardsynth 1;
#X obj 117 579 outlet~;
#X obj 177 579 outlet~;
#X msg 279 402 0.5;
#X msg 191 287 0.7;
#X msg 192 264 0.3;
#X connect 0 0 1 0;
#X connect 1 0 3 0;
#X connect 2 0 6 0;
#X connect 2 0 35 0;
#X connect 3 0 2 0;
#X connect 6 0 11 0;
#X connect 7 0 12 0;
#X connect 7 0 41 0;
#X connect 8 0 48 1;
#X connect 8 0 36 0;
#X connect 9 0 13 0;
#X connect 10 0 14 0;
#X connect 12 0 9 0;
#X connect 12 0 10 0;
#X connect 13 0 19 0;
#X connect 13 0 67 0;
#X connect 14 0 19 1;
#X connect 14 0 68 0;
#X connect 15 0 14 1;
#X connect 15 0 13 1;
#X connect 16 0 12 1;
#X connect 18 0 17 0;
#X connect 20 0 19 0;
#X connect 21 0 19 0;
#X connect 22 0 19 0;
#X connect 23 0 19 0;
#X connect 24 0 19 0;
#X connect 25 0 24 0;
#X connect 25 0 34 0;
#X connect 26 0 23 0;
#X connect 26 0 33 0;
#X connect 27 0 22 0;
#X connect 27 0 32 0;
#X connect 28 0 21 0;
#X connect 28 0 31 0;
#X connect 29 0 20 0;
#X connect 29 0 30 0;
#X connect 35 0 7 0;
#X connect 35 0 8 0;
#X connect 36 0 7 0;
#X connect 40 0 39 0;
#X connect 40 0 45 0;
#X connect 42 0 40 0;
#X connect 43 0 40 0;
#X connect 44 0 43 0;
#X connect 46 0 48 0;
#X connect 48 0 7 0;
#X connect 49 0 7 1;
#X connect 51 0 7 0;
#X connect 53 0 19 0;
#X connect 55 0 53 0;
#X connect 57 0 56 0;
#X connect 58 0 57 0;
#X connect 58 0 60 0;
#X connect 58 0 64 0;
#X connect 60 0 59 0;
#X connect 61 0 59 1;
#X connect 62 0 66 0;
#X connect 63 0 66 0;
#X connect 64 0 65 0;
#X connect 65 0 63 0;
#X connect 69 0 15 0;
#X connect 70 0 7 1;
#X connect 71 0 7 1;
