#N canvas 590 156 503 505 10;
#X obj 0 -10 cnv 15 500 50 empty empty ArdSynth_SeqSynth 20 30 1 16
-133940 -16662 0;
#X obj 0 35 cnv 1 500 1 empty empty empty 20 12 0 14 -228856 -66577
0;
#X floatatom 34 156 5 0 0 0 - - -;
#X floatatom 68 156 5 0 0 0 - - -;
#N canvas 325 328 684 361 simple 0;
#X obj 21 14 inlet;
#X obj 164 13 inlet;
#X obj 319 13 inlet;
#X obj 235 169 osc~;
#X obj 235 249 *~;
#X obj 319 232 line~;
#X text 376 230 envelope;
#X text 376 243 generator;
#X msg 319 196 0 100;
#X text 432 197 on;
#X text 357 197 off;
#X floatatom 242 192 5 0 0 0 - - -;
#X text 176 136 440 * 2^((n-69)/12);
#X msg 119 141 2;
#X obj 149 200 * 440;
#X obj 164 104 expr (($f1)-69)/12;
#X obj 149 168 pow;
#X msg 394 196 \$1 20;
#X obj 446 105 shuffle -30 30;
#X obj 414 126 +;
#X floatatom 456 133 5 0 0 0 - - -;
#X obj 414 76 t f b;
#X obj 319 69 select 0;
#X obj 235 277 outlet~;
#X text 356 13 Amplitude control;
#X text 202 13 Freq extraction;
#X text 59 13 Note ON check;
#X text 442 57 Randomizer;
#X text 452 67 Adds a random number;
#X text 452 77 between -30 and 30 to;
#X text 452 87 the extracted velocity;
#X obj 501 179 inlet;
#X text 538 179 Emergency OFF;
#X obj 394 169 * 0.006;
#X obj 21 93 select 144;
#X connect 0 0 34 0;
#X connect 1 0 15 0;
#X connect 2 0 22 0;
#X connect 3 0 4 0;
#X connect 4 0 23 0;
#X connect 5 0 4 1;
#X connect 8 0 5 0;
#X connect 13 0 16 0;
#X connect 14 0 3 0;
#X connect 14 0 11 0;
#X connect 15 0 16 1;
#X connect 16 0 14 0;
#X connect 17 0 5 0;
#X connect 18 0 19 1;
#X connect 18 0 20 0;
#X connect 19 0 33 0;
#X connect 21 0 19 0;
#X connect 21 1 18 0;
#X connect 22 0 8 0;
#X connect 22 1 21 0;
#X connect 31 0 8 0;
#X connect 33 0 17 0;
#X connect 34 0 13 0;
#X connect 34 0 14 0;
#X restore 34 186 pd simple note synth;
#X obj 34 236 dac~;
#X text 32 252 audio output;
#X floatatom 103 156 5 0 0 0 - - -;
#X obj 34 97 unpack 0 0 0;
#X obj 34 68 r midiStreamToSynth;
#X obj 151 155 r activeSensingMsgToSynth;
#X obj 164 248 r midiStreamToSynth;
#X obj 291 248 r activeSensingMsgToSynth;
#N canvas 320 128 813 597 polySynth 1;
#X obj 124 207 pack 0 0 0;
#X obj 124 232 route 1 2 3 4 5 6 7 8 9 10 11 12 13 14 15 16;
#X obj 77 550 outlet~;
#X obj 124 25 inlet;
#X obj 124 132 unpack 0 0 0;
#X obj 124 57 list-moses 144 0;
#X obj 124 89 list-moses 160 0;
#X obj 124 159 poly 16 1;
#X obj 124 279 ardsynth_tone 1;
#X obj 124 300 expr~ $v1+$v2+$v3+$v4;
#X obj 189 348 expr~ $v1+$v2+$v3+$v4;
#X obj 124 488 expr~ $v1+$v2+$v3+$v4;
#X obj 254 397 expr~ $v1+$v2+$v3+$v4;
#X obj 319 446 expr~ $v1+$v2+$v3+$v4;
#X obj 23 454 pack 0 500;
#X obj 23 311 vsl 15 128 0.01 1 1 1 empty empty empty 0 -9 0 10 -204786
-1 -1 10300 1;
#X obj 23 488 line;
#X obj 77 526 *~;
#X obj 535 74 list-moses 176 0;
#X obj 535 100 list-moses 177 0;
#X obj 535 132 unpack 0 0 0;
#X obj 569 159 == 64;
#X obj 612 159 == 127;
#X obj 569 182 &&;
#X floatatom 569 203 5 0 0 0 - - -;
#X text 609 204 <-- SustainPedal ON;
#X obj 569 243 send sustainPedal;
#X obj 223 279 ardsynth_tone 2;
#X obj 322 279 ardsynth_tone 3;
#X obj 421 279 ardsynth_tone 4;
#X obj 189 327 ardsynth_tone 5;
#X obj 288 327 ardsynth_tone 6;
#X obj 387 327 ardsynth_tone 7;
#X obj 486 327 ardsynth_tone 8;
#X obj 254 376 ardsynth_tone 9;
#X obj 353 376 ardsynth_tone 10;
#X obj 458 376 ardsynth_tone 11;
#X obj 563 376 ardsynth_tone 12;
#X obj 319 425 ardsynth_tone 13;
#X obj 424 425 ardsynth_tone 14;
#X obj 529 425 ardsynth_tone 15;
#X obj 634 425 ardsynth_tone 16;
#X connect 0 0 1 0;
#X connect 1 0 8 0;
#X connect 1 1 27 0;
#X connect 1 2 28 0;
#X connect 1 3 29 0;
#X connect 1 4 30 0;
#X connect 1 5 31 0;
#X connect 1 6 32 0;
#X connect 1 7 33 0;
#X connect 1 8 34 0;
#X connect 1 9 35 0;
#X connect 1 10 36 0;
#X connect 1 11 37 0;
#X connect 1 12 38 0;
#X connect 1 13 39 0;
#X connect 1 14 40 0;
#X connect 1 15 41 0;
#X connect 3 0 5 0;
#X connect 4 1 7 0;
#X connect 4 2 7 1;
#X connect 5 1 6 0;
#X connect 5 1 18 0;
#X connect 6 0 4 0;
#X connect 7 0 0 0;
#X connect 7 1 0 1;
#X connect 7 2 0 2;
#X connect 8 0 9 0;
#X connect 9 0 11 0;
#X connect 10 0 11 1;
#X connect 11 0 17 1;
#X connect 12 0 11 2;
#X connect 13 0 11 3;
#X connect 14 0 16 0;
#X connect 15 0 14 0;
#X connect 16 0 17 0;
#X connect 17 0 2 0;
#X connect 18 1 19 0;
#X connect 19 0 20 0;
#X connect 20 1 21 0;
#X connect 20 2 22 0;
#X connect 21 0 23 0;
#X connect 22 0 23 1;
#X connect 23 0 24 0;
#X connect 24 0 26 0;
#X connect 27 0 9 1;
#X connect 28 0 9 2;
#X connect 29 0 9 3;
#X connect 30 0 10 0;
#X connect 31 0 10 1;
#X connect 32 0 10 2;
#X connect 33 0 10 3;
#X connect 34 0 12 0;
#X connect 35 0 12 1;
#X connect 36 0 12 2;
#X connect 37 0 12 3;
#X connect 38 0 13 0;
#X connect 39 0 13 1;
#X connect 40 0 13 2;
#X connect 41 0 13 3;
#X restore 164 282 pd polySynth;
#X obj 164 316 dac~;
#X connect 2 0 4 0;
#X connect 3 0 4 1;
#X connect 4 0 5 0;
#X connect 4 0 5 1;
#X connect 7 0 4 2;
#X connect 8 0 2 0;
#X connect 8 1 3 0;
#X connect 8 2 7 0;
#X connect 11 0 13 0;
#X connect 13 0 14 0;
#X connect 13 0 14 1;
