#N canvas 245 251 585 366 10;
#X obj 98 32 inlet;
#X obj 155 132 select 0;
#X msg 155 195 0 300;
#X obj 98 174 osc~;
#X obj 155 279 vline~;
#X obj 98 296 *~;
#X obj 98 333 outlet~;
#X obj 98 132 mtof;
#X obj 98 89 unpack 0 0;
#X msg 350 211 \$1 50 \, 0.1 1000 200;
#X obj 350 174 / 127;
#X obj 353 201 hsl 111 8 0.01 1 1 0 empty empty empty -2 -8 0 10 -203904
-1 -1 9363 0;
#X obj 200 174 r sustainPedal;
#X obj 155 236 spigot 1;
#X obj 200 195 == 0;
#X connect 0 0 8 0;
#X connect 1 0 2 0;
#X connect 1 1 10 0;
#X connect 2 0 13 0;
#X connect 3 0 5 0;
#X connect 4 0 5 1;
#X connect 5 0 6 0;
#X connect 7 0 3 0;
#X connect 8 0 7 0;
#X connect 8 1 1 0;
#X connect 9 0 4 0;
#X connect 10 0 11 0;
#X connect 11 0 9 0;
#X connect 12 0 14 0;
#X connect 12 0 2 0;
#X connect 13 0 4 0;
#X connect 14 0 13 1;
