#N canvas 282 49 678 594 10;
#X obj 54 190 pack 0 0 0;
#X obj 127 519 outlet~;
#X obj 54 35 inlet;
#X obj 54 148 unpack 0 0 0;
#X obj 54 454 pack 0 500;
#X obj 54 311 vsl 15 128 0.01 1 1 1 empty empty empty 0 -9 0 10 -204786
-1 -1 11800 0;
#X obj 54 478 line;
#X obj 127 495 *~;
#X obj 465 94 list-moses 176 0;
#X obj 465 120 list-moses 177 0;
#X obj 465 152 unpack 0 0 0;
#X obj 499 179 == 64;
#X obj 542 179 == 127;
#X obj 499 202 &&;
#X floatatom 499 223 5 0 0 0 - - -;
#X text 539 224 <-- SustainPedal ON;
#X obj 499 263 send sustainPedal;
#X text 95 35 <-- MIDI Events;
#X obj 54 169 poly 32 1;
#X text 124 169 <-- Numera los eventos;
#X obj 54 244 Tone/as_synth_polytone;
#X text 202 244 <-- Módulos de 8 subcanales (daisy-chain);
#X obj 142 374 expr~ $v1+$v2+$v3+$v4;
#X text 342 418 ENTRADAS DISPONIBLES:;
#X text 352 428 midiStream;
#X text 352 438 activeSensing;
#X text 342 458 SALIDAS DISPONIBLES:;
#X text 352 468 sustainPedal;
#X obj 183 274 Tone/as_synth_polytone;
#X obj 312 304 Tone/as_synth_polytone;
#X obj 441 334 Tone/as_synth_polytone;
#X obj 54 77 list-moses 144 0;
#X obj 54 109 list-moses 145 0;
#X obj 272 60 + 144;
#X msg 272 39 \$1;
#X msg 312 39 \$1;
#X obj 312 60 + 145;
#X obj 272 18 inlet;
#X text 314 18 <-- MIDI Channel used;
#X connect 0 0 20 0;
#X connect 2 0 31 0;
#X connect 3 1 18 0;
#X connect 3 2 18 1;
#X connect 4 0 6 0;
#X connect 5 0 4 0;
#X connect 6 0 7 0;
#X connect 7 0 1 0;
#X connect 8 1 9 0;
#X connect 9 0 10 0;
#X connect 10 1 11 0;
#X connect 10 2 12 0;
#X connect 11 0 13 0;
#X connect 12 0 13 1;
#X connect 13 0 14 0;
#X connect 14 0 16 0;
#X connect 18 0 0 0;
#X connect 18 1 0 1;
#X connect 18 2 0 2;
#X connect 20 0 22 0;
#X connect 20 1 28 0;
#X connect 22 0 7 1;
#X connect 28 0 22 1;
#X connect 28 1 29 0;
#X connect 29 0 22 2;
#X connect 29 1 30 0;
#X connect 30 0 22 3;
#X connect 31 1 8 0;
#X connect 31 1 32 0;
#X connect 32 0 3 0;
#X connect 33 0 31 1;
#X connect 34 0 33 0;
#X connect 35 0 36 0;
#X connect 36 0 32 1;
#X connect 37 0 34 0;
#X connect 37 0 35 0;
