#N canvas 164 55 555 621 10;
#X msg 27 80 open 32;
#X obj 27 127 send \$0-ardsynth;
#X obj 306 61 receive \$0-ardsynth;
#X obj 27 173 receive \$0-ardsynth-out;
#X obj 306 115 send \$0-ardsynth-out;
#X obj 306 89 ardsynth 1;
#X msg 27 59 open 2;
#X msg 90 80 close;
#X msg 73 289 emergency off;
#X obj 27 220 list-moses 248 0;
#N canvas 143 185 585 418 active 0;
#X obj 99 78 select 254;
#X floatatom 202 235 5 0 0 0 - - -;
#X obj 321 231 bng 15 250 50 0 empty empty empty 17 7 0 10 -262144
-1 -1;
#X obj 202 214 moses 300;
#X obj 229 145 metro 300;
#X floatatom 202 187 5 0 0 0 - - -;
#X obj 202 166 timer;
#X obj 99 39 inlet;
#X obj 321 267 outlet;
#X msg 229 114 stop;
#X text 366 267 Emergency OFF;
#X text 18 165 El timer no se resetea ----->;
#X text 18 176 y provoca un Emergency;
#X text 18 187 OFF nada más conectar un;
#X text 18 198 dispositivo MIDI;
#X connect 0 0 4 0;
#X connect 0 0 6 0;
#X connect 2 0 8 0;
#X connect 2 0 9 0;
#X connect 3 0 1 0;
#X connect 3 1 2 0;
#X connect 4 0 6 1;
#X connect 5 0 3 0;
#X connect 6 0 5 0;
#X connect 7 0 0 0;
#X connect 9 0 4 0;
#X restore 73 263 pd active sensing;
#X text 135 220 Eventos < 248 -->;
#X text 82 246 Eventos = 254;
#N canvas 475 24 805 690 printMidi 0;
#X obj 46 22 inlet;
#X obj 46 229 & 240;
#X text 82 229 strip channel info;
#X text 66 347 0x80 0x90 0xA0 0xB0 0xC0 0xD0 0xE0;
#X text 63 262 'CHANNEL VOICE MESSAGES';
#X text 73 272 0x80 NoteOFF;
#X text 83 282 0x90 NoteON;
#X text 93 292 0xA0 Polyphonic Aftertouch;
#X text 103 302 0xB0 Control Change;
#X text 113 312 0xC0 Program Change;
#X text 123 322 0xD0 Channel Pressure;
#X text 133 332 0xE0 Pitch Wheel Change;
#X text 449 251 'SYSTEM COMMON MESSAGES';
#X text 459 261 0xF0 System Exclusive;
#X text 469 271 0xF1 MIDI Time Code Quarter Frame;
#X text 479 281 0xF2 Song Position Pointer;
#X text 489 291 0xF3 Song Select;
#X text 499 301 0xF4 Undefined (Reserved);
#X text 509 311 0xF5 Undefined (Reserved);
#X text 519 321 0xF6 Tune Request;
#X text 529 331 0xF7 End of Exclusive;
#X obj 46 48 list split 1;
#X obj 154 106 list split 1;
#X obj 100 77 list split 1;
#X obj 281 276 send channelInfo;
#X obj 46 133 send statusByte;
#X obj 143 133 send dataByte1;
#X obj 46 171 r statusByte;
#X text 262 229 strip command info;
#X msg 62 363 128 144 160 176 192 208 224;
#X obj 46 472 list-idx;
#X obj 46 394 list-find;
#X obj 46 430 t b f;
#X msg 46 451 NoteOFF NoteON PolyAfter CtrlChg PrgChg ChanPress PitchWheel
;
#X msg 46 494 \$1;
#X obj 46 528 send commandInfo;
#X obj 46 195 moses 240;
#X obj 436 472 list-idx;
#X obj 436 394 list-find;
#X obj 452 331 loadbang;
#X obj 436 430 t b f;
#X msg 436 494 \$1;
#X obj 436 528 send commandInfo;
#X msg 452 363 240 241 242 243 244 245 246;
#X text 456 347 0xF0 0xF1 0xF2 0xF3 0xF4 0xF5 0xF6;
#X msg 436 451 SysEx QuarterFr SongPos SongSel Undef Undef TuneReq
EndEx;
#X msg 281 255 [Channel \$1];
#X obj 227 230 & 15;
#X obj 62 331 loadbang;
#X obj 105 472 send commandType;
#X obj 46 804 list-idx;
#X obj 46 762 t b f;
#X obj 46 581 r dataByte1;
#X obj 194 856 send dataByte1Info;
#X text 106 432 0 1 2 3 4 5 6;
#X text 508 432 0 1 2 3 4 5 6 7 + (7);
#X obj 46 738 mod 12;
#X msg 46 783 C C# D D# E F F# G G# A A# B;
#X obj 163 738 div 12;
#X text 89 738 <-- Note;
#X text 205 738 <-- Octave;
#X msg 46 825 \$1;
#X obj 46 857 pp;
#X obj 163 717 - 60;
#X obj 214 696 send dataByte1Info;
#X obj 234 133 send dataByte2;
#X obj 506 581 r dataByte2;
#X obj 506 611 send dataByte2Info;
#X obj 588 880 print [MIDI Event];
#X obj 506 678 r channelInfo;
#X obj 569 709 r commandInfo;
#X obj 597 751 r dataByte1Info;
#X obj 506 763 list append;
#X obj 506 789 list append;
#X obj 597 795 r dataByte2Info;
#X obj 506 832 list append;
#X obj 569 730 list;
#X msg 655 713 |||;
#X text 358 929 MIDI print;
#X obj 597 772 list;
#X msg 695 755 |||;
#X obj 597 815 list;
#X msg 695 798 |||;
#X obj 707 665 loadbang;
#X obj 506 699 list;
#X msg 592 682 |||;
#X text 504 656 Send2print -->;
#X obj 46 662 demultiplex 0 1 2 3 4 5 6 7 8 9 10 11 12 13 14;
#X obj 495 472 send commandType;
#X obj 223 581 r commandType;
#X obj 223 603 t b f;
#X obj 46 635 float;
#X obj 188 834 pitch;
#X obj 543 856 list trim;
#X connect 0 0 21 0;
#X connect 1 0 31 0;
#X connect 21 0 25 0;
#X connect 21 1 23 0;
#X connect 22 0 65 0;
#X connect 23 0 26 0;
#X connect 23 1 22 0;
#X connect 27 0 36 0;
#X connect 29 0 31 1;
#X connect 30 0 34 0;
#X connect 31 0 32 0;
#X connect 32 0 33 0;
#X connect 32 1 30 1;
#X connect 32 1 49 0;
#X connect 33 0 30 0;
#X connect 34 0 35 0;
#X connect 36 0 1 0;
#X connect 36 0 47 0;
#X connect 36 1 38 0;
#X connect 37 0 41 0;
#X connect 38 0 40 0;
#X connect 39 0 43 0;
#X connect 40 0 45 0;
#X connect 40 1 37 1;
#X connect 40 1 88 0;
#X connect 41 0 42 0;
#X connect 43 0 38 1;
#X connect 45 0 37 0;
#X connect 46 0 24 0;
#X connect 47 0 46 0;
#X connect 48 0 29 0;
#X connect 50 0 61 0;
#X connect 51 0 57 0;
#X connect 51 1 50 1;
#X connect 52 0 91 1;
#X connect 56 0 51 0;
#X connect 57 0 50 0;
#X connect 58 0 62 0;
#X connect 61 0 62 1;
#X connect 63 0 58 0;
#X connect 66 0 67 0;
#X connect 69 0 84 0;
#X connect 70 0 76 0;
#X connect 71 0 79 0;
#X connect 72 0 73 0;
#X connect 73 0 75 0;
#X connect 74 0 81 0;
#X connect 75 0 93 0;
#X connect 76 0 72 1;
#X connect 77 0 76 1;
#X connect 79 0 73 1;
#X connect 80 0 79 1;
#X connect 81 0 75 1;
#X connect 82 0 81 1;
#X connect 83 0 77 0;
#X connect 83 0 80 0;
#X connect 83 0 82 0;
#X connect 83 0 85 0;
#X connect 84 0 72 0;
#X connect 85 0 84 1;
#X connect 87 0 56 0;
#X connect 87 0 63 0;
#X connect 87 0 92 0;
#X connect 87 1 56 0;
#X connect 87 1 63 0;
#X connect 87 1 92 0;
#X connect 87 2 64 0;
#X connect 87 3 64 0;
#X connect 87 4 64 0;
#X connect 87 5 64 0;
#X connect 87 6 64 0;
#X connect 87 7 64 0;
#X connect 87 8 64 0;
#X connect 87 9 64 0;
#X connect 87 10 64 0;
#X connect 87 11 64 0;
#X connect 87 12 64 0;
#X connect 87 13 64 0;
#X connect 87 14 64 0;
#X connect 89 0 90 0;
#X connect 90 0 91 0;
#X connect 90 1 87 1;
#X connect 91 0 87 0;
#X connect 92 1 53 0;
#X connect 93 0 68 0;
#X restore 27 344 pd printMidi;
#X text 77 58 <-- Open COM port;
#X floatatom 254 276 5 0 0 0 - - -;
#X floatatom 288 276 5 0 0 0 - - -;
#N canvas 325 328 684 361 simple 0;
#X obj 21 14 inlet;
#X obj 164 13 inlet;
#X obj 319 13 inlet;
#X obj 235 169 osc~;
#X obj 235 249 *~;
#X obj 319 232 line~;
#X text 376 230 envelope;
#X text 376 243 generator;
#X msg 319 196 0 100;
#X text 432 197 on;
#X text 357 197 off;
#X floatatom 242 192 5 0 0 0 - - -;
#X text 176 136 440 * 2^((n-69)/12);
#X msg 119 141 2;
#X obj 149 200 * 440;
#X obj 164 104 expr (($f1)-69)/12;
#X obj 149 168 pow;
#X msg 394 196 \$1 20;
#X obj 446 105 shuffle -30 30;
#X obj 414 126 +;
#X floatatom 456 133 5 0 0 0 - - -;
#X obj 414 76 t f b;
#X obj 319 69 select 0;
#X obj 235 277 outlet~;
#X text 356 13 Amplitude control;
#X text 202 13 Freq extraction;
#X text 59 13 Note ON check;
#X text 442 57 Randomizer;
#X text 452 67 Adds a random number;
#X text 452 77 between -30 and 30 to;
#X text 452 87 the extracted velocity;
#X obj 501 179 inlet;
#X text 538 179 Emergency OFF;
#X obj 394 169 * 0.006;
#X obj 21 93 select 144;
#X connect 0 0 34 0;
#X connect 1 0 15 0;
#X connect 2 0 22 0;
#X connect 3 0 4 0;
#X connect 4 0 23 0;
#X connect 5 0 4 1;
#X connect 8 0 5 0;
#X connect 13 0 16 0;
#X connect 14 0 3 0;
#X connect 14 0 11 0;
#X connect 15 0 16 1;
#X connect 16 0 14 0;
#X connect 17 0 5 0;
#X connect 18 0 19 1;
#X connect 18 0 20 0;
#X connect 19 0 33 0;
#X connect 21 0 19 0;
#X connect 21 1 18 0;
#X connect 22 0 8 0;
#X connect 22 1 21 0;
#X connect 31 0 8 0;
#X connect 33 0 17 0;
#X connect 34 0 13 0;
#X connect 34 0 14 0;
#X restore 254 306 pd simple note synth;
#X obj 254 356 dac~;
#X text 252 372 audio output;
#X floatatom 323 276 5 0 0 0 - - -;
#X obj 254 237 unpack 0 0 0;
#X connect 0 0 1 0;
#X connect 2 0 5 0;
#X connect 3 0 9 0;
#X connect 5 0 4 0;
#X connect 6 0 1 0;
#X connect 7 0 1 0;
#X connect 8 0 17 3;
#X connect 9 0 13 0;
#X connect 9 0 21 0;
#X connect 9 1 10 0;
#X connect 10 0 8 0;
#X connect 15 0 17 0;
#X connect 16 0 17 1;
#X connect 17 0 18 0;
#X connect 17 0 18 1;
#X connect 20 0 17 2;
#X connect 21 0 15 0;
#X connect 21 1 16 0;
#X connect 21 2 20 0;
